M48
; DRILL file {KiCad 5.1.10-88a1d61d58~90~ubuntu20.04.1} date Sun Aug  1 07:07:44 2021
; FORMAT={-:-/ absolute / inch / decimal}
; #@! TF.CreationDate,2021-08-01T07:07:44+02:00
; #@! TF.GenerationSoftware,Kicad,Pcbnew,5.1.10-88a1d61d58~90~ubuntu20.04.1
; #@! TF.FileFunction,Plated,1,4,PTH
FMAT,2
INCH
T1C0.0157
T2C0.0335
T3C0.0394
T4C0.0453
%
G90
G05
T1
X4.9606Y-3.5827
X4.9606Y-3.7008
X4.9606Y-3.8386
X4.9606Y-3.937
X4.9606Y-4.0354
X4.9606Y-4.1732
X4.9606Y-4.2913
X5.0394Y-3.5827
X5.0394Y-3.937
X5.0394Y-4.2913
X5.1181Y-3.5827
X5.1181Y-3.937
X5.1181Y-4.2913
X5.1969Y-3.5827
X5.1969Y-3.937
X5.1969Y-4.2913
X5.315Y-3.5827
X5.315Y-3.937
X5.315Y-4.2913
X5.4331Y-3.5827
X5.4331Y-3.937
X5.4331Y-4.2913
X5.5118Y-3.6142
X5.5118Y-3.8898
X5.5118Y-4.1173
X5.5118Y-4.2531
X5.6677Y-3.8874
X5.6685Y-3.6882
X5.6689Y-3.7854
X5.6689Y-3.9866
X5.6697Y-4.087
X5.689Y-4.1866
X5.7421Y-3.9498
X5.7598Y-3.5961
X5.7598Y-4.278
X5.7602Y-3.8051
X5.765Y-4.0677
X5.789Y-3.9902
X5.8921Y-4.2642
X5.8937Y-3.5961
X5.9031Y-4.0429
X5.928Y-3.8701
X5.928Y-4.0039
X6.0236Y-4.2913
X6.0795Y-4.0134
X6.1024Y-4.2913
X6.122Y-3.7795
X6.1811Y-4.2913
X6.226Y-3.863
X6.226Y-4.0087
X6.2598Y-4.2913
X6.2933Y-3.8602
X6.2933Y-4.0138
X6.3386Y-4.2913
X6.3976Y-4.0157
X6.4173Y-4.2913
X6.4961Y-4.2913
X6.5157Y-4.0157
X6.5748Y-4.2913
X6.6339Y-4.0157
X6.6535Y-4.2913
X6.7323Y-4.2913
X6.752Y-4.0157
X6.8307Y-4.2717
X6.8504Y-3.8583
X6.8504Y-3.937
X6.8504Y-4.0157
X6.8504Y-4.0945
X6.8504Y-4.1732
T2
X5.3626Y-3.6382
X5.3626Y-3.7382
X5.3626Y-3.8382
X5.3626Y-4.0358
X5.3626Y-4.1358
X5.3626Y-4.2358
T3
X5.6063Y-3.637
X5.6063Y-3.737
X5.6063Y-3.837
X5.6063Y-3.937
X5.6063Y-4.037
X5.6063Y-4.137
X5.6063Y-4.237
X5.9795Y-3.6142
X6.0795Y-3.6142
X6.1795Y-3.6142
X6.2795Y-3.6142
X6.2795Y-3.7555
X6.3795Y-3.6142
X6.3795Y-3.7555
X6.4795Y-3.6142
X6.4795Y-3.7555
X6.5795Y-3.6142
X6.5795Y-3.7555
X6.6795Y-3.6142
X6.6795Y-3.7555
X6.7795Y-3.6142
X6.7795Y-3.7555
T4
X5.2594Y-3.6382
X5.2594Y-3.8382
X5.2594Y-4.0358
X5.2594Y-4.2358
T0
M30
