%TF.GenerationSoftware,KiCad,Pcbnew,5.1.10-88a1d61d58~90~ubuntu20.04.1*%
%TF.CreationDate,2021-08-01T07:07:47+02:00*%
%TF.ProjectId,chalkie,6368616c-6b69-4652-9e6b-696361645f70,v1.00*%
%TF.SameCoordinates,Original*%
%TF.FileFunction,Legend,Bot*%
%TF.FilePolarity,Positive*%
%FSLAX46Y46*%
G04 Gerber Fmt 4.6, Leading zero omitted, Abs format (unit mm)*
G04 Created by KiCad (PCBNEW 5.1.10-88a1d61d58~90~ubuntu20.04.1) date 2021-08-01 07:07:47*
%MOMM*%
%LPD*%
G01*
G04 APERTURE LIST*
%ADD10C,0.150000*%
%ADD11C,0.120000*%
G04 APERTURE END LIST*
D10*
X134309523Y-95364761D02*
X134166666Y-95412380D01*
X133928571Y-95412380D01*
X133833333Y-95364761D01*
X133785714Y-95317142D01*
X133738095Y-95221904D01*
X133738095Y-95126666D01*
X133785714Y-95031428D01*
X133833333Y-94983809D01*
X133928571Y-94936190D01*
X134119047Y-94888571D01*
X134214285Y-94840952D01*
X134261904Y-94793333D01*
X134309523Y-94698095D01*
X134309523Y-94602857D01*
X134261904Y-94507619D01*
X134214285Y-94460000D01*
X134119047Y-94412380D01*
X133880952Y-94412380D01*
X133738095Y-94460000D01*
X133309523Y-95412380D02*
X133309523Y-94412380D01*
X132928571Y-94412380D01*
X132833333Y-94460000D01*
X132785714Y-94507619D01*
X132738095Y-94602857D01*
X132738095Y-94745714D01*
X132785714Y-94840952D01*
X132833333Y-94888571D01*
X132928571Y-94936190D01*
X133309523Y-94936190D01*
X132309523Y-95412380D02*
X132309523Y-94412380D01*
X132071428Y-94412380D01*
X131928571Y-94460000D01*
X131833333Y-94555238D01*
X131785714Y-94650476D01*
X131738095Y-94840952D01*
X131738095Y-94983809D01*
X131785714Y-95174285D01*
X131833333Y-95269523D01*
X131928571Y-95364761D01*
X132071428Y-95412380D01*
X132309523Y-95412380D01*
X131309523Y-95412380D02*
X131309523Y-94412380D01*
X130500000Y-94888571D02*
X130833333Y-94888571D01*
X130833333Y-95412380D02*
X130833333Y-94412380D01*
X130357142Y-94412380D01*
X128642857Y-95412380D02*
X128976190Y-94936190D01*
X129214285Y-95412380D02*
X129214285Y-94412380D01*
X128833333Y-94412380D01*
X128738095Y-94460000D01*
X128690476Y-94507619D01*
X128642857Y-94602857D01*
X128642857Y-94745714D01*
X128690476Y-94840952D01*
X128738095Y-94888571D01*
X128833333Y-94936190D01*
X129214285Y-94936190D01*
X128309523Y-94412380D02*
X127642857Y-95412380D01*
X127642857Y-94412380D02*
X128309523Y-95412380D01*
X134190476Y-105404761D02*
X134047619Y-105452380D01*
X133809523Y-105452380D01*
X133714285Y-105404761D01*
X133666666Y-105357142D01*
X133619047Y-105261904D01*
X133619047Y-105166666D01*
X133666666Y-105071428D01*
X133714285Y-105023809D01*
X133809523Y-104976190D01*
X134000000Y-104928571D01*
X134095238Y-104880952D01*
X134142857Y-104833333D01*
X134190476Y-104738095D01*
X134190476Y-104642857D01*
X134142857Y-104547619D01*
X134095238Y-104500000D01*
X134000000Y-104452380D01*
X133761904Y-104452380D01*
X133619047Y-104500000D01*
X133190476Y-105452380D02*
X133190476Y-104452380D01*
X132809523Y-104452380D01*
X132714285Y-104500000D01*
X132666666Y-104547619D01*
X132619047Y-104642857D01*
X132619047Y-104785714D01*
X132666666Y-104880952D01*
X132714285Y-104928571D01*
X132809523Y-104976190D01*
X133190476Y-104976190D01*
X132190476Y-105452380D02*
X132190476Y-104452380D01*
X131952380Y-104452380D01*
X131809523Y-104500000D01*
X131714285Y-104595238D01*
X131666666Y-104690476D01*
X131619047Y-104880952D01*
X131619047Y-105023809D01*
X131666666Y-105214285D01*
X131714285Y-105309523D01*
X131809523Y-105404761D01*
X131952380Y-105452380D01*
X132190476Y-105452380D01*
X131190476Y-105452380D02*
X131190476Y-104452380D01*
X130380952Y-104928571D02*
X130714285Y-104928571D01*
X130714285Y-105452380D02*
X130714285Y-104452380D01*
X130238095Y-104452380D01*
X129238095Y-104452380D02*
X128666666Y-104452380D01*
X128952380Y-105452380D02*
X128952380Y-104452380D01*
X128428571Y-104452380D02*
X127761904Y-105452380D01*
X127761904Y-104452380D02*
X128428571Y-105452380D01*
X158952380Y-96516666D02*
X159761904Y-96516666D01*
X159857142Y-96564285D01*
X159904761Y-96611904D01*
X159952380Y-96707142D01*
X159952380Y-96897619D01*
X159904761Y-96992857D01*
X159857142Y-97040476D01*
X159761904Y-97088095D01*
X158952380Y-97088095D01*
X159666666Y-97516666D02*
X159666666Y-97992857D01*
X159952380Y-97421428D02*
X158952380Y-97754761D01*
X159952380Y-98088095D01*
X159952380Y-98992857D02*
X159476190Y-98659523D01*
X159952380Y-98421428D02*
X158952380Y-98421428D01*
X158952380Y-98802380D01*
X159000000Y-98897619D01*
X159047619Y-98945238D01*
X159142857Y-98992857D01*
X159285714Y-98992857D01*
X159380952Y-98945238D01*
X159428571Y-98897619D01*
X159476190Y-98802380D01*
X159476190Y-98421428D01*
X158952380Y-99278571D02*
X158952380Y-99850000D01*
X159952380Y-99564285D02*
X158952380Y-99564285D01*
X158952380Y-100802380D02*
X158952380Y-101373809D01*
X159952380Y-101088095D02*
X158952380Y-101088095D01*
X158952380Y-101611904D02*
X159952380Y-102278571D01*
X158952380Y-102278571D02*
X159952380Y-101611904D01*
X161502380Y-96522619D02*
X162311904Y-96522619D01*
X162407142Y-96570238D01*
X162454761Y-96617857D01*
X162502380Y-96713095D01*
X162502380Y-96903571D01*
X162454761Y-96998809D01*
X162407142Y-97046428D01*
X162311904Y-97094047D01*
X161502380Y-97094047D01*
X162216666Y-97522619D02*
X162216666Y-97998809D01*
X162502380Y-97427380D02*
X161502380Y-97760714D01*
X162502380Y-98094047D01*
X162502380Y-98998809D02*
X162026190Y-98665476D01*
X162502380Y-98427380D02*
X161502380Y-98427380D01*
X161502380Y-98808333D01*
X161550000Y-98903571D01*
X161597619Y-98951190D01*
X161692857Y-98998809D01*
X161835714Y-98998809D01*
X161930952Y-98951190D01*
X161978571Y-98903571D01*
X162026190Y-98808333D01*
X162026190Y-98427380D01*
X161502380Y-99284523D02*
X161502380Y-99855952D01*
X162502380Y-99570238D02*
X161502380Y-99570238D01*
X162502380Y-101522619D02*
X162026190Y-101189285D01*
X162502380Y-100951190D02*
X161502380Y-100951190D01*
X161502380Y-101332142D01*
X161550000Y-101427380D01*
X161597619Y-101475000D01*
X161692857Y-101522619D01*
X161835714Y-101522619D01*
X161930952Y-101475000D01*
X161978571Y-101427380D01*
X162026190Y-101332142D01*
X162026190Y-100951190D01*
X161502380Y-101855952D02*
X162502380Y-102522619D01*
X161502380Y-102522619D02*
X162502380Y-101855952D01*
X167554761Y-96513095D02*
X167602380Y-96655952D01*
X167602380Y-96894047D01*
X167554761Y-96989285D01*
X167507142Y-97036904D01*
X167411904Y-97084523D01*
X167316666Y-97084523D01*
X167221428Y-97036904D01*
X167173809Y-96989285D01*
X167126190Y-96894047D01*
X167078571Y-96703571D01*
X167030952Y-96608333D01*
X166983333Y-96560714D01*
X166888095Y-96513095D01*
X166792857Y-96513095D01*
X166697619Y-96560714D01*
X166650000Y-96608333D01*
X166602380Y-96703571D01*
X166602380Y-96941666D01*
X166650000Y-97084523D01*
X166602380Y-97417857D02*
X167602380Y-97655952D01*
X166888095Y-97846428D01*
X167602380Y-98036904D01*
X166602380Y-98275000D01*
X167507142Y-99227380D02*
X167554761Y-99179761D01*
X167602380Y-99036904D01*
X167602380Y-98941666D01*
X167554761Y-98798809D01*
X167459523Y-98703571D01*
X167364285Y-98655952D01*
X167173809Y-98608333D01*
X167030952Y-98608333D01*
X166840476Y-98655952D01*
X166745238Y-98703571D01*
X166650000Y-98798809D01*
X166602380Y-98941666D01*
X166602380Y-99036904D01*
X166650000Y-99179761D01*
X166697619Y-99227380D01*
X167602380Y-100132142D02*
X167602380Y-99655952D01*
X166602380Y-99655952D01*
X167602380Y-100465476D02*
X166602380Y-100465476D01*
X167602380Y-101036904D02*
X167030952Y-100608333D01*
X166602380Y-101036904D02*
X167173809Y-100465476D01*
X170079761Y-96505952D02*
X170127380Y-96648809D01*
X170127380Y-96886904D01*
X170079761Y-96982142D01*
X170032142Y-97029761D01*
X169936904Y-97077380D01*
X169841666Y-97077380D01*
X169746428Y-97029761D01*
X169698809Y-96982142D01*
X169651190Y-96886904D01*
X169603571Y-96696428D01*
X169555952Y-96601190D01*
X169508333Y-96553571D01*
X169413095Y-96505952D01*
X169317857Y-96505952D01*
X169222619Y-96553571D01*
X169175000Y-96601190D01*
X169127380Y-96696428D01*
X169127380Y-96934523D01*
X169175000Y-97077380D01*
X169127380Y-97410714D02*
X170127380Y-97648809D01*
X169413095Y-97839285D01*
X170127380Y-98029761D01*
X169127380Y-98267857D01*
X170127380Y-98648809D02*
X169127380Y-98648809D01*
X169127380Y-98886904D01*
X169175000Y-99029761D01*
X169270238Y-99125000D01*
X169365476Y-99172619D01*
X169555952Y-99220238D01*
X169698809Y-99220238D01*
X169889285Y-99172619D01*
X169984523Y-99125000D01*
X170079761Y-99029761D01*
X170127380Y-98886904D01*
X170127380Y-98648809D01*
X170127380Y-99648809D02*
X169127380Y-99648809D01*
X169127380Y-100315476D02*
X169127380Y-100505952D01*
X169175000Y-100601190D01*
X169270238Y-100696428D01*
X169460714Y-100744047D01*
X169794047Y-100744047D01*
X169984523Y-100696428D01*
X170079761Y-100601190D01*
X170127380Y-100505952D01*
X170127380Y-100315476D01*
X170079761Y-100220238D01*
X169984523Y-100125000D01*
X169794047Y-100077380D01*
X169460714Y-100077380D01*
X169270238Y-100125000D01*
X169175000Y-100220238D01*
X169127380Y-100315476D01*
X164100000Y-97088095D02*
X164052380Y-96992857D01*
X164052380Y-96850000D01*
X164100000Y-96707142D01*
X164195238Y-96611904D01*
X164290476Y-96564285D01*
X164480952Y-96516666D01*
X164623809Y-96516666D01*
X164814285Y-96564285D01*
X164909523Y-96611904D01*
X165004761Y-96707142D01*
X165052380Y-96850000D01*
X165052380Y-96945238D01*
X165004761Y-97088095D01*
X164957142Y-97135714D01*
X164623809Y-97135714D01*
X164623809Y-96945238D01*
X165052380Y-97564285D02*
X164052380Y-97564285D01*
X165052380Y-98135714D01*
X164052380Y-98135714D01*
X165052380Y-98611904D02*
X164052380Y-98611904D01*
X164052380Y-98850000D01*
X164100000Y-98992857D01*
X164195238Y-99088095D01*
X164290476Y-99135714D01*
X164480952Y-99183333D01*
X164623809Y-99183333D01*
X164814285Y-99135714D01*
X164909523Y-99088095D01*
X165004761Y-98992857D01*
X165052380Y-98850000D01*
X165052380Y-98611904D01*
X171725000Y-97088095D02*
X171677380Y-96992857D01*
X171677380Y-96850000D01*
X171725000Y-96707142D01*
X171820238Y-96611904D01*
X171915476Y-96564285D01*
X172105952Y-96516666D01*
X172248809Y-96516666D01*
X172439285Y-96564285D01*
X172534523Y-96611904D01*
X172629761Y-96707142D01*
X172677380Y-96850000D01*
X172677380Y-96945238D01*
X172629761Y-97088095D01*
X172582142Y-97135714D01*
X172248809Y-97135714D01*
X172248809Y-96945238D01*
X172677380Y-97564285D02*
X171677380Y-97564285D01*
X172677380Y-98135714D01*
X171677380Y-98135714D01*
X172677380Y-98611904D02*
X171677380Y-98611904D01*
X171677380Y-98850000D01*
X171725000Y-98992857D01*
X171820238Y-99088095D01*
X171915476Y-99135714D01*
X172105952Y-99183333D01*
X172248809Y-99183333D01*
X172439285Y-99135714D01*
X172534523Y-99088095D01*
X172629761Y-98992857D01*
X172677380Y-98850000D01*
X172677380Y-98611904D01*
D11*
%TO.C,J1*%
X173530000Y-91800000D02*
X173530000Y-90470000D01*
X173530000Y-90470000D02*
X172200000Y-90470000D01*
X170930000Y-90470000D02*
X150550000Y-90470000D01*
X150550000Y-93130000D02*
X150550000Y-90470000D01*
X170930000Y-93130000D02*
X150550000Y-93130000D01*
X170930000Y-93130000D02*
X170930000Y-90470000D01*
%TO.C,J2*%
X141070000Y-106350000D02*
X143730000Y-106350000D01*
X141070000Y-106350000D02*
X141070000Y-91050000D01*
X141070000Y-91050000D02*
X143730000Y-91050000D01*
X143730000Y-106350000D02*
X143730000Y-91050000D01*
X143730000Y-108950000D02*
X143730000Y-107620000D01*
X142400000Y-108950000D02*
X143730000Y-108950000D01*
%TD*%
M02*
