%TF.GenerationSoftware,KiCad,Pcbnew,5.1.10-88a1d61d58~90~ubuntu20.04.1*%
%TF.CreationDate,2021-08-01T07:07:47+02:00*%
%TF.ProjectId,chalkie,6368616c-6b69-4652-9e6b-696361645f70,v1.00*%
%TF.SameCoordinates,Original*%
%TF.FileFunction,Legend,Top*%
%TF.FilePolarity,Positive*%
%FSLAX46Y46*%
G04 Gerber Fmt 4.6, Leading zero omitted, Abs format (unit mm)*
G04 Created by KiCad (PCBNEW 5.1.10-88a1d61d58~90~ubuntu20.04.1) date 2021-08-01 07:07:47*
%MOMM*%
%LPD*%
G01*
G04 APERTURE LIST*
%ADD10C,0.300000*%
%ADD11C,0.225000*%
%ADD12C,0.100000*%
%ADD13C,0.127000*%
%ADD14C,0.200000*%
%ADD15C,0.120000*%
%ADD16C,0.150000*%
G04 APERTURE END LIST*
D10*
X138977619Y-108345476D02*
X139691904Y-108345476D01*
X139334761Y-109595476D02*
X139334761Y-108345476D01*
X139989523Y-108345476D02*
X140822857Y-109595476D01*
X140822857Y-108345476D02*
X139989523Y-109595476D01*
X139791666Y-91625476D02*
X139375000Y-91030238D01*
X139077380Y-91625476D02*
X139077380Y-90375476D01*
X139553571Y-90375476D01*
X139672619Y-90435000D01*
X139732142Y-90494523D01*
X139791666Y-90613571D01*
X139791666Y-90792142D01*
X139732142Y-90911190D01*
X139672619Y-90970714D01*
X139553571Y-91030238D01*
X139077380Y-91030238D01*
X140208333Y-90375476D02*
X141041666Y-91625476D01*
X141041666Y-90375476D02*
X140208333Y-91625476D01*
D11*
X126262857Y-95007142D02*
X126262857Y-95650000D01*
X126220000Y-95778571D01*
X126134285Y-95864285D01*
X126005714Y-95907142D01*
X125920000Y-95907142D01*
X127120000Y-95907142D02*
X126691428Y-95907142D01*
X126691428Y-95007142D01*
X127934285Y-95821428D02*
X127891428Y-95864285D01*
X127762857Y-95907142D01*
X127677142Y-95907142D01*
X127548571Y-95864285D01*
X127462857Y-95778571D01*
X127420000Y-95692857D01*
X127377142Y-95521428D01*
X127377142Y-95392857D01*
X127420000Y-95221428D01*
X127462857Y-95135714D01*
X127548571Y-95050000D01*
X127677142Y-95007142D01*
X127762857Y-95007142D01*
X127891428Y-95050000D01*
X127934285Y-95092857D01*
X128577142Y-95007142D02*
X128577142Y-95650000D01*
X128534285Y-95778571D01*
X128448571Y-95864285D01*
X128320000Y-95907142D01*
X128234285Y-95907142D01*
X129434285Y-95907142D02*
X129005714Y-95907142D01*
X129005714Y-95007142D01*
X130248571Y-95821428D02*
X130205714Y-95864285D01*
X130077142Y-95907142D01*
X129991428Y-95907142D01*
X129862857Y-95864285D01*
X129777142Y-95778571D01*
X129734285Y-95692857D01*
X129691428Y-95521428D01*
X129691428Y-95392857D01*
X129734285Y-95221428D01*
X129777142Y-95135714D01*
X129862857Y-95050000D01*
X129991428Y-95007142D01*
X130077142Y-95007142D01*
X130205714Y-95050000D01*
X130248571Y-95092857D01*
X130891428Y-95007142D02*
X130891428Y-95650000D01*
X130848571Y-95778571D01*
X130762857Y-95864285D01*
X130634285Y-95907142D01*
X130548571Y-95907142D01*
X131748571Y-95907142D02*
X131320000Y-95907142D01*
X131320000Y-95007142D01*
X132562857Y-95821428D02*
X132520000Y-95864285D01*
X132391428Y-95907142D01*
X132305714Y-95907142D01*
X132177142Y-95864285D01*
X132091428Y-95778571D01*
X132048571Y-95692857D01*
X132005714Y-95521428D01*
X132005714Y-95392857D01*
X132048571Y-95221428D01*
X132091428Y-95135714D01*
X132177142Y-95050000D01*
X132305714Y-95007142D01*
X132391428Y-95007142D01*
X132520000Y-95050000D01*
X132562857Y-95092857D01*
X133205714Y-95007142D02*
X133205714Y-95650000D01*
X133162857Y-95778571D01*
X133077142Y-95864285D01*
X132948571Y-95907142D01*
X132862857Y-95907142D01*
X134062857Y-95907142D02*
X133634285Y-95907142D01*
X133634285Y-95007142D01*
X134877142Y-95821428D02*
X134834285Y-95864285D01*
X134705714Y-95907142D01*
X134620000Y-95907142D01*
X134491428Y-95864285D01*
X134405714Y-95778571D01*
X134362857Y-95692857D01*
X134320000Y-95521428D01*
X134320000Y-95392857D01*
X134362857Y-95221428D01*
X134405714Y-95135714D01*
X134491428Y-95050000D01*
X134620000Y-95007142D01*
X134705714Y-95007142D01*
X134834285Y-95050000D01*
X134877142Y-95092857D01*
D10*
X158144285Y-105580714D02*
X158072857Y-105652142D01*
X157858571Y-105723571D01*
X157715714Y-105723571D01*
X157501428Y-105652142D01*
X157358571Y-105509285D01*
X157287142Y-105366428D01*
X157215714Y-105080714D01*
X157215714Y-104866428D01*
X157287142Y-104580714D01*
X157358571Y-104437857D01*
X157501428Y-104295000D01*
X157715714Y-104223571D01*
X157858571Y-104223571D01*
X158072857Y-104295000D01*
X158144285Y-104366428D01*
X158787142Y-105723571D02*
X158787142Y-104223571D01*
X159430000Y-105723571D02*
X159430000Y-104937857D01*
X159358571Y-104795000D01*
X159215714Y-104723571D01*
X159001428Y-104723571D01*
X158858571Y-104795000D01*
X158787142Y-104866428D01*
X160787142Y-105723571D02*
X160787142Y-104937857D01*
X160715714Y-104795000D01*
X160572857Y-104723571D01*
X160287142Y-104723571D01*
X160144285Y-104795000D01*
X160787142Y-105652142D02*
X160644285Y-105723571D01*
X160287142Y-105723571D01*
X160144285Y-105652142D01*
X160072857Y-105509285D01*
X160072857Y-105366428D01*
X160144285Y-105223571D01*
X160287142Y-105152142D01*
X160644285Y-105152142D01*
X160787142Y-105080714D01*
X161715714Y-105723571D02*
X161572857Y-105652142D01*
X161501428Y-105509285D01*
X161501428Y-104223571D01*
X162287142Y-105723571D02*
X162287142Y-104223571D01*
X162430000Y-105152142D02*
X162858571Y-105723571D01*
X162858571Y-104723571D02*
X162287142Y-105295000D01*
X163501428Y-105723571D02*
X163501428Y-104723571D01*
X163501428Y-104223571D02*
X163430000Y-104295000D01*
X163501428Y-104366428D01*
X163572857Y-104295000D01*
X163501428Y-104223571D01*
X163501428Y-104366428D01*
X164787142Y-105652142D02*
X164644285Y-105723571D01*
X164358571Y-105723571D01*
X164215714Y-105652142D01*
X164144285Y-105509285D01*
X164144285Y-104937857D01*
X164215714Y-104795000D01*
X164358571Y-104723571D01*
X164644285Y-104723571D01*
X164787142Y-104795000D01*
X164858571Y-104937857D01*
X164858571Y-105080714D01*
X164144285Y-105223571D01*
X166501428Y-104723571D02*
X166858571Y-105723571D01*
X167215714Y-104723571D01*
X168572857Y-105723571D02*
X167715714Y-105723571D01*
X168144285Y-105723571D02*
X168144285Y-104223571D01*
X168001428Y-104437857D01*
X167858571Y-104580714D01*
X167715714Y-104652142D01*
X169215714Y-105580714D02*
X169287142Y-105652142D01*
X169215714Y-105723571D01*
X169144285Y-105652142D01*
X169215714Y-105580714D01*
X169215714Y-105723571D01*
X170215714Y-104223571D02*
X170358571Y-104223571D01*
X170501428Y-104295000D01*
X170572857Y-104366428D01*
X170644285Y-104509285D01*
X170715714Y-104795000D01*
X170715714Y-105152142D01*
X170644285Y-105437857D01*
X170572857Y-105580714D01*
X170501428Y-105652142D01*
X170358571Y-105723571D01*
X170215714Y-105723571D01*
X170072857Y-105652142D01*
X170001428Y-105580714D01*
X169930000Y-105437857D01*
X169858571Y-105152142D01*
X169858571Y-104795000D01*
X169930000Y-104509285D01*
X170001428Y-104366428D01*
X170072857Y-104295000D01*
X170215714Y-104223571D01*
X171644285Y-104223571D02*
X171787142Y-104223571D01*
X171930000Y-104295000D01*
X172001428Y-104366428D01*
X172072857Y-104509285D01*
X172144285Y-104795000D01*
X172144285Y-105152142D01*
X172072857Y-105437857D01*
X172001428Y-105580714D01*
X171930000Y-105652142D01*
X171787142Y-105723571D01*
X171644285Y-105723571D01*
X171501428Y-105652142D01*
X171430000Y-105580714D01*
X171358571Y-105437857D01*
X171287142Y-105152142D01*
X171287142Y-104795000D01*
X171358571Y-104509285D01*
X171430000Y-104366428D01*
X171501428Y-104295000D01*
X171644285Y-104223571D01*
X158180000Y-107273571D02*
X158465714Y-108273571D01*
X158751428Y-107559285D01*
X159037142Y-108273571D01*
X159322857Y-107273571D01*
X159751428Y-107273571D02*
X160037142Y-108273571D01*
X160322857Y-107559285D01*
X160608571Y-108273571D01*
X160894285Y-107273571D01*
X161322857Y-107273571D02*
X161608571Y-108273571D01*
X161894285Y-107559285D01*
X162180000Y-108273571D01*
X162465714Y-107273571D01*
X163037142Y-108130714D02*
X163108571Y-108202142D01*
X163037142Y-108273571D01*
X162965714Y-108202142D01*
X163037142Y-108130714D01*
X163037142Y-108273571D01*
X163680000Y-106916428D02*
X163751428Y-106845000D01*
X163894285Y-106773571D01*
X164251428Y-106773571D01*
X164394285Y-106845000D01*
X164465714Y-106916428D01*
X164537142Y-107059285D01*
X164537142Y-107202142D01*
X164465714Y-107416428D01*
X163608571Y-108273571D01*
X164537142Y-108273571D01*
X165180000Y-107702142D02*
X166322857Y-107702142D01*
X167322857Y-106773571D02*
X167465714Y-106773571D01*
X167608571Y-106845000D01*
X167680000Y-106916428D01*
X167751428Y-107059285D01*
X167822857Y-107345000D01*
X167822857Y-107702142D01*
X167751428Y-107987857D01*
X167680000Y-108130714D01*
X167608571Y-108202142D01*
X167465714Y-108273571D01*
X167322857Y-108273571D01*
X167180000Y-108202142D01*
X167108571Y-108130714D01*
X167037142Y-107987857D01*
X166965714Y-107702142D01*
X166965714Y-107345000D01*
X167037142Y-107059285D01*
X167108571Y-106916428D01*
X167180000Y-106845000D01*
X167322857Y-106773571D01*
X168465714Y-108130714D02*
X168537142Y-108202142D01*
X168465714Y-108273571D01*
X168394285Y-108202142D01*
X168465714Y-108130714D01*
X168465714Y-108273571D01*
X169822857Y-108273571D02*
X169822857Y-106773571D01*
X169822857Y-108202142D02*
X169680000Y-108273571D01*
X169394285Y-108273571D01*
X169251428Y-108202142D01*
X169180000Y-108130714D01*
X169108571Y-107987857D01*
X169108571Y-107559285D01*
X169180000Y-107416428D01*
X169251428Y-107345000D01*
X169394285Y-107273571D01*
X169680000Y-107273571D01*
X169822857Y-107345000D01*
X170537142Y-108273571D02*
X170537142Y-106773571D01*
X170680000Y-107702142D02*
X171108571Y-108273571D01*
X171108571Y-107273571D02*
X170537142Y-107845000D01*
D12*
%TO.C,U2*%
X125100000Y-109900000D02*
X125100000Y-100200000D01*
X125100000Y-100200000D02*
X138600000Y-100200000D01*
X138600000Y-100200000D02*
X138600000Y-109900000D01*
X138600000Y-109900000D02*
X125100000Y-109900000D01*
D13*
%TO.C,U6*%
X148625000Y-101170000D02*
X147375000Y-101170000D01*
X148625000Y-98830000D02*
X147375000Y-98830000D01*
D14*
X150200000Y-100802000D02*
G75*
G03*
X150200000Y-100802000I-100000J0D01*
G01*
D12*
%TO.C,U3*%
X125100000Y-99800000D02*
X125100000Y-90100000D01*
X125100000Y-90100000D02*
X138600000Y-90100000D01*
X138600000Y-90100000D02*
X138600000Y-99800000D01*
X138600000Y-99800000D02*
X125100000Y-99800000D01*
D15*
%TO.C,C1*%
X151179420Y-104260000D02*
X151460580Y-104260000D01*
X151179420Y-103240000D02*
X151460580Y-103240000D01*
%TO.C,C2*%
X139490000Y-106440580D02*
X139490000Y-106159420D01*
X140510000Y-106440580D02*
X140510000Y-106159420D01*
%TO.C,C3*%
X139490000Y-93359420D02*
X139490000Y-93640580D01*
X140510000Y-93359420D02*
X140510000Y-93640580D01*
%TO.C,C4*%
X148140580Y-90830000D02*
X147859420Y-90830000D01*
X148140580Y-91850000D02*
X147859420Y-91850000D01*
%TO.C,C5*%
X148140580Y-109170000D02*
X147859420Y-109170000D01*
X148140580Y-108150000D02*
X147859420Y-108150000D01*
%TO.C,C6*%
X151450580Y-95260000D02*
X151169420Y-95260000D01*
X151450580Y-94240000D02*
X151169420Y-94240000D01*
%TO.C,C7*%
X153685000Y-100261252D02*
X153685000Y-99738748D01*
X155155000Y-100261252D02*
X155155000Y-99738748D01*
%TO.C,C8*%
X160585000Y-100261252D02*
X160585000Y-99738748D01*
X159115000Y-100261252D02*
X159115000Y-99738748D01*
%TO.C,C9*%
X150060000Y-100140580D02*
X150060000Y-99859420D01*
X151080000Y-100140580D02*
X151080000Y-99859420D01*
%TO.C,J3*%
X158170000Y-94060000D02*
X158170000Y-96720000D01*
X170930000Y-94060000D02*
X158170000Y-94060000D01*
X170930000Y-96720000D02*
X158170000Y-96720000D01*
X170930000Y-94060000D02*
X170930000Y-96720000D01*
X172200000Y-94060000D02*
X173530000Y-94060000D01*
X173530000Y-94060000D02*
X173530000Y-95390000D01*
%TO.C,L1*%
X140560000Y-96370378D02*
X140560000Y-97169622D01*
X139440000Y-96370378D02*
X139440000Y-97169622D01*
%TO.C,R1*%
X148347258Y-102797500D02*
X147872742Y-102797500D01*
X148347258Y-103842500D02*
X147872742Y-103842500D01*
%TO.C,R2*%
X151557258Y-104727500D02*
X151082742Y-104727500D01*
X151557258Y-105772500D02*
X151082742Y-105772500D01*
%TO.C,R3*%
X151557258Y-106227500D02*
X151082742Y-106227500D01*
X151557258Y-107272500D02*
X151082742Y-107272500D01*
%TO.C,R4*%
X151557258Y-108772500D02*
X151082742Y-108772500D01*
X151557258Y-107727500D02*
X151082742Y-107727500D01*
%TO.C,R5*%
X151072742Y-95717500D02*
X151547258Y-95717500D01*
X151072742Y-96762500D02*
X151547258Y-96762500D01*
%TO.C,R6*%
X148237258Y-97172500D02*
X147762742Y-97172500D01*
X148237258Y-96127500D02*
X147762742Y-96127500D01*
%TO.C,U1*%
X156380000Y-98420000D02*
X156380000Y-99350000D01*
X156380000Y-101580000D02*
X156380000Y-100650000D01*
X156380000Y-101580000D02*
X158540000Y-101580000D01*
X156380000Y-98420000D02*
X157840000Y-98420000D01*
%TO.C,U4*%
X146390000Y-105100000D02*
X146390000Y-106900000D01*
X149610000Y-106900000D02*
X149610000Y-104450000D01*
%TO.C,U5*%
X146390000Y-93100000D02*
X146390000Y-95550000D01*
X149610000Y-94900000D02*
X149610000Y-93100000D01*
%TO.C,U2*%
D16*
X138928571Y-100219285D02*
X138928571Y-100826428D01*
X138964285Y-100897857D01*
X139000000Y-100933571D01*
X139071428Y-100969285D01*
X139214285Y-100969285D01*
X139285714Y-100933571D01*
X139321428Y-100897857D01*
X139357142Y-100826428D01*
X139357142Y-100219285D01*
X139678571Y-100290714D02*
X139714285Y-100255000D01*
X139785714Y-100219285D01*
X139964285Y-100219285D01*
X140035714Y-100255000D01*
X140071428Y-100290714D01*
X140107142Y-100362142D01*
X140107142Y-100433571D01*
X140071428Y-100540714D01*
X139642857Y-100969285D01*
X140107142Y-100969285D01*
%TO.C,U6*%
X145119285Y-100591428D02*
X145726428Y-100591428D01*
X145797857Y-100555714D01*
X145833571Y-100520000D01*
X145869285Y-100448571D01*
X145869285Y-100305714D01*
X145833571Y-100234285D01*
X145797857Y-100198571D01*
X145726428Y-100162857D01*
X145119285Y-100162857D01*
X145119285Y-99484285D02*
X145119285Y-99627142D01*
X145155000Y-99698571D01*
X145190714Y-99734285D01*
X145297857Y-99805714D01*
X145440714Y-99841428D01*
X145726428Y-99841428D01*
X145797857Y-99805714D01*
X145833571Y-99770000D01*
X145869285Y-99698571D01*
X145869285Y-99555714D01*
X145833571Y-99484285D01*
X145797857Y-99448571D01*
X145726428Y-99412857D01*
X145547857Y-99412857D01*
X145476428Y-99448571D01*
X145440714Y-99484285D01*
X145405000Y-99555714D01*
X145405000Y-99698571D01*
X145440714Y-99770000D01*
X145476428Y-99805714D01*
X145547857Y-99841428D01*
%TO.C,U3*%
X138928571Y-99079285D02*
X138928571Y-99686428D01*
X138964285Y-99757857D01*
X139000000Y-99793571D01*
X139071428Y-99829285D01*
X139214285Y-99829285D01*
X139285714Y-99793571D01*
X139321428Y-99757857D01*
X139357142Y-99686428D01*
X139357142Y-99079285D01*
X139642857Y-99079285D02*
X140107142Y-99079285D01*
X139857142Y-99365000D01*
X139964285Y-99365000D01*
X140035714Y-99400714D01*
X140071428Y-99436428D01*
X140107142Y-99507857D01*
X140107142Y-99686428D01*
X140071428Y-99757857D01*
X140035714Y-99793571D01*
X139964285Y-99829285D01*
X139750000Y-99829285D01*
X139678571Y-99793571D01*
X139642857Y-99757857D01*
%TO.C,C1*%
X153425000Y-104007857D02*
X153389285Y-104043571D01*
X153282142Y-104079285D01*
X153210714Y-104079285D01*
X153103571Y-104043571D01*
X153032142Y-103972142D01*
X152996428Y-103900714D01*
X152960714Y-103757857D01*
X152960714Y-103650714D01*
X152996428Y-103507857D01*
X153032142Y-103436428D01*
X153103571Y-103365000D01*
X153210714Y-103329285D01*
X153282142Y-103329285D01*
X153389285Y-103365000D01*
X153425000Y-103400714D01*
X154139285Y-104079285D02*
X153710714Y-104079285D01*
X153925000Y-104079285D02*
X153925000Y-103329285D01*
X153853571Y-103436428D01*
X153782142Y-103507857D01*
X153710714Y-103543571D01*
%TO.C,C2*%
X141357857Y-106435000D02*
X141393571Y-106470714D01*
X141429285Y-106577857D01*
X141429285Y-106649285D01*
X141393571Y-106756428D01*
X141322142Y-106827857D01*
X141250714Y-106863571D01*
X141107857Y-106899285D01*
X141000714Y-106899285D01*
X140857857Y-106863571D01*
X140786428Y-106827857D01*
X140715000Y-106756428D01*
X140679285Y-106649285D01*
X140679285Y-106577857D01*
X140715000Y-106470714D01*
X140750714Y-106435000D01*
X140750714Y-106149285D02*
X140715000Y-106113571D01*
X140679285Y-106042142D01*
X140679285Y-105863571D01*
X140715000Y-105792142D01*
X140750714Y-105756428D01*
X140822142Y-105720714D01*
X140893571Y-105720714D01*
X141000714Y-105756428D01*
X141429285Y-106185000D01*
X141429285Y-105720714D01*
%TO.C,C3*%
X141357857Y-93635000D02*
X141393571Y-93670714D01*
X141429285Y-93777857D01*
X141429285Y-93849285D01*
X141393571Y-93956428D01*
X141322142Y-94027857D01*
X141250714Y-94063571D01*
X141107857Y-94099285D01*
X141000714Y-94099285D01*
X140857857Y-94063571D01*
X140786428Y-94027857D01*
X140715000Y-93956428D01*
X140679285Y-93849285D01*
X140679285Y-93777857D01*
X140715000Y-93670714D01*
X140750714Y-93635000D01*
X140679285Y-93385000D02*
X140679285Y-92920714D01*
X140965000Y-93170714D01*
X140965000Y-93063571D01*
X141000714Y-92992142D01*
X141036428Y-92956428D01*
X141107857Y-92920714D01*
X141286428Y-92920714D01*
X141357857Y-92956428D01*
X141393571Y-92992142D01*
X141429285Y-93063571D01*
X141429285Y-93277857D01*
X141393571Y-93349285D01*
X141357857Y-93385000D01*
%TO.C,C4*%
X145375000Y-91607857D02*
X145339285Y-91643571D01*
X145232142Y-91679285D01*
X145160714Y-91679285D01*
X145053571Y-91643571D01*
X144982142Y-91572142D01*
X144946428Y-91500714D01*
X144910714Y-91357857D01*
X144910714Y-91250714D01*
X144946428Y-91107857D01*
X144982142Y-91036428D01*
X145053571Y-90965000D01*
X145160714Y-90929285D01*
X145232142Y-90929285D01*
X145339285Y-90965000D01*
X145375000Y-91000714D01*
X146017857Y-91179285D02*
X146017857Y-91679285D01*
X145839285Y-90893571D02*
X145660714Y-91429285D01*
X146125000Y-91429285D01*
%TO.C,C5*%
X145315000Y-108927857D02*
X145279285Y-108963571D01*
X145172142Y-108999285D01*
X145100714Y-108999285D01*
X144993571Y-108963571D01*
X144922142Y-108892142D01*
X144886428Y-108820714D01*
X144850714Y-108677857D01*
X144850714Y-108570714D01*
X144886428Y-108427857D01*
X144922142Y-108356428D01*
X144993571Y-108285000D01*
X145100714Y-108249285D01*
X145172142Y-108249285D01*
X145279285Y-108285000D01*
X145315000Y-108320714D01*
X145993571Y-108249285D02*
X145636428Y-108249285D01*
X145600714Y-108606428D01*
X145636428Y-108570714D01*
X145707857Y-108535000D01*
X145886428Y-108535000D01*
X145957857Y-108570714D01*
X145993571Y-108606428D01*
X146029285Y-108677857D01*
X146029285Y-108856428D01*
X145993571Y-108927857D01*
X145957857Y-108963571D01*
X145886428Y-108999285D01*
X145707857Y-108999285D01*
X145636428Y-108963571D01*
X145600714Y-108927857D01*
%TO.C,C6*%
X153385000Y-95017857D02*
X153349285Y-95053571D01*
X153242142Y-95089285D01*
X153170714Y-95089285D01*
X153063571Y-95053571D01*
X152992142Y-94982142D01*
X152956428Y-94910714D01*
X152920714Y-94767857D01*
X152920714Y-94660714D01*
X152956428Y-94517857D01*
X152992142Y-94446428D01*
X153063571Y-94375000D01*
X153170714Y-94339285D01*
X153242142Y-94339285D01*
X153349285Y-94375000D01*
X153385000Y-94410714D01*
X154027857Y-94339285D02*
X153885000Y-94339285D01*
X153813571Y-94375000D01*
X153777857Y-94410714D01*
X153706428Y-94517857D01*
X153670714Y-94660714D01*
X153670714Y-94946428D01*
X153706428Y-95017857D01*
X153742142Y-95053571D01*
X153813571Y-95089285D01*
X153956428Y-95089285D01*
X154027857Y-95053571D01*
X154063571Y-95017857D01*
X154099285Y-94946428D01*
X154099285Y-94767857D01*
X154063571Y-94696428D01*
X154027857Y-94660714D01*
X153956428Y-94625000D01*
X153813571Y-94625000D01*
X153742142Y-94660714D01*
X153706428Y-94696428D01*
X153670714Y-94767857D01*
%TO.C,C7*%
X153287857Y-100135000D02*
X153323571Y-100170714D01*
X153359285Y-100277857D01*
X153359285Y-100349285D01*
X153323571Y-100456428D01*
X153252142Y-100527857D01*
X153180714Y-100563571D01*
X153037857Y-100599285D01*
X152930714Y-100599285D01*
X152787857Y-100563571D01*
X152716428Y-100527857D01*
X152645000Y-100456428D01*
X152609285Y-100349285D01*
X152609285Y-100277857D01*
X152645000Y-100170714D01*
X152680714Y-100135000D01*
X152609285Y-99885000D02*
X152609285Y-99385000D01*
X153359285Y-99706428D01*
%TO.C,C8*%
X161627857Y-100125000D02*
X161663571Y-100160714D01*
X161699285Y-100267857D01*
X161699285Y-100339285D01*
X161663571Y-100446428D01*
X161592142Y-100517857D01*
X161520714Y-100553571D01*
X161377857Y-100589285D01*
X161270714Y-100589285D01*
X161127857Y-100553571D01*
X161056428Y-100517857D01*
X160985000Y-100446428D01*
X160949285Y-100339285D01*
X160949285Y-100267857D01*
X160985000Y-100160714D01*
X161020714Y-100125000D01*
X161270714Y-99696428D02*
X161235000Y-99767857D01*
X161199285Y-99803571D01*
X161127857Y-99839285D01*
X161092142Y-99839285D01*
X161020714Y-99803571D01*
X160985000Y-99767857D01*
X160949285Y-99696428D01*
X160949285Y-99553571D01*
X160985000Y-99482142D01*
X161020714Y-99446428D01*
X161092142Y-99410714D01*
X161127857Y-99410714D01*
X161199285Y-99446428D01*
X161235000Y-99482142D01*
X161270714Y-99553571D01*
X161270714Y-99696428D01*
X161306428Y-99767857D01*
X161342142Y-99803571D01*
X161413571Y-99839285D01*
X161556428Y-99839285D01*
X161627857Y-99803571D01*
X161663571Y-99767857D01*
X161699285Y-99696428D01*
X161699285Y-99553571D01*
X161663571Y-99482142D01*
X161627857Y-99446428D01*
X161556428Y-99410714D01*
X161413571Y-99410714D01*
X161342142Y-99446428D01*
X161306428Y-99482142D01*
X161270714Y-99553571D01*
%TO.C,C9*%
X152077857Y-100135000D02*
X152113571Y-100170714D01*
X152149285Y-100277857D01*
X152149285Y-100349285D01*
X152113571Y-100456428D01*
X152042142Y-100527857D01*
X151970714Y-100563571D01*
X151827857Y-100599285D01*
X151720714Y-100599285D01*
X151577857Y-100563571D01*
X151506428Y-100527857D01*
X151435000Y-100456428D01*
X151399285Y-100349285D01*
X151399285Y-100277857D01*
X151435000Y-100170714D01*
X151470714Y-100135000D01*
X152149285Y-99777857D02*
X152149285Y-99635000D01*
X152113571Y-99563571D01*
X152077857Y-99527857D01*
X151970714Y-99456428D01*
X151827857Y-99420714D01*
X151542142Y-99420714D01*
X151470714Y-99456428D01*
X151435000Y-99492142D01*
X151399285Y-99563571D01*
X151399285Y-99706428D01*
X151435000Y-99777857D01*
X151470714Y-99813571D01*
X151542142Y-99849285D01*
X151720714Y-99849285D01*
X151792142Y-99813571D01*
X151827857Y-99777857D01*
X151863571Y-99706428D01*
X151863571Y-99563571D01*
X151827857Y-99492142D01*
X151792142Y-99456428D01*
X151720714Y-99420714D01*
%TO.C,J1*%
X171950000Y-93059285D02*
X171950000Y-93595000D01*
X171914285Y-93702142D01*
X171842857Y-93773571D01*
X171735714Y-93809285D01*
X171664285Y-93809285D01*
X172700000Y-93809285D02*
X172271428Y-93809285D01*
X172485714Y-93809285D02*
X172485714Y-93059285D01*
X172414285Y-93166428D01*
X172342857Y-93237857D01*
X172271428Y-93273571D01*
%TO.C,J2*%
X143799285Y-100250000D02*
X144335000Y-100250000D01*
X144442142Y-100285714D01*
X144513571Y-100357142D01*
X144549285Y-100464285D01*
X144549285Y-100535714D01*
X143870714Y-99928571D02*
X143835000Y-99892857D01*
X143799285Y-99821428D01*
X143799285Y-99642857D01*
X143835000Y-99571428D01*
X143870714Y-99535714D01*
X143942142Y-99500000D01*
X144013571Y-99500000D01*
X144120714Y-99535714D01*
X144549285Y-99964285D01*
X144549285Y-99500000D01*
%TO.C,J3*%
X171950000Y-97399285D02*
X171950000Y-97935000D01*
X171914285Y-98042142D01*
X171842857Y-98113571D01*
X171735714Y-98149285D01*
X171664285Y-98149285D01*
X172235714Y-97399285D02*
X172700000Y-97399285D01*
X172450000Y-97685000D01*
X172557142Y-97685000D01*
X172628571Y-97720714D01*
X172664285Y-97756428D01*
X172700000Y-97827857D01*
X172700000Y-98006428D01*
X172664285Y-98077857D01*
X172628571Y-98113571D01*
X172557142Y-98149285D01*
X172342857Y-98149285D01*
X172271428Y-98113571D01*
X172235714Y-98077857D01*
%TO.C,L1*%
X141469285Y-96575000D02*
X141469285Y-96932142D01*
X140719285Y-96932142D01*
X141469285Y-95932142D02*
X141469285Y-96360714D01*
X141469285Y-96146428D02*
X140719285Y-96146428D01*
X140826428Y-96217857D01*
X140897857Y-96289285D01*
X140933571Y-96360714D01*
%TO.C,R1*%
X145455000Y-103639285D02*
X145205000Y-103282142D01*
X145026428Y-103639285D02*
X145026428Y-102889285D01*
X145312142Y-102889285D01*
X145383571Y-102925000D01*
X145419285Y-102960714D01*
X145455000Y-103032142D01*
X145455000Y-103139285D01*
X145419285Y-103210714D01*
X145383571Y-103246428D01*
X145312142Y-103282142D01*
X145026428Y-103282142D01*
X146169285Y-103639285D02*
X145740714Y-103639285D01*
X145955000Y-103639285D02*
X145955000Y-102889285D01*
X145883571Y-102996428D01*
X145812142Y-103067857D01*
X145740714Y-103103571D01*
%TO.C,R2*%
X153375000Y-105589285D02*
X153125000Y-105232142D01*
X152946428Y-105589285D02*
X152946428Y-104839285D01*
X153232142Y-104839285D01*
X153303571Y-104875000D01*
X153339285Y-104910714D01*
X153375000Y-104982142D01*
X153375000Y-105089285D01*
X153339285Y-105160714D01*
X153303571Y-105196428D01*
X153232142Y-105232142D01*
X152946428Y-105232142D01*
X153660714Y-104910714D02*
X153696428Y-104875000D01*
X153767857Y-104839285D01*
X153946428Y-104839285D01*
X154017857Y-104875000D01*
X154053571Y-104910714D01*
X154089285Y-104982142D01*
X154089285Y-105053571D01*
X154053571Y-105160714D01*
X153625000Y-105589285D01*
X154089285Y-105589285D01*
%TO.C,R3*%
X153385000Y-107099285D02*
X153135000Y-106742142D01*
X152956428Y-107099285D02*
X152956428Y-106349285D01*
X153242142Y-106349285D01*
X153313571Y-106385000D01*
X153349285Y-106420714D01*
X153385000Y-106492142D01*
X153385000Y-106599285D01*
X153349285Y-106670714D01*
X153313571Y-106706428D01*
X153242142Y-106742142D01*
X152956428Y-106742142D01*
X153635000Y-106349285D02*
X154099285Y-106349285D01*
X153849285Y-106635000D01*
X153956428Y-106635000D01*
X154027857Y-106670714D01*
X154063571Y-106706428D01*
X154099285Y-106777857D01*
X154099285Y-106956428D01*
X154063571Y-107027857D01*
X154027857Y-107063571D01*
X153956428Y-107099285D01*
X153742142Y-107099285D01*
X153670714Y-107063571D01*
X153635000Y-107027857D01*
%TO.C,R4*%
X153385000Y-108599285D02*
X153135000Y-108242142D01*
X152956428Y-108599285D02*
X152956428Y-107849285D01*
X153242142Y-107849285D01*
X153313571Y-107885000D01*
X153349285Y-107920714D01*
X153385000Y-107992142D01*
X153385000Y-108099285D01*
X153349285Y-108170714D01*
X153313571Y-108206428D01*
X153242142Y-108242142D01*
X152956428Y-108242142D01*
X154027857Y-108099285D02*
X154027857Y-108599285D01*
X153849285Y-107813571D02*
X153670714Y-108349285D01*
X154135000Y-108349285D01*
%TO.C,R5*%
X153355000Y-96579285D02*
X153105000Y-96222142D01*
X152926428Y-96579285D02*
X152926428Y-95829285D01*
X153212142Y-95829285D01*
X153283571Y-95865000D01*
X153319285Y-95900714D01*
X153355000Y-95972142D01*
X153355000Y-96079285D01*
X153319285Y-96150714D01*
X153283571Y-96186428D01*
X153212142Y-96222142D01*
X152926428Y-96222142D01*
X154033571Y-95829285D02*
X153676428Y-95829285D01*
X153640714Y-96186428D01*
X153676428Y-96150714D01*
X153747857Y-96115000D01*
X153926428Y-96115000D01*
X153997857Y-96150714D01*
X154033571Y-96186428D01*
X154069285Y-96257857D01*
X154069285Y-96436428D01*
X154033571Y-96507857D01*
X153997857Y-96543571D01*
X153926428Y-96579285D01*
X153747857Y-96579285D01*
X153676428Y-96543571D01*
X153640714Y-96507857D01*
%TO.C,R6*%
X145405000Y-96999285D02*
X145155000Y-96642142D01*
X144976428Y-96999285D02*
X144976428Y-96249285D01*
X145262142Y-96249285D01*
X145333571Y-96285000D01*
X145369285Y-96320714D01*
X145405000Y-96392142D01*
X145405000Y-96499285D01*
X145369285Y-96570714D01*
X145333571Y-96606428D01*
X145262142Y-96642142D01*
X144976428Y-96642142D01*
X146047857Y-96249285D02*
X145905000Y-96249285D01*
X145833571Y-96285000D01*
X145797857Y-96320714D01*
X145726428Y-96427857D01*
X145690714Y-96570714D01*
X145690714Y-96856428D01*
X145726428Y-96927857D01*
X145762142Y-96963571D01*
X145833571Y-96999285D01*
X145976428Y-96999285D01*
X146047857Y-96963571D01*
X146083571Y-96927857D01*
X146119285Y-96856428D01*
X146119285Y-96677857D01*
X146083571Y-96606428D01*
X146047857Y-96570714D01*
X145976428Y-96535000D01*
X145833571Y-96535000D01*
X145762142Y-96570714D01*
X145726428Y-96606428D01*
X145690714Y-96677857D01*
%TO.C,U1*%
X156568571Y-101909285D02*
X156568571Y-102516428D01*
X156604285Y-102587857D01*
X156640000Y-102623571D01*
X156711428Y-102659285D01*
X156854285Y-102659285D01*
X156925714Y-102623571D01*
X156961428Y-102587857D01*
X156997142Y-102516428D01*
X156997142Y-101909285D01*
X157747142Y-102659285D02*
X157318571Y-102659285D01*
X157532857Y-102659285D02*
X157532857Y-101909285D01*
X157461428Y-102016428D01*
X157390000Y-102087857D01*
X157318571Y-102123571D01*
%TO.C,U4*%
X145339285Y-106561428D02*
X145946428Y-106561428D01*
X146017857Y-106525714D01*
X146053571Y-106490000D01*
X146089285Y-106418571D01*
X146089285Y-106275714D01*
X146053571Y-106204285D01*
X146017857Y-106168571D01*
X145946428Y-106132857D01*
X145339285Y-106132857D01*
X145589285Y-105454285D02*
X146089285Y-105454285D01*
X145303571Y-105632857D02*
X145839285Y-105811428D01*
X145839285Y-105347142D01*
%TO.C,U5*%
X145359285Y-94541428D02*
X145966428Y-94541428D01*
X146037857Y-94505714D01*
X146073571Y-94470000D01*
X146109285Y-94398571D01*
X146109285Y-94255714D01*
X146073571Y-94184285D01*
X146037857Y-94148571D01*
X145966428Y-94112857D01*
X145359285Y-94112857D01*
X145359285Y-93398571D02*
X145359285Y-93755714D01*
X145716428Y-93791428D01*
X145680714Y-93755714D01*
X145645000Y-93684285D01*
X145645000Y-93505714D01*
X145680714Y-93434285D01*
X145716428Y-93398571D01*
X145787857Y-93362857D01*
X145966428Y-93362857D01*
X146037857Y-93398571D01*
X146073571Y-93434285D01*
X146109285Y-93505714D01*
X146109285Y-93684285D01*
X146073571Y-93755714D01*
X146037857Y-93791428D01*
%TD*%
M02*
