%TF.GenerationSoftware,KiCad,Pcbnew,5.1.10-88a1d61d58~90~ubuntu20.04.1*%
%TF.CreationDate,2021-08-01T07:07:47+02:00*%
%TF.ProjectId,chalkie,6368616c-6b69-4652-9e6b-696361645f70,v1.00*%
%TF.SameCoordinates,Original*%
%TF.FileFunction,Soldermask,Top*%
%TF.FilePolarity,Negative*%
%FSLAX46Y46*%
G04 Gerber Fmt 4.6, Leading zero omitted, Abs format (unit mm)*
G04 Created by KiCad (PCBNEW 5.1.10-88a1d61d58~90~ubuntu20.04.1) date 2021-08-01 07:07:47*
%MOMM*%
%LPD*%
G01*
G04 APERTURE LIST*
%ADD10C,1.725000*%
%ADD11C,1.381250*%
%ADD12R,1.190000X0.400000*%
%ADD13C,1.381000*%
%ADD14O,1.700000X1.700000*%
%ADD15R,1.700000X1.700000*%
%ADD16R,0.900000X0.800000*%
%ADD17R,0.650000X1.060000*%
G04 APERTURE END LIST*
D10*
%TO.C,U2*%
X133590000Y-107590000D03*
X133590000Y-102510000D03*
D11*
X136210000Y-107590000D03*
X136210000Y-105050000D03*
X136210000Y-102510000D03*
%TD*%
D12*
%TO.C,U6*%
X148960000Y-100650000D03*
X148960000Y-100000000D03*
X148960000Y-99350000D03*
X147040000Y-99350000D03*
X147040000Y-100000000D03*
X147040000Y-100650000D03*
%TD*%
D10*
%TO.C,U3*%
X133590000Y-97490000D03*
X133590000Y-92410000D03*
D13*
X136210000Y-97490000D03*
X136210000Y-94950000D03*
X136210000Y-92410000D03*
%TD*%
%TO.C,C1*%
G36*
G01*
X151645000Y-104000000D02*
X151645000Y-103500000D01*
G75*
G02*
X151870000Y-103275000I225000J0D01*
G01*
X152320000Y-103275000D01*
G75*
G02*
X152545000Y-103500000I0J-225000D01*
G01*
X152545000Y-104000000D01*
G75*
G02*
X152320000Y-104225000I-225000J0D01*
G01*
X151870000Y-104225000D01*
G75*
G02*
X151645000Y-104000000I0J225000D01*
G01*
G37*
G36*
G01*
X150095000Y-104000000D02*
X150095000Y-103500000D01*
G75*
G02*
X150320000Y-103275000I225000J0D01*
G01*
X150770000Y-103275000D01*
G75*
G02*
X150995000Y-103500000I0J-225000D01*
G01*
X150995000Y-104000000D01*
G75*
G02*
X150770000Y-104225000I-225000J0D01*
G01*
X150320000Y-104225000D01*
G75*
G02*
X150095000Y-104000000I0J225000D01*
G01*
G37*
%TD*%
%TO.C,C2*%
G36*
G01*
X140250000Y-107525000D02*
X139750000Y-107525000D01*
G75*
G02*
X139525000Y-107300000I0J225000D01*
G01*
X139525000Y-106850000D01*
G75*
G02*
X139750000Y-106625000I225000J0D01*
G01*
X140250000Y-106625000D01*
G75*
G02*
X140475000Y-106850000I0J-225000D01*
G01*
X140475000Y-107300000D01*
G75*
G02*
X140250000Y-107525000I-225000J0D01*
G01*
G37*
G36*
G01*
X140250000Y-105975000D02*
X139750000Y-105975000D01*
G75*
G02*
X139525000Y-105750000I0J225000D01*
G01*
X139525000Y-105300000D01*
G75*
G02*
X139750000Y-105075000I225000J0D01*
G01*
X140250000Y-105075000D01*
G75*
G02*
X140475000Y-105300000I0J-225000D01*
G01*
X140475000Y-105750000D01*
G75*
G02*
X140250000Y-105975000I-225000J0D01*
G01*
G37*
%TD*%
%TO.C,C3*%
G36*
G01*
X139750000Y-93825000D02*
X140250000Y-93825000D01*
G75*
G02*
X140475000Y-94050000I0J-225000D01*
G01*
X140475000Y-94500000D01*
G75*
G02*
X140250000Y-94725000I-225000J0D01*
G01*
X139750000Y-94725000D01*
G75*
G02*
X139525000Y-94500000I0J225000D01*
G01*
X139525000Y-94050000D01*
G75*
G02*
X139750000Y-93825000I225000J0D01*
G01*
G37*
G36*
G01*
X139750000Y-92275000D02*
X140250000Y-92275000D01*
G75*
G02*
X140475000Y-92500000I0J-225000D01*
G01*
X140475000Y-92950000D01*
G75*
G02*
X140250000Y-93175000I-225000J0D01*
G01*
X139750000Y-93175000D01*
G75*
G02*
X139525000Y-92950000I0J225000D01*
G01*
X139525000Y-92500000D01*
G75*
G02*
X139750000Y-92275000I225000J0D01*
G01*
G37*
%TD*%
%TO.C,C4*%
G36*
G01*
X147675000Y-91090000D02*
X147675000Y-91590000D01*
G75*
G02*
X147450000Y-91815000I-225000J0D01*
G01*
X147000000Y-91815000D01*
G75*
G02*
X146775000Y-91590000I0J225000D01*
G01*
X146775000Y-91090000D01*
G75*
G02*
X147000000Y-90865000I225000J0D01*
G01*
X147450000Y-90865000D01*
G75*
G02*
X147675000Y-91090000I0J-225000D01*
G01*
G37*
G36*
G01*
X149225000Y-91090000D02*
X149225000Y-91590000D01*
G75*
G02*
X149000000Y-91815000I-225000J0D01*
G01*
X148550000Y-91815000D01*
G75*
G02*
X148325000Y-91590000I0J225000D01*
G01*
X148325000Y-91090000D01*
G75*
G02*
X148550000Y-90865000I225000J0D01*
G01*
X149000000Y-90865000D01*
G75*
G02*
X149225000Y-91090000I0J-225000D01*
G01*
G37*
%TD*%
%TO.C,C5*%
G36*
G01*
X149225000Y-108410000D02*
X149225000Y-108910000D01*
G75*
G02*
X149000000Y-109135000I-225000J0D01*
G01*
X148550000Y-109135000D01*
G75*
G02*
X148325000Y-108910000I0J225000D01*
G01*
X148325000Y-108410000D01*
G75*
G02*
X148550000Y-108185000I225000J0D01*
G01*
X149000000Y-108185000D01*
G75*
G02*
X149225000Y-108410000I0J-225000D01*
G01*
G37*
G36*
G01*
X147675000Y-108410000D02*
X147675000Y-108910000D01*
G75*
G02*
X147450000Y-109135000I-225000J0D01*
G01*
X147000000Y-109135000D01*
G75*
G02*
X146775000Y-108910000I0J225000D01*
G01*
X146775000Y-108410000D01*
G75*
G02*
X147000000Y-108185000I225000J0D01*
G01*
X147450000Y-108185000D01*
G75*
G02*
X147675000Y-108410000I0J-225000D01*
G01*
G37*
%TD*%
%TO.C,C6*%
G36*
G01*
X152535000Y-94500000D02*
X152535000Y-95000000D01*
G75*
G02*
X152310000Y-95225000I-225000J0D01*
G01*
X151860000Y-95225000D01*
G75*
G02*
X151635000Y-95000000I0J225000D01*
G01*
X151635000Y-94500000D01*
G75*
G02*
X151860000Y-94275000I225000J0D01*
G01*
X152310000Y-94275000D01*
G75*
G02*
X152535000Y-94500000I0J-225000D01*
G01*
G37*
G36*
G01*
X150985000Y-94500000D02*
X150985000Y-95000000D01*
G75*
G02*
X150760000Y-95225000I-225000J0D01*
G01*
X150310000Y-95225000D01*
G75*
G02*
X150085000Y-95000000I0J225000D01*
G01*
X150085000Y-94500000D01*
G75*
G02*
X150310000Y-94275000I225000J0D01*
G01*
X150760000Y-94275000D01*
G75*
G02*
X150985000Y-94500000I0J-225000D01*
G01*
G37*
%TD*%
%TO.C,C7*%
G36*
G01*
X154895000Y-101450000D02*
X153945000Y-101450000D01*
G75*
G02*
X153695000Y-101200000I0J250000D01*
G01*
X153695000Y-100700000D01*
G75*
G02*
X153945000Y-100450000I250000J0D01*
G01*
X154895000Y-100450000D01*
G75*
G02*
X155145000Y-100700000I0J-250000D01*
G01*
X155145000Y-101200000D01*
G75*
G02*
X154895000Y-101450000I-250000J0D01*
G01*
G37*
G36*
G01*
X154895000Y-99550000D02*
X153945000Y-99550000D01*
G75*
G02*
X153695000Y-99300000I0J250000D01*
G01*
X153695000Y-98800000D01*
G75*
G02*
X153945000Y-98550000I250000J0D01*
G01*
X154895000Y-98550000D01*
G75*
G02*
X155145000Y-98800000I0J-250000D01*
G01*
X155145000Y-99300000D01*
G75*
G02*
X154895000Y-99550000I-250000J0D01*
G01*
G37*
%TD*%
%TO.C,C8*%
G36*
G01*
X160325000Y-99550000D02*
X159375000Y-99550000D01*
G75*
G02*
X159125000Y-99300000I0J250000D01*
G01*
X159125000Y-98800000D01*
G75*
G02*
X159375000Y-98550000I250000J0D01*
G01*
X160325000Y-98550000D01*
G75*
G02*
X160575000Y-98800000I0J-250000D01*
G01*
X160575000Y-99300000D01*
G75*
G02*
X160325000Y-99550000I-250000J0D01*
G01*
G37*
G36*
G01*
X160325000Y-101450000D02*
X159375000Y-101450000D01*
G75*
G02*
X159125000Y-101200000I0J250000D01*
G01*
X159125000Y-100700000D01*
G75*
G02*
X159375000Y-100450000I250000J0D01*
G01*
X160325000Y-100450000D01*
G75*
G02*
X160575000Y-100700000I0J-250000D01*
G01*
X160575000Y-101200000D01*
G75*
G02*
X160325000Y-101450000I-250000J0D01*
G01*
G37*
%TD*%
%TO.C,C9*%
G36*
G01*
X150820000Y-101225000D02*
X150320000Y-101225000D01*
G75*
G02*
X150095000Y-101000000I0J225000D01*
G01*
X150095000Y-100550000D01*
G75*
G02*
X150320000Y-100325000I225000J0D01*
G01*
X150820000Y-100325000D01*
G75*
G02*
X151045000Y-100550000I0J-225000D01*
G01*
X151045000Y-101000000D01*
G75*
G02*
X150820000Y-101225000I-225000J0D01*
G01*
G37*
G36*
G01*
X150820000Y-99675000D02*
X150320000Y-99675000D01*
G75*
G02*
X150095000Y-99450000I0J225000D01*
G01*
X150095000Y-99000000D01*
G75*
G02*
X150320000Y-98775000I225000J0D01*
G01*
X150820000Y-98775000D01*
G75*
G02*
X151045000Y-99000000I0J-225000D01*
G01*
X151045000Y-99450000D01*
G75*
G02*
X150820000Y-99675000I-225000J0D01*
G01*
G37*
%TD*%
D14*
%TO.C,J1*%
X151880000Y-91800000D03*
X154420000Y-91800000D03*
X156960000Y-91800000D03*
X159500000Y-91800000D03*
X162040000Y-91800000D03*
X164580000Y-91800000D03*
X167120000Y-91800000D03*
X169660000Y-91800000D03*
D15*
X172200000Y-91800000D03*
%TD*%
%TO.C,J2*%
X142400000Y-107620000D03*
D14*
X142400000Y-105080000D03*
X142400000Y-102540000D03*
X142400000Y-100000000D03*
X142400000Y-97460000D03*
X142400000Y-94920000D03*
X142400000Y-92380000D03*
%TD*%
D15*
%TO.C,J3*%
X172200000Y-95390000D03*
D14*
X169660000Y-95390000D03*
X167120000Y-95390000D03*
X164580000Y-95390000D03*
X162040000Y-95390000D03*
X159500000Y-95390000D03*
%TD*%
%TO.C,L1*%
G36*
G01*
X139618750Y-95270000D02*
X140381250Y-95270000D01*
G75*
G02*
X140600000Y-95488750I0J-218750D01*
G01*
X140600000Y-95926250D01*
G75*
G02*
X140381250Y-96145000I-218750J0D01*
G01*
X139618750Y-96145000D01*
G75*
G02*
X139400000Y-95926250I0J218750D01*
G01*
X139400000Y-95488750D01*
G75*
G02*
X139618750Y-95270000I218750J0D01*
G01*
G37*
G36*
G01*
X139618750Y-97395000D02*
X140381250Y-97395000D01*
G75*
G02*
X140600000Y-97613750I0J-218750D01*
G01*
X140600000Y-98051250D01*
G75*
G02*
X140381250Y-98270000I-218750J0D01*
G01*
X139618750Y-98270000D01*
G75*
G02*
X139400000Y-98051250I0J218750D01*
G01*
X139400000Y-97613750D01*
G75*
G02*
X139618750Y-97395000I218750J0D01*
G01*
G37*
%TD*%
%TO.C,R1*%
G36*
G01*
X147685000Y-103045000D02*
X147685000Y-103595000D01*
G75*
G02*
X147485000Y-103795000I-200000J0D01*
G01*
X147085000Y-103795000D01*
G75*
G02*
X146885000Y-103595000I0J200000D01*
G01*
X146885000Y-103045000D01*
G75*
G02*
X147085000Y-102845000I200000J0D01*
G01*
X147485000Y-102845000D01*
G75*
G02*
X147685000Y-103045000I0J-200000D01*
G01*
G37*
G36*
G01*
X149335000Y-103045000D02*
X149335000Y-103595000D01*
G75*
G02*
X149135000Y-103795000I-200000J0D01*
G01*
X148735000Y-103795000D01*
G75*
G02*
X148535000Y-103595000I0J200000D01*
G01*
X148535000Y-103045000D01*
G75*
G02*
X148735000Y-102845000I200000J0D01*
G01*
X149135000Y-102845000D01*
G75*
G02*
X149335000Y-103045000I0J-200000D01*
G01*
G37*
%TD*%
%TO.C,R2*%
G36*
G01*
X150895000Y-104975000D02*
X150895000Y-105525000D01*
G75*
G02*
X150695000Y-105725000I-200000J0D01*
G01*
X150295000Y-105725000D01*
G75*
G02*
X150095000Y-105525000I0J200000D01*
G01*
X150095000Y-104975000D01*
G75*
G02*
X150295000Y-104775000I200000J0D01*
G01*
X150695000Y-104775000D01*
G75*
G02*
X150895000Y-104975000I0J-200000D01*
G01*
G37*
G36*
G01*
X152545000Y-104975000D02*
X152545000Y-105525000D01*
G75*
G02*
X152345000Y-105725000I-200000J0D01*
G01*
X151945000Y-105725000D01*
G75*
G02*
X151745000Y-105525000I0J200000D01*
G01*
X151745000Y-104975000D01*
G75*
G02*
X151945000Y-104775000I200000J0D01*
G01*
X152345000Y-104775000D01*
G75*
G02*
X152545000Y-104975000I0J-200000D01*
G01*
G37*
%TD*%
%TO.C,R3*%
G36*
G01*
X150895000Y-106475000D02*
X150895000Y-107025000D01*
G75*
G02*
X150695000Y-107225000I-200000J0D01*
G01*
X150295000Y-107225000D01*
G75*
G02*
X150095000Y-107025000I0J200000D01*
G01*
X150095000Y-106475000D01*
G75*
G02*
X150295000Y-106275000I200000J0D01*
G01*
X150695000Y-106275000D01*
G75*
G02*
X150895000Y-106475000I0J-200000D01*
G01*
G37*
G36*
G01*
X152545000Y-106475000D02*
X152545000Y-107025000D01*
G75*
G02*
X152345000Y-107225000I-200000J0D01*
G01*
X151945000Y-107225000D01*
G75*
G02*
X151745000Y-107025000I0J200000D01*
G01*
X151745000Y-106475000D01*
G75*
G02*
X151945000Y-106275000I200000J0D01*
G01*
X152345000Y-106275000D01*
G75*
G02*
X152545000Y-106475000I0J-200000D01*
G01*
G37*
%TD*%
%TO.C,R4*%
G36*
G01*
X152545000Y-107975000D02*
X152545000Y-108525000D01*
G75*
G02*
X152345000Y-108725000I-200000J0D01*
G01*
X151945000Y-108725000D01*
G75*
G02*
X151745000Y-108525000I0J200000D01*
G01*
X151745000Y-107975000D01*
G75*
G02*
X151945000Y-107775000I200000J0D01*
G01*
X152345000Y-107775000D01*
G75*
G02*
X152545000Y-107975000I0J-200000D01*
G01*
G37*
G36*
G01*
X150895000Y-107975000D02*
X150895000Y-108525000D01*
G75*
G02*
X150695000Y-108725000I-200000J0D01*
G01*
X150295000Y-108725000D01*
G75*
G02*
X150095000Y-108525000I0J200000D01*
G01*
X150095000Y-107975000D01*
G75*
G02*
X150295000Y-107775000I200000J0D01*
G01*
X150695000Y-107775000D01*
G75*
G02*
X150895000Y-107975000I0J-200000D01*
G01*
G37*
%TD*%
%TO.C,R5*%
G36*
G01*
X150085000Y-96515000D02*
X150085000Y-95965000D01*
G75*
G02*
X150285000Y-95765000I200000J0D01*
G01*
X150685000Y-95765000D01*
G75*
G02*
X150885000Y-95965000I0J-200000D01*
G01*
X150885000Y-96515000D01*
G75*
G02*
X150685000Y-96715000I-200000J0D01*
G01*
X150285000Y-96715000D01*
G75*
G02*
X150085000Y-96515000I0J200000D01*
G01*
G37*
G36*
G01*
X151735000Y-96515000D02*
X151735000Y-95965000D01*
G75*
G02*
X151935000Y-95765000I200000J0D01*
G01*
X152335000Y-95765000D01*
G75*
G02*
X152535000Y-95965000I0J-200000D01*
G01*
X152535000Y-96515000D01*
G75*
G02*
X152335000Y-96715000I-200000J0D01*
G01*
X151935000Y-96715000D01*
G75*
G02*
X151735000Y-96515000I0J200000D01*
G01*
G37*
%TD*%
%TO.C,R6*%
G36*
G01*
X149225000Y-96375000D02*
X149225000Y-96925000D01*
G75*
G02*
X149025000Y-97125000I-200000J0D01*
G01*
X148625000Y-97125000D01*
G75*
G02*
X148425000Y-96925000I0J200000D01*
G01*
X148425000Y-96375000D01*
G75*
G02*
X148625000Y-96175000I200000J0D01*
G01*
X149025000Y-96175000D01*
G75*
G02*
X149225000Y-96375000I0J-200000D01*
G01*
G37*
G36*
G01*
X147575000Y-96375000D02*
X147575000Y-96925000D01*
G75*
G02*
X147375000Y-97125000I-200000J0D01*
G01*
X146975000Y-97125000D01*
G75*
G02*
X146775000Y-96925000I0J200000D01*
G01*
X146775000Y-96375000D01*
G75*
G02*
X146975000Y-96175000I200000J0D01*
G01*
X147375000Y-96175000D01*
G75*
G02*
X147575000Y-96375000I0J-200000D01*
G01*
G37*
%TD*%
D16*
%TO.C,U1*%
X158140000Y-100950000D03*
X158140000Y-99050000D03*
X156140000Y-100000000D03*
%TD*%
D17*
%TO.C,U4*%
X148950000Y-104900000D03*
X148000000Y-104900000D03*
X147050000Y-104900000D03*
X147050000Y-107100000D03*
X148950000Y-107100000D03*
X148000000Y-107100000D03*
%TD*%
%TO.C,U5*%
X148000000Y-92900000D03*
X147050000Y-92900000D03*
X148950000Y-92900000D03*
X148950000Y-95100000D03*
X148000000Y-95100000D03*
X147050000Y-95100000D03*
%TD*%
M02*
