%TF.GenerationSoftware,KiCad,Pcbnew,5.1.10-88a1d61d58~90~ubuntu20.04.1*%
%TF.CreationDate,2021-08-01T07:07:46+02:00*%
%TF.ProjectId,chalkie,6368616c-6b69-4652-9e6b-696361645f70,v1.00*%
%TF.SameCoordinates,Original*%
%TF.FileFunction,Copper,L3,Inr*%
%TF.FilePolarity,Positive*%
%FSLAX46Y46*%
G04 Gerber Fmt 4.6, Leading zero omitted, Abs format (unit mm)*
G04 Created by KiCad (PCBNEW 5.1.10-88a1d61d58~90~ubuntu20.04.1) date 2021-08-01 07:07:46*
%MOMM*%
%LPD*%
G01*
G04 APERTURE LIST*
%TA.AperFunction,ComponentPad*%
%ADD10C,1.725000*%
%TD*%
%TA.AperFunction,ComponentPad*%
%ADD11C,1.381250*%
%TD*%
%TA.AperFunction,ComponentPad*%
%ADD12C,1.381000*%
%TD*%
%TA.AperFunction,ComponentPad*%
%ADD13O,1.700000X1.700000*%
%TD*%
%TA.AperFunction,ComponentPad*%
%ADD14R,1.700000X1.700000*%
%TD*%
%TA.AperFunction,ViaPad*%
%ADD15C,0.800000*%
%TD*%
%TA.AperFunction,Conductor*%
%ADD16C,0.250000*%
%TD*%
%TA.AperFunction,Conductor*%
%ADD17C,0.254000*%
%TD*%
%TA.AperFunction,Conductor*%
%ADD18C,0.100000*%
%TD*%
G04 APERTURE END LIST*
D10*
%TO.N,N/C*%
%TO.C,U2*%
X133590000Y-107590000D03*
X133590000Y-102510000D03*
D11*
%TO.N,GND*%
X136210000Y-107590000D03*
%TO.N,+3V3*%
X136210000Y-105050000D03*
%TO.N,Net-(U2-Pad1)*%
X136210000Y-102510000D03*
%TD*%
D10*
%TO.N,N/C*%
%TO.C,U3*%
X133590000Y-97490000D03*
X133590000Y-92410000D03*
D12*
%TO.N,Net-(U3-Pad3)*%
X136210000Y-97490000D03*
%TO.N,GND*%
X136210000Y-94950000D03*
%TO.N,Net-(C3-Pad2)*%
X136210000Y-92410000D03*
%TD*%
D13*
%TO.N,N/C*%
%TO.C,J1*%
X151880000Y-91800000D03*
%TO.N,+5V*%
X154420000Y-91800000D03*
%TO.N,rxtx_en*%
X156960000Y-91800000D03*
%TO.N,uart_tx*%
X159500000Y-91800000D03*
%TO.N,uart_rx*%
X162040000Y-91800000D03*
%TO.N,GND*%
X164580000Y-91800000D03*
%TO.N,swclk*%
X167120000Y-91800000D03*
%TO.N,swdio*%
X169660000Y-91800000D03*
D14*
%TO.N,GND*%
X172200000Y-91800000D03*
%TD*%
%TO.N,N/C*%
%TO.C,J2*%
X142400000Y-107620000D03*
D13*
%TO.N,hdmi_utility*%
X142400000Y-105080000D03*
%TO.N,N/C*%
X142400000Y-102540000D03*
%TO.N,GND*%
X142400000Y-100000000D03*
%TO.N,N/C*%
X142400000Y-97460000D03*
X142400000Y-94920000D03*
X142400000Y-92380000D03*
%TD*%
D14*
%TO.N,GND*%
%TO.C,J3*%
X172200000Y-95390000D03*
D13*
%TO.N,swdio*%
X169660000Y-95390000D03*
%TO.N,swclk*%
X167120000Y-95390000D03*
%TO.N,GND*%
X164580000Y-95390000D03*
%TO.N,uart_rx*%
X162040000Y-95390000D03*
%TO.N,uart_tx*%
X159500000Y-95390000D03*
%TD*%
D15*
%TO.N,GND*%
X143980000Y-93680000D03*
X145850000Y-100325000D03*
X146430000Y-103320000D03*
X150570000Y-101700000D03*
X159850000Y-101950000D03*
X149700000Y-91340000D03*
X140000000Y-91800000D03*
X146310000Y-96650000D03*
X140000000Y-108030000D03*
X149660000Y-108310000D03*
X158140000Y-101820000D03*
X154420000Y-101940000D03*
X174000000Y-100000000D03*
X173500000Y-108500000D03*
X174000000Y-102000000D03*
X174000000Y-104000000D03*
X174000000Y-106000000D03*
X174000000Y-98000000D03*
X171000000Y-109000000D03*
X169000000Y-109000000D03*
X167000000Y-109000000D03*
X165000000Y-109000000D03*
X163000000Y-109000000D03*
X161000000Y-109000000D03*
X159000000Y-109000000D03*
X157000000Y-109000000D03*
X155000000Y-109000000D03*
X153000000Y-109000000D03*
X155500000Y-96000000D03*
X126000000Y-91000000D03*
X128000000Y-91000000D03*
X130000000Y-91000000D03*
X132000000Y-91000000D03*
X135000000Y-91000000D03*
X138000000Y-91000000D03*
X138000000Y-109000000D03*
X135000000Y-109000000D03*
X132000000Y-109000000D03*
X130000000Y-109000000D03*
X128000000Y-109000000D03*
X126000000Y-109000000D03*
X126000000Y-100000000D03*
X126000000Y-97500000D03*
X126000000Y-94000000D03*
X126000000Y-102500000D03*
X126000000Y-106000000D03*
X135000000Y-100000000D03*
X138000000Y-100000000D03*
X132000000Y-100000000D03*
X130000000Y-100000000D03*
X128000000Y-100000000D03*
X171500000Y-102000000D03*
X168500000Y-102000000D03*
X165500000Y-102000000D03*
X162500000Y-102000000D03*
X143960000Y-98740000D03*
X143990000Y-96150000D03*
X143990000Y-101260000D03*
X144010000Y-103810000D03*
X144500000Y-106340000D03*
%TO.N,+3V3*%
X159850000Y-98050000D03*
X150570000Y-98300000D03*
X146300000Y-91340000D03*
X140000000Y-98800000D03*
X140000000Y-104580000D03*
X146300000Y-108660000D03*
X158140000Y-98120000D03*
%TO.N,rxtx_en*%
X147040000Y-101350000D03*
X149940000Y-102690000D03*
%TD*%
D16*
%TO.N,rxtx_en*%
X148380000Y-102690000D02*
X147040000Y-101350000D01*
X149940000Y-102690000D02*
X148380000Y-102690000D01*
%TD*%
D17*
%TO.N,+3V3*%
X148896063Y-90680226D02*
X148782795Y-90849744D01*
X148704774Y-91038102D01*
X148665000Y-91238061D01*
X148665000Y-91441939D01*
X148704774Y-91641898D01*
X148782795Y-91830256D01*
X148896063Y-91999774D01*
X149040226Y-92143937D01*
X149209744Y-92257205D01*
X149398102Y-92335226D01*
X149598061Y-92375000D01*
X149801939Y-92375000D01*
X150001898Y-92335226D01*
X150190256Y-92257205D01*
X150359774Y-92143937D01*
X150421953Y-92081758D01*
X150452068Y-92233158D01*
X150564010Y-92503411D01*
X150726525Y-92746632D01*
X150933368Y-92953475D01*
X151176589Y-93115990D01*
X151446842Y-93227932D01*
X151733740Y-93285000D01*
X152026260Y-93285000D01*
X152313158Y-93227932D01*
X152583411Y-93115990D01*
X152826632Y-92953475D01*
X153033475Y-92746632D01*
X153150000Y-92572240D01*
X153266525Y-92746632D01*
X153473368Y-92953475D01*
X153716589Y-93115990D01*
X153986842Y-93227932D01*
X154273740Y-93285000D01*
X154566260Y-93285000D01*
X154853158Y-93227932D01*
X155123411Y-93115990D01*
X155366632Y-92953475D01*
X155573475Y-92746632D01*
X155690000Y-92572240D01*
X155806525Y-92746632D01*
X156013368Y-92953475D01*
X156256589Y-93115990D01*
X156526842Y-93227932D01*
X156813740Y-93285000D01*
X157106260Y-93285000D01*
X157393158Y-93227932D01*
X157663411Y-93115990D01*
X157906632Y-92953475D01*
X158113475Y-92746632D01*
X158230000Y-92572240D01*
X158346525Y-92746632D01*
X158553368Y-92953475D01*
X158796589Y-93115990D01*
X159066842Y-93227932D01*
X159353740Y-93285000D01*
X159646260Y-93285000D01*
X159933158Y-93227932D01*
X160203411Y-93115990D01*
X160446632Y-92953475D01*
X160653475Y-92746632D01*
X160770000Y-92572240D01*
X160886525Y-92746632D01*
X161093368Y-92953475D01*
X161336589Y-93115990D01*
X161606842Y-93227932D01*
X161893740Y-93285000D01*
X162186260Y-93285000D01*
X162473158Y-93227932D01*
X162743411Y-93115990D01*
X162986632Y-92953475D01*
X163193475Y-92746632D01*
X163310000Y-92572240D01*
X163426525Y-92746632D01*
X163633368Y-92953475D01*
X163876589Y-93115990D01*
X164146842Y-93227932D01*
X164433740Y-93285000D01*
X164726260Y-93285000D01*
X165013158Y-93227932D01*
X165283411Y-93115990D01*
X165526632Y-92953475D01*
X165733475Y-92746632D01*
X165850000Y-92572240D01*
X165966525Y-92746632D01*
X166173368Y-92953475D01*
X166416589Y-93115990D01*
X166686842Y-93227932D01*
X166973740Y-93285000D01*
X167266260Y-93285000D01*
X167553158Y-93227932D01*
X167823411Y-93115990D01*
X168066632Y-92953475D01*
X168273475Y-92746632D01*
X168390000Y-92572240D01*
X168506525Y-92746632D01*
X168713368Y-92953475D01*
X168956589Y-93115990D01*
X169226842Y-93227932D01*
X169513740Y-93285000D01*
X169806260Y-93285000D01*
X170093158Y-93227932D01*
X170363411Y-93115990D01*
X170606632Y-92953475D01*
X170738487Y-92821620D01*
X170760498Y-92894180D01*
X170819463Y-93004494D01*
X170898815Y-93101185D01*
X170995506Y-93180537D01*
X171105820Y-93239502D01*
X171225518Y-93275812D01*
X171350000Y-93288072D01*
X173050000Y-93288072D01*
X173174482Y-93275812D01*
X173294180Y-93239502D01*
X173404494Y-93180537D01*
X173501185Y-93101185D01*
X173580537Y-93004494D01*
X173639502Y-92894180D01*
X173675812Y-92774482D01*
X173688072Y-92650000D01*
X173688072Y-91110001D01*
X173794299Y-91196637D01*
X174022806Y-91472856D01*
X174193310Y-91788197D01*
X174299319Y-92130656D01*
X174340000Y-92517712D01*
X174340000Y-97020557D01*
X174301898Y-97004774D01*
X174101939Y-96965000D01*
X173898061Y-96965000D01*
X173698102Y-97004774D01*
X173509744Y-97082795D01*
X173340226Y-97196063D01*
X173196063Y-97340226D01*
X173082795Y-97509744D01*
X173004774Y-97698102D01*
X172965000Y-97898061D01*
X172965000Y-98101939D01*
X173004774Y-98301898D01*
X173082795Y-98490256D01*
X173196063Y-98659774D01*
X173340226Y-98803937D01*
X173509744Y-98917205D01*
X173698102Y-98995226D01*
X173722103Y-99000000D01*
X173698102Y-99004774D01*
X173509744Y-99082795D01*
X173340226Y-99196063D01*
X173196063Y-99340226D01*
X173082795Y-99509744D01*
X173004774Y-99698102D01*
X172965000Y-99898061D01*
X172965000Y-100101939D01*
X173004774Y-100301898D01*
X173082795Y-100490256D01*
X173196063Y-100659774D01*
X173340226Y-100803937D01*
X173509744Y-100917205D01*
X173698102Y-100995226D01*
X173722103Y-101000000D01*
X173698102Y-101004774D01*
X173509744Y-101082795D01*
X173340226Y-101196063D01*
X173196063Y-101340226D01*
X173082795Y-101509744D01*
X173004774Y-101698102D01*
X172965000Y-101898061D01*
X172965000Y-102101939D01*
X173004774Y-102301898D01*
X173082795Y-102490256D01*
X173196063Y-102659774D01*
X173340226Y-102803937D01*
X173509744Y-102917205D01*
X173698102Y-102995226D01*
X173722103Y-103000000D01*
X173698102Y-103004774D01*
X173509744Y-103082795D01*
X173340226Y-103196063D01*
X173196063Y-103340226D01*
X173082795Y-103509744D01*
X173004774Y-103698102D01*
X172965000Y-103898061D01*
X172965000Y-104101939D01*
X173004774Y-104301898D01*
X173082795Y-104490256D01*
X173196063Y-104659774D01*
X173340226Y-104803937D01*
X173509744Y-104917205D01*
X173698102Y-104995226D01*
X173722103Y-105000000D01*
X173698102Y-105004774D01*
X173509744Y-105082795D01*
X173340226Y-105196063D01*
X173196063Y-105340226D01*
X173082795Y-105509744D01*
X173004774Y-105698102D01*
X172965000Y-105898061D01*
X172965000Y-106101939D01*
X173004774Y-106301898D01*
X173082795Y-106490256D01*
X173196063Y-106659774D01*
X173340226Y-106803937D01*
X173509744Y-106917205D01*
X173698102Y-106995226D01*
X173898061Y-107035000D01*
X174101939Y-107035000D01*
X174301898Y-106995226D01*
X174340001Y-106979443D01*
X174340001Y-107467711D01*
X174303517Y-107839806D01*
X174159774Y-107696063D01*
X173990256Y-107582795D01*
X173801898Y-107504774D01*
X173601939Y-107465000D01*
X173398061Y-107465000D01*
X173198102Y-107504774D01*
X173009744Y-107582795D01*
X172840226Y-107696063D01*
X172696063Y-107840226D01*
X172582795Y-108009744D01*
X172504774Y-108198102D01*
X172465000Y-108398061D01*
X172465000Y-108601939D01*
X172504774Y-108801898D01*
X172582795Y-108990256D01*
X172696063Y-109159774D01*
X172838816Y-109302527D01*
X172482288Y-109340000D01*
X171979444Y-109340000D01*
X171995226Y-109301898D01*
X172035000Y-109101939D01*
X172035000Y-108898061D01*
X171995226Y-108698102D01*
X171917205Y-108509744D01*
X171803937Y-108340226D01*
X171659774Y-108196063D01*
X171490256Y-108082795D01*
X171301898Y-108004774D01*
X171101939Y-107965000D01*
X170898061Y-107965000D01*
X170698102Y-108004774D01*
X170509744Y-108082795D01*
X170340226Y-108196063D01*
X170196063Y-108340226D01*
X170082795Y-108509744D01*
X170004774Y-108698102D01*
X170000000Y-108722103D01*
X169995226Y-108698102D01*
X169917205Y-108509744D01*
X169803937Y-108340226D01*
X169659774Y-108196063D01*
X169490256Y-108082795D01*
X169301898Y-108004774D01*
X169101939Y-107965000D01*
X168898061Y-107965000D01*
X168698102Y-108004774D01*
X168509744Y-108082795D01*
X168340226Y-108196063D01*
X168196063Y-108340226D01*
X168082795Y-108509744D01*
X168004774Y-108698102D01*
X168000000Y-108722103D01*
X167995226Y-108698102D01*
X167917205Y-108509744D01*
X167803937Y-108340226D01*
X167659774Y-108196063D01*
X167490256Y-108082795D01*
X167301898Y-108004774D01*
X167101939Y-107965000D01*
X166898061Y-107965000D01*
X166698102Y-108004774D01*
X166509744Y-108082795D01*
X166340226Y-108196063D01*
X166196063Y-108340226D01*
X166082795Y-108509744D01*
X166004774Y-108698102D01*
X166000000Y-108722103D01*
X165995226Y-108698102D01*
X165917205Y-108509744D01*
X165803937Y-108340226D01*
X165659774Y-108196063D01*
X165490256Y-108082795D01*
X165301898Y-108004774D01*
X165101939Y-107965000D01*
X164898061Y-107965000D01*
X164698102Y-108004774D01*
X164509744Y-108082795D01*
X164340226Y-108196063D01*
X164196063Y-108340226D01*
X164082795Y-108509744D01*
X164004774Y-108698102D01*
X164000000Y-108722103D01*
X163995226Y-108698102D01*
X163917205Y-108509744D01*
X163803937Y-108340226D01*
X163659774Y-108196063D01*
X163490256Y-108082795D01*
X163301898Y-108004774D01*
X163101939Y-107965000D01*
X162898061Y-107965000D01*
X162698102Y-108004774D01*
X162509744Y-108082795D01*
X162340226Y-108196063D01*
X162196063Y-108340226D01*
X162082795Y-108509744D01*
X162004774Y-108698102D01*
X162000000Y-108722103D01*
X161995226Y-108698102D01*
X161917205Y-108509744D01*
X161803937Y-108340226D01*
X161659774Y-108196063D01*
X161490256Y-108082795D01*
X161301898Y-108004774D01*
X161101939Y-107965000D01*
X160898061Y-107965000D01*
X160698102Y-108004774D01*
X160509744Y-108082795D01*
X160340226Y-108196063D01*
X160196063Y-108340226D01*
X160082795Y-108509744D01*
X160004774Y-108698102D01*
X160000000Y-108722103D01*
X159995226Y-108698102D01*
X159917205Y-108509744D01*
X159803937Y-108340226D01*
X159659774Y-108196063D01*
X159490256Y-108082795D01*
X159301898Y-108004774D01*
X159101939Y-107965000D01*
X158898061Y-107965000D01*
X158698102Y-108004774D01*
X158509744Y-108082795D01*
X158340226Y-108196063D01*
X158196063Y-108340226D01*
X158082795Y-108509744D01*
X158004774Y-108698102D01*
X158000000Y-108722103D01*
X157995226Y-108698102D01*
X157917205Y-108509744D01*
X157803937Y-108340226D01*
X157659774Y-108196063D01*
X157490256Y-108082795D01*
X157301898Y-108004774D01*
X157101939Y-107965000D01*
X156898061Y-107965000D01*
X156698102Y-108004774D01*
X156509744Y-108082795D01*
X156340226Y-108196063D01*
X156196063Y-108340226D01*
X156082795Y-108509744D01*
X156004774Y-108698102D01*
X156000000Y-108722103D01*
X155995226Y-108698102D01*
X155917205Y-108509744D01*
X155803937Y-108340226D01*
X155659774Y-108196063D01*
X155490256Y-108082795D01*
X155301898Y-108004774D01*
X155101939Y-107965000D01*
X154898061Y-107965000D01*
X154698102Y-108004774D01*
X154509744Y-108082795D01*
X154340226Y-108196063D01*
X154196063Y-108340226D01*
X154082795Y-108509744D01*
X154004774Y-108698102D01*
X154000000Y-108722103D01*
X153995226Y-108698102D01*
X153917205Y-108509744D01*
X153803937Y-108340226D01*
X153659774Y-108196063D01*
X153490256Y-108082795D01*
X153301898Y-108004774D01*
X153101939Y-107965000D01*
X152898061Y-107965000D01*
X152698102Y-108004774D01*
X152509744Y-108082795D01*
X152340226Y-108196063D01*
X152196063Y-108340226D01*
X152082795Y-108509744D01*
X152004774Y-108698102D01*
X151965000Y-108898061D01*
X151965000Y-109101939D01*
X152004774Y-109301898D01*
X152020556Y-109340000D01*
X149787076Y-109340000D01*
X149961898Y-109305226D01*
X150150256Y-109227205D01*
X150319774Y-109113937D01*
X150463937Y-108969774D01*
X150577205Y-108800256D01*
X150655226Y-108611898D01*
X150695000Y-108411939D01*
X150695000Y-108208061D01*
X150655226Y-108008102D01*
X150577205Y-107819744D01*
X150463937Y-107650226D01*
X150319774Y-107506063D01*
X150150256Y-107392795D01*
X149961898Y-107314774D01*
X149761939Y-107275000D01*
X149558061Y-107275000D01*
X149358102Y-107314774D01*
X149169744Y-107392795D01*
X149000226Y-107506063D01*
X148856063Y-107650226D01*
X148742795Y-107819744D01*
X148664774Y-108008102D01*
X148625000Y-108208061D01*
X148625000Y-108411939D01*
X148664774Y-108611898D01*
X148742795Y-108800256D01*
X148856063Y-108969774D01*
X149000226Y-109113937D01*
X149169744Y-109227205D01*
X149358102Y-109305226D01*
X149532924Y-109340000D01*
X138979444Y-109340000D01*
X138995226Y-109301898D01*
X139035000Y-109101939D01*
X139035000Y-108898061D01*
X138995226Y-108698102D01*
X138917205Y-108509744D01*
X138803937Y-108340226D01*
X138659774Y-108196063D01*
X138490256Y-108082795D01*
X138301898Y-108004774D01*
X138101939Y-107965000D01*
X137898061Y-107965000D01*
X137698102Y-108004774D01*
X137509744Y-108082795D01*
X137414311Y-108146561D01*
X137484682Y-107976671D01*
X137535625Y-107720563D01*
X137535625Y-107459437D01*
X137484682Y-107203329D01*
X137384754Y-106962081D01*
X137239680Y-106744963D01*
X137055037Y-106560320D01*
X136837919Y-106415246D01*
X136602793Y-106317854D01*
X136788092Y-106250058D01*
X136886641Y-106197382D01*
X136944963Y-105964568D01*
X136210000Y-105229605D01*
X135475037Y-105964568D01*
X135533359Y-106197382D01*
X135770204Y-106307342D01*
X135815828Y-106318425D01*
X135582081Y-106415246D01*
X135364963Y-106560320D01*
X135180320Y-106744963D01*
X135035246Y-106962081D01*
X134993018Y-107064029D01*
X134917067Y-106880668D01*
X134753184Y-106635399D01*
X134544601Y-106426816D01*
X134299332Y-106262933D01*
X134026805Y-106150048D01*
X133737491Y-106092500D01*
X133442509Y-106092500D01*
X133153195Y-106150048D01*
X132880668Y-106262933D01*
X132635399Y-106426816D01*
X132426816Y-106635399D01*
X132262933Y-106880668D01*
X132150048Y-107153195D01*
X132092500Y-107442509D01*
X132092500Y-107737491D01*
X132139230Y-107972418D01*
X132101939Y-107965000D01*
X131898061Y-107965000D01*
X131698102Y-108004774D01*
X131509744Y-108082795D01*
X131340226Y-108196063D01*
X131196063Y-108340226D01*
X131082795Y-108509744D01*
X131004774Y-108698102D01*
X131000000Y-108722103D01*
X130995226Y-108698102D01*
X130917205Y-108509744D01*
X130803937Y-108340226D01*
X130659774Y-108196063D01*
X130490256Y-108082795D01*
X130301898Y-108004774D01*
X130101939Y-107965000D01*
X129898061Y-107965000D01*
X129698102Y-108004774D01*
X129509744Y-108082795D01*
X129340226Y-108196063D01*
X129196063Y-108340226D01*
X129082795Y-108509744D01*
X129004774Y-108698102D01*
X129000000Y-108722103D01*
X128995226Y-108698102D01*
X128917205Y-108509744D01*
X128803937Y-108340226D01*
X128659774Y-108196063D01*
X128490256Y-108082795D01*
X128301898Y-108004774D01*
X128101939Y-107965000D01*
X127898061Y-107965000D01*
X127698102Y-108004774D01*
X127509744Y-108082795D01*
X127340226Y-108196063D01*
X127196063Y-108340226D01*
X127082795Y-108509744D01*
X127004774Y-108698102D01*
X127000000Y-108722103D01*
X126995226Y-108698102D01*
X126917205Y-108509744D01*
X126803937Y-108340226D01*
X126659774Y-108196063D01*
X126490256Y-108082795D01*
X126301898Y-108004774D01*
X126101939Y-107965000D01*
X125898061Y-107965000D01*
X125698102Y-108004774D01*
X125660000Y-108020556D01*
X125660000Y-106979444D01*
X125698102Y-106995226D01*
X125898061Y-107035000D01*
X126101939Y-107035000D01*
X126301898Y-106995226D01*
X126490256Y-106917205D01*
X126659774Y-106803937D01*
X126803937Y-106659774D01*
X126917205Y-106490256D01*
X126995226Y-106301898D01*
X127035000Y-106101939D01*
X127035000Y-105898061D01*
X126995226Y-105698102D01*
X126917205Y-105509744D01*
X126803937Y-105340226D01*
X126659774Y-105196063D01*
X126553189Y-105124845D01*
X134880064Y-105124845D01*
X134920220Y-105382865D01*
X135009942Y-105628092D01*
X135062618Y-105726641D01*
X135295432Y-105784963D01*
X136030395Y-105050000D01*
X136389605Y-105050000D01*
X137124568Y-105784963D01*
X137357382Y-105726641D01*
X137467342Y-105489796D01*
X137528983Y-105236050D01*
X137539936Y-104975155D01*
X137499780Y-104717135D01*
X137410058Y-104471908D01*
X137357382Y-104373359D01*
X137124568Y-104315037D01*
X136389605Y-105050000D01*
X136030395Y-105050000D01*
X135295432Y-104315037D01*
X135062618Y-104373359D01*
X134952658Y-104610204D01*
X134891017Y-104863950D01*
X134880064Y-105124845D01*
X126553189Y-105124845D01*
X126490256Y-105082795D01*
X126301898Y-105004774D01*
X126101939Y-104965000D01*
X125898061Y-104965000D01*
X125698102Y-105004774D01*
X125660000Y-105020556D01*
X125660000Y-103479444D01*
X125698102Y-103495226D01*
X125898061Y-103535000D01*
X126101939Y-103535000D01*
X126301898Y-103495226D01*
X126490256Y-103417205D01*
X126659774Y-103303937D01*
X126803937Y-103159774D01*
X126917205Y-102990256D01*
X126995226Y-102801898D01*
X127035000Y-102601939D01*
X127035000Y-102398061D01*
X127027929Y-102362509D01*
X132092500Y-102362509D01*
X132092500Y-102657491D01*
X132150048Y-102946805D01*
X132262933Y-103219332D01*
X132426816Y-103464601D01*
X132635399Y-103673184D01*
X132880668Y-103837067D01*
X133153195Y-103949952D01*
X133442509Y-104007500D01*
X133737491Y-104007500D01*
X134026805Y-103949952D01*
X134299332Y-103837067D01*
X134544601Y-103673184D01*
X134753184Y-103464601D01*
X134917067Y-103219332D01*
X134993018Y-103035971D01*
X135035246Y-103137919D01*
X135180320Y-103355037D01*
X135364963Y-103539680D01*
X135582081Y-103684754D01*
X135817207Y-103782146D01*
X135631908Y-103849942D01*
X135533359Y-103902618D01*
X135475037Y-104135432D01*
X136210000Y-104870395D01*
X136944963Y-104135432D01*
X136886641Y-103902618D01*
X136649796Y-103792658D01*
X136604172Y-103781575D01*
X136837919Y-103684754D01*
X137055037Y-103539680D01*
X137239680Y-103355037D01*
X137384754Y-103137919D01*
X137484682Y-102896671D01*
X137535625Y-102640563D01*
X137535625Y-102379437D01*
X137484682Y-102123329D01*
X137384754Y-101882081D01*
X137239680Y-101664963D01*
X137055037Y-101480320D01*
X136837919Y-101335246D01*
X136596671Y-101235318D01*
X136340563Y-101184375D01*
X136079437Y-101184375D01*
X135823329Y-101235318D01*
X135582081Y-101335246D01*
X135364963Y-101480320D01*
X135180320Y-101664963D01*
X135035246Y-101882081D01*
X134993018Y-101984029D01*
X134917067Y-101800668D01*
X134753184Y-101555399D01*
X134544601Y-101346816D01*
X134299332Y-101182933D01*
X134026805Y-101070048D01*
X133737491Y-101012500D01*
X133442509Y-101012500D01*
X133153195Y-101070048D01*
X132880668Y-101182933D01*
X132635399Y-101346816D01*
X132426816Y-101555399D01*
X132262933Y-101800668D01*
X132150048Y-102073195D01*
X132092500Y-102362509D01*
X127027929Y-102362509D01*
X126995226Y-102198102D01*
X126917205Y-102009744D01*
X126803937Y-101840226D01*
X126659774Y-101696063D01*
X126490256Y-101582795D01*
X126301898Y-101504774D01*
X126101939Y-101465000D01*
X125898061Y-101465000D01*
X125698102Y-101504774D01*
X125660000Y-101520556D01*
X125660000Y-100979444D01*
X125698102Y-100995226D01*
X125898061Y-101035000D01*
X126101939Y-101035000D01*
X126301898Y-100995226D01*
X126490256Y-100917205D01*
X126659774Y-100803937D01*
X126803937Y-100659774D01*
X126917205Y-100490256D01*
X126995226Y-100301898D01*
X127000000Y-100277897D01*
X127004774Y-100301898D01*
X127082795Y-100490256D01*
X127196063Y-100659774D01*
X127340226Y-100803937D01*
X127509744Y-100917205D01*
X127698102Y-100995226D01*
X127898061Y-101035000D01*
X128101939Y-101035000D01*
X128301898Y-100995226D01*
X128490256Y-100917205D01*
X128659774Y-100803937D01*
X128803937Y-100659774D01*
X128917205Y-100490256D01*
X128995226Y-100301898D01*
X129000000Y-100277897D01*
X129004774Y-100301898D01*
X129082795Y-100490256D01*
X129196063Y-100659774D01*
X129340226Y-100803937D01*
X129509744Y-100917205D01*
X129698102Y-100995226D01*
X129898061Y-101035000D01*
X130101939Y-101035000D01*
X130301898Y-100995226D01*
X130490256Y-100917205D01*
X130659774Y-100803937D01*
X130803937Y-100659774D01*
X130917205Y-100490256D01*
X130995226Y-100301898D01*
X131000000Y-100277897D01*
X131004774Y-100301898D01*
X131082795Y-100490256D01*
X131196063Y-100659774D01*
X131340226Y-100803937D01*
X131509744Y-100917205D01*
X131698102Y-100995226D01*
X131898061Y-101035000D01*
X132101939Y-101035000D01*
X132301898Y-100995226D01*
X132490256Y-100917205D01*
X132659774Y-100803937D01*
X132803937Y-100659774D01*
X132917205Y-100490256D01*
X132995226Y-100301898D01*
X133035000Y-100101939D01*
X133035000Y-99898061D01*
X133965000Y-99898061D01*
X133965000Y-100101939D01*
X134004774Y-100301898D01*
X134082795Y-100490256D01*
X134196063Y-100659774D01*
X134340226Y-100803937D01*
X134509744Y-100917205D01*
X134698102Y-100995226D01*
X134898061Y-101035000D01*
X135101939Y-101035000D01*
X135301898Y-100995226D01*
X135490256Y-100917205D01*
X135659774Y-100803937D01*
X135803937Y-100659774D01*
X135917205Y-100490256D01*
X135995226Y-100301898D01*
X136035000Y-100101939D01*
X136035000Y-99898061D01*
X136965000Y-99898061D01*
X136965000Y-100101939D01*
X137004774Y-100301898D01*
X137082795Y-100490256D01*
X137196063Y-100659774D01*
X137340226Y-100803937D01*
X137509744Y-100917205D01*
X137698102Y-100995226D01*
X137898061Y-101035000D01*
X138101939Y-101035000D01*
X138301898Y-100995226D01*
X138490256Y-100917205D01*
X138659774Y-100803937D01*
X138803937Y-100659774D01*
X138917205Y-100490256D01*
X138995226Y-100301898D01*
X139035000Y-100101939D01*
X139035000Y-99898061D01*
X138995226Y-99698102D01*
X138917205Y-99509744D01*
X138803937Y-99340226D01*
X138659774Y-99196063D01*
X138490256Y-99082795D01*
X138301898Y-99004774D01*
X138101939Y-98965000D01*
X137898061Y-98965000D01*
X137698102Y-99004774D01*
X137509744Y-99082795D01*
X137340226Y-99196063D01*
X137196063Y-99340226D01*
X137082795Y-99509744D01*
X137004774Y-99698102D01*
X136965000Y-99898061D01*
X136035000Y-99898061D01*
X135995226Y-99698102D01*
X135917205Y-99509744D01*
X135803937Y-99340226D01*
X135659774Y-99196063D01*
X135490256Y-99082795D01*
X135301898Y-99004774D01*
X135101939Y-98965000D01*
X134898061Y-98965000D01*
X134698102Y-99004774D01*
X134509744Y-99082795D01*
X134340226Y-99196063D01*
X134196063Y-99340226D01*
X134082795Y-99509744D01*
X134004774Y-99698102D01*
X133965000Y-99898061D01*
X133035000Y-99898061D01*
X132995226Y-99698102D01*
X132917205Y-99509744D01*
X132803937Y-99340226D01*
X132659774Y-99196063D01*
X132490256Y-99082795D01*
X132301898Y-99004774D01*
X132101939Y-98965000D01*
X131898061Y-98965000D01*
X131698102Y-99004774D01*
X131509744Y-99082795D01*
X131340226Y-99196063D01*
X131196063Y-99340226D01*
X131082795Y-99509744D01*
X131004774Y-99698102D01*
X131000000Y-99722103D01*
X130995226Y-99698102D01*
X130917205Y-99509744D01*
X130803937Y-99340226D01*
X130659774Y-99196063D01*
X130490256Y-99082795D01*
X130301898Y-99004774D01*
X130101939Y-98965000D01*
X129898061Y-98965000D01*
X129698102Y-99004774D01*
X129509744Y-99082795D01*
X129340226Y-99196063D01*
X129196063Y-99340226D01*
X129082795Y-99509744D01*
X129004774Y-99698102D01*
X129000000Y-99722103D01*
X128995226Y-99698102D01*
X128917205Y-99509744D01*
X128803937Y-99340226D01*
X128659774Y-99196063D01*
X128490256Y-99082795D01*
X128301898Y-99004774D01*
X128101939Y-98965000D01*
X127898061Y-98965000D01*
X127698102Y-99004774D01*
X127509744Y-99082795D01*
X127340226Y-99196063D01*
X127196063Y-99340226D01*
X127082795Y-99509744D01*
X127004774Y-99698102D01*
X127000000Y-99722103D01*
X126995226Y-99698102D01*
X126917205Y-99509744D01*
X126803937Y-99340226D01*
X126659774Y-99196063D01*
X126490256Y-99082795D01*
X126301898Y-99004774D01*
X126101939Y-98965000D01*
X125898061Y-98965000D01*
X125698102Y-99004774D01*
X125660000Y-99020556D01*
X125660000Y-98479444D01*
X125698102Y-98495226D01*
X125898061Y-98535000D01*
X126101939Y-98535000D01*
X126301898Y-98495226D01*
X126490256Y-98417205D01*
X126659774Y-98303937D01*
X126803937Y-98159774D01*
X126917205Y-97990256D01*
X126995226Y-97801898D01*
X127035000Y-97601939D01*
X127035000Y-97398061D01*
X126995226Y-97198102D01*
X126917205Y-97009744D01*
X126803937Y-96840226D01*
X126659774Y-96696063D01*
X126490256Y-96582795D01*
X126301898Y-96504774D01*
X126101939Y-96465000D01*
X125898061Y-96465000D01*
X125698102Y-96504774D01*
X125660000Y-96520556D01*
X125660000Y-94979444D01*
X125698102Y-94995226D01*
X125898061Y-95035000D01*
X126101939Y-95035000D01*
X126301898Y-94995226D01*
X126490256Y-94917205D01*
X126659774Y-94803937D01*
X126803937Y-94659774D01*
X126917205Y-94490256D01*
X126995226Y-94301898D01*
X127035000Y-94101939D01*
X127035000Y-93898061D01*
X126995226Y-93698102D01*
X126917205Y-93509744D01*
X126803937Y-93340226D01*
X126659774Y-93196063D01*
X126490256Y-93082795D01*
X126301898Y-93004774D01*
X126101939Y-92965000D01*
X125898061Y-92965000D01*
X125698102Y-93004774D01*
X125660000Y-93020556D01*
X125660000Y-91979444D01*
X125698102Y-91995226D01*
X125898061Y-92035000D01*
X126101939Y-92035000D01*
X126301898Y-91995226D01*
X126490256Y-91917205D01*
X126659774Y-91803937D01*
X126803937Y-91659774D01*
X126917205Y-91490256D01*
X126995226Y-91301898D01*
X127000000Y-91277897D01*
X127004774Y-91301898D01*
X127082795Y-91490256D01*
X127196063Y-91659774D01*
X127340226Y-91803937D01*
X127509744Y-91917205D01*
X127698102Y-91995226D01*
X127898061Y-92035000D01*
X128101939Y-92035000D01*
X128301898Y-91995226D01*
X128490256Y-91917205D01*
X128659774Y-91803937D01*
X128803937Y-91659774D01*
X128917205Y-91490256D01*
X128995226Y-91301898D01*
X129000000Y-91277897D01*
X129004774Y-91301898D01*
X129082795Y-91490256D01*
X129196063Y-91659774D01*
X129340226Y-91803937D01*
X129509744Y-91917205D01*
X129698102Y-91995226D01*
X129898061Y-92035000D01*
X130101939Y-92035000D01*
X130301898Y-91995226D01*
X130490256Y-91917205D01*
X130659774Y-91803937D01*
X130803937Y-91659774D01*
X130917205Y-91490256D01*
X130995226Y-91301898D01*
X131000000Y-91277897D01*
X131004774Y-91301898D01*
X131082795Y-91490256D01*
X131196063Y-91659774D01*
X131340226Y-91803937D01*
X131509744Y-91917205D01*
X131698102Y-91995226D01*
X131898061Y-92035000D01*
X132101939Y-92035000D01*
X132139230Y-92027582D01*
X132092500Y-92262509D01*
X132092500Y-92557491D01*
X132150048Y-92846805D01*
X132262933Y-93119332D01*
X132426816Y-93364601D01*
X132635399Y-93573184D01*
X132880668Y-93737067D01*
X133153195Y-93849952D01*
X133442509Y-93907500D01*
X133737491Y-93907500D01*
X134026805Y-93849952D01*
X134299332Y-93737067D01*
X134544601Y-93573184D01*
X134753184Y-93364601D01*
X134917067Y-93119332D01*
X134993086Y-92935808D01*
X135035357Y-93037860D01*
X135180417Y-93254957D01*
X135365043Y-93439583D01*
X135582140Y-93584643D01*
X135812352Y-93680000D01*
X135582140Y-93775357D01*
X135365043Y-93920417D01*
X135180417Y-94105043D01*
X135035357Y-94322140D01*
X134935438Y-94563366D01*
X134884500Y-94819450D01*
X134884500Y-95080550D01*
X134935438Y-95336634D01*
X135035357Y-95577860D01*
X135180417Y-95794957D01*
X135365043Y-95979583D01*
X135582140Y-96124643D01*
X135812352Y-96220000D01*
X135582140Y-96315357D01*
X135365043Y-96460417D01*
X135180417Y-96645043D01*
X135035357Y-96862140D01*
X134993086Y-96964192D01*
X134917067Y-96780668D01*
X134753184Y-96535399D01*
X134544601Y-96326816D01*
X134299332Y-96162933D01*
X134026805Y-96050048D01*
X133737491Y-95992500D01*
X133442509Y-95992500D01*
X133153195Y-96050048D01*
X132880668Y-96162933D01*
X132635399Y-96326816D01*
X132426816Y-96535399D01*
X132262933Y-96780668D01*
X132150048Y-97053195D01*
X132092500Y-97342509D01*
X132092500Y-97637491D01*
X132150048Y-97926805D01*
X132262933Y-98199332D01*
X132426816Y-98444601D01*
X132635399Y-98653184D01*
X132880668Y-98817067D01*
X133153195Y-98929952D01*
X133442509Y-98987500D01*
X133737491Y-98987500D01*
X134026805Y-98929952D01*
X134299332Y-98817067D01*
X134544601Y-98653184D01*
X134753184Y-98444601D01*
X134917067Y-98199332D01*
X134993086Y-98015808D01*
X135035357Y-98117860D01*
X135180417Y-98334957D01*
X135365043Y-98519583D01*
X135582140Y-98664643D01*
X135823366Y-98764562D01*
X136079450Y-98815500D01*
X136340550Y-98815500D01*
X136596634Y-98764562D01*
X136837860Y-98664643D01*
X137054957Y-98519583D01*
X137239583Y-98334957D01*
X137384643Y-98117860D01*
X137484562Y-97876634D01*
X137535500Y-97620550D01*
X137535500Y-97359450D01*
X137484562Y-97103366D01*
X137384643Y-96862140D01*
X137239583Y-96645043D01*
X137054957Y-96460417D01*
X136837860Y-96315357D01*
X136607648Y-96220000D01*
X136837860Y-96124643D01*
X137054957Y-95979583D01*
X137239583Y-95794957D01*
X137384643Y-95577860D01*
X137484562Y-95336634D01*
X137535500Y-95080550D01*
X137535500Y-94819450D01*
X137484562Y-94563366D01*
X137384643Y-94322140D01*
X137239583Y-94105043D01*
X137054957Y-93920417D01*
X136837860Y-93775357D01*
X136607648Y-93680000D01*
X136837860Y-93584643D01*
X137054957Y-93439583D01*
X137239583Y-93254957D01*
X137384643Y-93037860D01*
X137484562Y-92796634D01*
X137535500Y-92540550D01*
X137535500Y-92279450D01*
X137484562Y-92023366D01*
X137414124Y-91853314D01*
X137509744Y-91917205D01*
X137698102Y-91995226D01*
X137898061Y-92035000D01*
X138101939Y-92035000D01*
X138301898Y-91995226D01*
X138490256Y-91917205D01*
X138659774Y-91803937D01*
X138765650Y-91698061D01*
X138965000Y-91698061D01*
X138965000Y-91901939D01*
X139004774Y-92101898D01*
X139082795Y-92290256D01*
X139196063Y-92459774D01*
X139340226Y-92603937D01*
X139509744Y-92717205D01*
X139698102Y-92795226D01*
X139898061Y-92835000D01*
X140101939Y-92835000D01*
X140301898Y-92795226D01*
X140490256Y-92717205D01*
X140659774Y-92603937D01*
X140803937Y-92459774D01*
X140915000Y-92293556D01*
X140915000Y-92526260D01*
X140972068Y-92813158D01*
X141084010Y-93083411D01*
X141246525Y-93326632D01*
X141453368Y-93533475D01*
X141627760Y-93650000D01*
X141453368Y-93766525D01*
X141246525Y-93973368D01*
X141084010Y-94216589D01*
X140972068Y-94486842D01*
X140915000Y-94773740D01*
X140915000Y-95066260D01*
X140972068Y-95353158D01*
X141084010Y-95623411D01*
X141246525Y-95866632D01*
X141453368Y-96073475D01*
X141627760Y-96190000D01*
X141453368Y-96306525D01*
X141246525Y-96513368D01*
X141084010Y-96756589D01*
X140972068Y-97026842D01*
X140915000Y-97313740D01*
X140915000Y-97606260D01*
X140972068Y-97893158D01*
X141084010Y-98163411D01*
X141246525Y-98406632D01*
X141453368Y-98613475D01*
X141627760Y-98730000D01*
X141453368Y-98846525D01*
X141246525Y-99053368D01*
X141084010Y-99296589D01*
X140972068Y-99566842D01*
X140915000Y-99853740D01*
X140915000Y-100146260D01*
X140972068Y-100433158D01*
X141084010Y-100703411D01*
X141246525Y-100946632D01*
X141453368Y-101153475D01*
X141627760Y-101270000D01*
X141453368Y-101386525D01*
X141246525Y-101593368D01*
X141084010Y-101836589D01*
X140972068Y-102106842D01*
X140915000Y-102393740D01*
X140915000Y-102686260D01*
X140972068Y-102973158D01*
X141084010Y-103243411D01*
X141246525Y-103486632D01*
X141453368Y-103693475D01*
X141627760Y-103810000D01*
X141453368Y-103926525D01*
X141246525Y-104133368D01*
X141084010Y-104376589D01*
X140972068Y-104646842D01*
X140915000Y-104933740D01*
X140915000Y-105226260D01*
X140972068Y-105513158D01*
X141084010Y-105783411D01*
X141246525Y-106026632D01*
X141378380Y-106158487D01*
X141305820Y-106180498D01*
X141195506Y-106239463D01*
X141098815Y-106318815D01*
X141019463Y-106415506D01*
X140960498Y-106525820D01*
X140924188Y-106645518D01*
X140911928Y-106770000D01*
X140911928Y-107531846D01*
X140803937Y-107370226D01*
X140659774Y-107226063D01*
X140490256Y-107112795D01*
X140301898Y-107034774D01*
X140101939Y-106995000D01*
X139898061Y-106995000D01*
X139698102Y-107034774D01*
X139509744Y-107112795D01*
X139340226Y-107226063D01*
X139196063Y-107370226D01*
X139082795Y-107539744D01*
X139004774Y-107728102D01*
X138965000Y-107928061D01*
X138965000Y-108131939D01*
X139004774Y-108331898D01*
X139082795Y-108520256D01*
X139196063Y-108689774D01*
X139340226Y-108833937D01*
X139509744Y-108947205D01*
X139698102Y-109025226D01*
X139898061Y-109065000D01*
X140101939Y-109065000D01*
X140301898Y-109025226D01*
X140490256Y-108947205D01*
X140659774Y-108833937D01*
X140803937Y-108689774D01*
X140916920Y-108520683D01*
X140924188Y-108594482D01*
X140960498Y-108714180D01*
X141019463Y-108824494D01*
X141098815Y-108921185D01*
X141195506Y-109000537D01*
X141305820Y-109059502D01*
X141425518Y-109095812D01*
X141550000Y-109108072D01*
X143250000Y-109108072D01*
X143374482Y-109095812D01*
X143494180Y-109059502D01*
X143604494Y-109000537D01*
X143701185Y-108921185D01*
X143780537Y-108824494D01*
X143839502Y-108714180D01*
X143875812Y-108594482D01*
X143888072Y-108470000D01*
X143888072Y-107175907D01*
X144009744Y-107257205D01*
X144198102Y-107335226D01*
X144398061Y-107375000D01*
X144601939Y-107375000D01*
X144801898Y-107335226D01*
X144990256Y-107257205D01*
X145159774Y-107143937D01*
X145303937Y-106999774D01*
X145417205Y-106830256D01*
X145495226Y-106641898D01*
X145535000Y-106441939D01*
X145535000Y-106238061D01*
X145495226Y-106038102D01*
X145417205Y-105849744D01*
X145303937Y-105680226D01*
X145159774Y-105536063D01*
X144990256Y-105422795D01*
X144801898Y-105344774D01*
X144601939Y-105305000D01*
X144398061Y-105305000D01*
X144198102Y-105344774D01*
X144009744Y-105422795D01*
X143840226Y-105536063D01*
X143803043Y-105573246D01*
X143827932Y-105513158D01*
X143885000Y-105226260D01*
X143885000Y-104933740D01*
X143865671Y-104836568D01*
X143908061Y-104845000D01*
X144111939Y-104845000D01*
X144311898Y-104805226D01*
X144500256Y-104727205D01*
X144669774Y-104613937D01*
X144813937Y-104469774D01*
X144927205Y-104300256D01*
X145005226Y-104111898D01*
X145045000Y-103911939D01*
X145045000Y-103708061D01*
X145005226Y-103508102D01*
X144927205Y-103319744D01*
X144813937Y-103150226D01*
X144669774Y-103006063D01*
X144500256Y-102892795D01*
X144311898Y-102814774D01*
X144111939Y-102775000D01*
X143908061Y-102775000D01*
X143865671Y-102783432D01*
X143885000Y-102686260D01*
X143885000Y-102393740D01*
X143864424Y-102290298D01*
X143888061Y-102295000D01*
X144091939Y-102295000D01*
X144291898Y-102255226D01*
X144480256Y-102177205D01*
X144649774Y-102063937D01*
X144793937Y-101919774D01*
X144907205Y-101750256D01*
X144985226Y-101561898D01*
X145025000Y-101361939D01*
X145025000Y-101158061D01*
X144985226Y-100958102D01*
X144907205Y-100769744D01*
X144793937Y-100600226D01*
X144649774Y-100456063D01*
X144480256Y-100342795D01*
X144291898Y-100264774D01*
X144091939Y-100225000D01*
X143888061Y-100225000D01*
X143868566Y-100228878D01*
X143869723Y-100223061D01*
X144815000Y-100223061D01*
X144815000Y-100426939D01*
X144854774Y-100626898D01*
X144932795Y-100815256D01*
X145046063Y-100984774D01*
X145190226Y-101128937D01*
X145359744Y-101242205D01*
X145548102Y-101320226D01*
X145748061Y-101360000D01*
X145951939Y-101360000D01*
X146005000Y-101349446D01*
X146005000Y-101451939D01*
X146044774Y-101651898D01*
X146122795Y-101840256D01*
X146236063Y-102009774D01*
X146380226Y-102153937D01*
X146549744Y-102267205D01*
X146648843Y-102308253D01*
X146531939Y-102285000D01*
X146328061Y-102285000D01*
X146128102Y-102324774D01*
X145939744Y-102402795D01*
X145770226Y-102516063D01*
X145626063Y-102660226D01*
X145512795Y-102829744D01*
X145434774Y-103018102D01*
X145395000Y-103218061D01*
X145395000Y-103421939D01*
X145434774Y-103621898D01*
X145512795Y-103810256D01*
X145626063Y-103979774D01*
X145770226Y-104123937D01*
X145939744Y-104237205D01*
X146128102Y-104315226D01*
X146328061Y-104355000D01*
X146531939Y-104355000D01*
X146731898Y-104315226D01*
X146920256Y-104237205D01*
X147089774Y-104123937D01*
X147233937Y-103979774D01*
X147347205Y-103810256D01*
X147425226Y-103621898D01*
X147465000Y-103421939D01*
X147465000Y-103218061D01*
X147425226Y-103018102D01*
X147347205Y-102829744D01*
X147233937Y-102660226D01*
X147089774Y-102516063D01*
X146920256Y-102402795D01*
X146821157Y-102361747D01*
X146938061Y-102385000D01*
X147000199Y-102385000D01*
X147816201Y-103201003D01*
X147839999Y-103230001D01*
X147955724Y-103324974D01*
X148087753Y-103395546D01*
X148231014Y-103439003D01*
X148342667Y-103450000D01*
X148342676Y-103450000D01*
X148379999Y-103453676D01*
X148417322Y-103450000D01*
X149236289Y-103450000D01*
X149280226Y-103493937D01*
X149449744Y-103607205D01*
X149638102Y-103685226D01*
X149838061Y-103725000D01*
X150041939Y-103725000D01*
X150241898Y-103685226D01*
X150430256Y-103607205D01*
X150599774Y-103493937D01*
X150743937Y-103349774D01*
X150857205Y-103180256D01*
X150935226Y-102991898D01*
X150975000Y-102791939D01*
X150975000Y-102652519D01*
X151060256Y-102617205D01*
X151229774Y-102503937D01*
X151373937Y-102359774D01*
X151487205Y-102190256D01*
X151565226Y-102001898D01*
X151597814Y-101838061D01*
X153385000Y-101838061D01*
X153385000Y-102041939D01*
X153424774Y-102241898D01*
X153502795Y-102430256D01*
X153616063Y-102599774D01*
X153760226Y-102743937D01*
X153929744Y-102857205D01*
X154118102Y-102935226D01*
X154318061Y-102975000D01*
X154521939Y-102975000D01*
X154721898Y-102935226D01*
X154910256Y-102857205D01*
X155079774Y-102743937D01*
X155223937Y-102599774D01*
X155337205Y-102430256D01*
X155415226Y-102241898D01*
X155455000Y-102041939D01*
X155455000Y-101838061D01*
X155431131Y-101718061D01*
X157105000Y-101718061D01*
X157105000Y-101921939D01*
X157144774Y-102121898D01*
X157222795Y-102310256D01*
X157336063Y-102479774D01*
X157480226Y-102623937D01*
X157649744Y-102737205D01*
X157838102Y-102815226D01*
X158038061Y-102855000D01*
X158241939Y-102855000D01*
X158441898Y-102815226D01*
X158630256Y-102737205D01*
X158799774Y-102623937D01*
X158943937Y-102479774D01*
X158951569Y-102468353D01*
X159046063Y-102609774D01*
X159190226Y-102753937D01*
X159359744Y-102867205D01*
X159548102Y-102945226D01*
X159748061Y-102985000D01*
X159951939Y-102985000D01*
X160151898Y-102945226D01*
X160340256Y-102867205D01*
X160509774Y-102753937D01*
X160653937Y-102609774D01*
X160767205Y-102440256D01*
X160845226Y-102251898D01*
X160885000Y-102051939D01*
X160885000Y-101898061D01*
X161465000Y-101898061D01*
X161465000Y-102101939D01*
X161504774Y-102301898D01*
X161582795Y-102490256D01*
X161696063Y-102659774D01*
X161840226Y-102803937D01*
X162009744Y-102917205D01*
X162198102Y-102995226D01*
X162398061Y-103035000D01*
X162601939Y-103035000D01*
X162801898Y-102995226D01*
X162990256Y-102917205D01*
X163159774Y-102803937D01*
X163303937Y-102659774D01*
X163417205Y-102490256D01*
X163495226Y-102301898D01*
X163535000Y-102101939D01*
X163535000Y-101898061D01*
X164465000Y-101898061D01*
X164465000Y-102101939D01*
X164504774Y-102301898D01*
X164582795Y-102490256D01*
X164696063Y-102659774D01*
X164840226Y-102803937D01*
X165009744Y-102917205D01*
X165198102Y-102995226D01*
X165398061Y-103035000D01*
X165601939Y-103035000D01*
X165801898Y-102995226D01*
X165990256Y-102917205D01*
X166159774Y-102803937D01*
X166303937Y-102659774D01*
X166417205Y-102490256D01*
X166495226Y-102301898D01*
X166535000Y-102101939D01*
X166535000Y-101898061D01*
X167465000Y-101898061D01*
X167465000Y-102101939D01*
X167504774Y-102301898D01*
X167582795Y-102490256D01*
X167696063Y-102659774D01*
X167840226Y-102803937D01*
X168009744Y-102917205D01*
X168198102Y-102995226D01*
X168398061Y-103035000D01*
X168601939Y-103035000D01*
X168801898Y-102995226D01*
X168990256Y-102917205D01*
X169159774Y-102803937D01*
X169303937Y-102659774D01*
X169417205Y-102490256D01*
X169495226Y-102301898D01*
X169535000Y-102101939D01*
X169535000Y-101898061D01*
X170465000Y-101898061D01*
X170465000Y-102101939D01*
X170504774Y-102301898D01*
X170582795Y-102490256D01*
X170696063Y-102659774D01*
X170840226Y-102803937D01*
X171009744Y-102917205D01*
X171198102Y-102995226D01*
X171398061Y-103035000D01*
X171601939Y-103035000D01*
X171801898Y-102995226D01*
X171990256Y-102917205D01*
X172159774Y-102803937D01*
X172303937Y-102659774D01*
X172417205Y-102490256D01*
X172495226Y-102301898D01*
X172535000Y-102101939D01*
X172535000Y-101898061D01*
X172495226Y-101698102D01*
X172417205Y-101509744D01*
X172303937Y-101340226D01*
X172159774Y-101196063D01*
X171990256Y-101082795D01*
X171801898Y-101004774D01*
X171601939Y-100965000D01*
X171398061Y-100965000D01*
X171198102Y-101004774D01*
X171009744Y-101082795D01*
X170840226Y-101196063D01*
X170696063Y-101340226D01*
X170582795Y-101509744D01*
X170504774Y-101698102D01*
X170465000Y-101898061D01*
X169535000Y-101898061D01*
X169495226Y-101698102D01*
X169417205Y-101509744D01*
X169303937Y-101340226D01*
X169159774Y-101196063D01*
X168990256Y-101082795D01*
X168801898Y-101004774D01*
X168601939Y-100965000D01*
X168398061Y-100965000D01*
X168198102Y-101004774D01*
X168009744Y-101082795D01*
X167840226Y-101196063D01*
X167696063Y-101340226D01*
X167582795Y-101509744D01*
X167504774Y-101698102D01*
X167465000Y-101898061D01*
X166535000Y-101898061D01*
X166495226Y-101698102D01*
X166417205Y-101509744D01*
X166303937Y-101340226D01*
X166159774Y-101196063D01*
X165990256Y-101082795D01*
X165801898Y-101004774D01*
X165601939Y-100965000D01*
X165398061Y-100965000D01*
X165198102Y-101004774D01*
X165009744Y-101082795D01*
X164840226Y-101196063D01*
X164696063Y-101340226D01*
X164582795Y-101509744D01*
X164504774Y-101698102D01*
X164465000Y-101898061D01*
X163535000Y-101898061D01*
X163495226Y-101698102D01*
X163417205Y-101509744D01*
X163303937Y-101340226D01*
X163159774Y-101196063D01*
X162990256Y-101082795D01*
X162801898Y-101004774D01*
X162601939Y-100965000D01*
X162398061Y-100965000D01*
X162198102Y-101004774D01*
X162009744Y-101082795D01*
X161840226Y-101196063D01*
X161696063Y-101340226D01*
X161582795Y-101509744D01*
X161504774Y-101698102D01*
X161465000Y-101898061D01*
X160885000Y-101898061D01*
X160885000Y-101848061D01*
X160845226Y-101648102D01*
X160767205Y-101459744D01*
X160653937Y-101290226D01*
X160509774Y-101146063D01*
X160340256Y-101032795D01*
X160151898Y-100954774D01*
X159951939Y-100915000D01*
X159748061Y-100915000D01*
X159548102Y-100954774D01*
X159359744Y-101032795D01*
X159190226Y-101146063D01*
X159046063Y-101290226D01*
X159038431Y-101301647D01*
X158943937Y-101160226D01*
X158799774Y-101016063D01*
X158630256Y-100902795D01*
X158441898Y-100824774D01*
X158241939Y-100785000D01*
X158038061Y-100785000D01*
X157838102Y-100824774D01*
X157649744Y-100902795D01*
X157480226Y-101016063D01*
X157336063Y-101160226D01*
X157222795Y-101329744D01*
X157144774Y-101518102D01*
X157105000Y-101718061D01*
X155431131Y-101718061D01*
X155415226Y-101638102D01*
X155337205Y-101449744D01*
X155223937Y-101280226D01*
X155079774Y-101136063D01*
X154910256Y-101022795D01*
X154721898Y-100944774D01*
X154521939Y-100905000D01*
X154318061Y-100905000D01*
X154118102Y-100944774D01*
X153929744Y-101022795D01*
X153760226Y-101136063D01*
X153616063Y-101280226D01*
X153502795Y-101449744D01*
X153424774Y-101638102D01*
X153385000Y-101838061D01*
X151597814Y-101838061D01*
X151605000Y-101801939D01*
X151605000Y-101598061D01*
X151565226Y-101398102D01*
X151487205Y-101209744D01*
X151373937Y-101040226D01*
X151229774Y-100896063D01*
X151060256Y-100782795D01*
X150871898Y-100704774D01*
X150671939Y-100665000D01*
X150468061Y-100665000D01*
X150268102Y-100704774D01*
X150079744Y-100782795D01*
X149910226Y-100896063D01*
X149766063Y-101040226D01*
X149652795Y-101209744D01*
X149574774Y-101398102D01*
X149535000Y-101598061D01*
X149535000Y-101737481D01*
X149449744Y-101772795D01*
X149280226Y-101886063D01*
X149236289Y-101930000D01*
X148694802Y-101930000D01*
X148075000Y-101310199D01*
X148075000Y-101248061D01*
X148035226Y-101048102D01*
X147957205Y-100859744D01*
X147843937Y-100690226D01*
X147699774Y-100546063D01*
X147530256Y-100432795D01*
X147341898Y-100354774D01*
X147141939Y-100315000D01*
X146938061Y-100315000D01*
X146885000Y-100325554D01*
X146885000Y-100223061D01*
X146845226Y-100023102D01*
X146767205Y-99834744D01*
X146653937Y-99665226D01*
X146509774Y-99521063D01*
X146340256Y-99407795D01*
X146151898Y-99329774D01*
X145951939Y-99290000D01*
X145748061Y-99290000D01*
X145548102Y-99329774D01*
X145359744Y-99407795D01*
X145190226Y-99521063D01*
X145046063Y-99665226D01*
X144932795Y-99834744D01*
X144854774Y-100023102D01*
X144815000Y-100223061D01*
X143869723Y-100223061D01*
X143885000Y-100146260D01*
X143885000Y-99853740D01*
X143869338Y-99775000D01*
X144061939Y-99775000D01*
X144261898Y-99735226D01*
X144450256Y-99657205D01*
X144619774Y-99543937D01*
X144763937Y-99399774D01*
X144877205Y-99230256D01*
X144955226Y-99041898D01*
X144995000Y-98841939D01*
X144995000Y-98638061D01*
X144955226Y-98438102D01*
X144877205Y-98249744D01*
X144763937Y-98080226D01*
X144619774Y-97936063D01*
X144450256Y-97822795D01*
X144261898Y-97744774D01*
X144061939Y-97705000D01*
X143865359Y-97705000D01*
X143885000Y-97606260D01*
X143885000Y-97313740D01*
X143858211Y-97179062D01*
X143888061Y-97185000D01*
X144091939Y-97185000D01*
X144291898Y-97145226D01*
X144480256Y-97067205D01*
X144649774Y-96953937D01*
X144793937Y-96809774D01*
X144907205Y-96640256D01*
X144945393Y-96548061D01*
X145275000Y-96548061D01*
X145275000Y-96751939D01*
X145314774Y-96951898D01*
X145392795Y-97140256D01*
X145506063Y-97309774D01*
X145650226Y-97453937D01*
X145819744Y-97567205D01*
X146008102Y-97645226D01*
X146208061Y-97685000D01*
X146411939Y-97685000D01*
X146611898Y-97645226D01*
X146800256Y-97567205D01*
X146969774Y-97453937D01*
X147113937Y-97309774D01*
X147227205Y-97140256D01*
X147305226Y-96951898D01*
X147345000Y-96751939D01*
X147345000Y-96548061D01*
X147305226Y-96348102D01*
X147227205Y-96159744D01*
X147113937Y-95990226D01*
X147021772Y-95898061D01*
X154465000Y-95898061D01*
X154465000Y-96101939D01*
X154504774Y-96301898D01*
X154582795Y-96490256D01*
X154696063Y-96659774D01*
X154840226Y-96803937D01*
X155009744Y-96917205D01*
X155198102Y-96995226D01*
X155398061Y-97035000D01*
X155601939Y-97035000D01*
X155801898Y-96995226D01*
X155990256Y-96917205D01*
X156159774Y-96803937D01*
X156303937Y-96659774D01*
X156417205Y-96490256D01*
X156495226Y-96301898D01*
X156535000Y-96101939D01*
X156535000Y-95898061D01*
X156495226Y-95698102D01*
X156417205Y-95509744D01*
X156303937Y-95340226D01*
X156207451Y-95243740D01*
X158015000Y-95243740D01*
X158015000Y-95536260D01*
X158072068Y-95823158D01*
X158184010Y-96093411D01*
X158346525Y-96336632D01*
X158553368Y-96543475D01*
X158796589Y-96705990D01*
X159066842Y-96817932D01*
X159353740Y-96875000D01*
X159646260Y-96875000D01*
X159933158Y-96817932D01*
X160203411Y-96705990D01*
X160446632Y-96543475D01*
X160653475Y-96336632D01*
X160770000Y-96162240D01*
X160886525Y-96336632D01*
X161093368Y-96543475D01*
X161336589Y-96705990D01*
X161606842Y-96817932D01*
X161893740Y-96875000D01*
X162186260Y-96875000D01*
X162473158Y-96817932D01*
X162743411Y-96705990D01*
X162986632Y-96543475D01*
X163193475Y-96336632D01*
X163310000Y-96162240D01*
X163426525Y-96336632D01*
X163633368Y-96543475D01*
X163876589Y-96705990D01*
X164146842Y-96817932D01*
X164433740Y-96875000D01*
X164726260Y-96875000D01*
X165013158Y-96817932D01*
X165283411Y-96705990D01*
X165526632Y-96543475D01*
X165733475Y-96336632D01*
X165850000Y-96162240D01*
X165966525Y-96336632D01*
X166173368Y-96543475D01*
X166416589Y-96705990D01*
X166686842Y-96817932D01*
X166973740Y-96875000D01*
X167266260Y-96875000D01*
X167553158Y-96817932D01*
X167823411Y-96705990D01*
X168066632Y-96543475D01*
X168273475Y-96336632D01*
X168390000Y-96162240D01*
X168506525Y-96336632D01*
X168713368Y-96543475D01*
X168956589Y-96705990D01*
X169226842Y-96817932D01*
X169513740Y-96875000D01*
X169806260Y-96875000D01*
X170093158Y-96817932D01*
X170363411Y-96705990D01*
X170606632Y-96543475D01*
X170738487Y-96411620D01*
X170760498Y-96484180D01*
X170819463Y-96594494D01*
X170898815Y-96691185D01*
X170995506Y-96770537D01*
X171105820Y-96829502D01*
X171225518Y-96865812D01*
X171350000Y-96878072D01*
X173050000Y-96878072D01*
X173174482Y-96865812D01*
X173294180Y-96829502D01*
X173404494Y-96770537D01*
X173501185Y-96691185D01*
X173580537Y-96594494D01*
X173639502Y-96484180D01*
X173675812Y-96364482D01*
X173688072Y-96240000D01*
X173688072Y-94540000D01*
X173675812Y-94415518D01*
X173639502Y-94295820D01*
X173580537Y-94185506D01*
X173501185Y-94088815D01*
X173404494Y-94009463D01*
X173294180Y-93950498D01*
X173174482Y-93914188D01*
X173050000Y-93901928D01*
X171350000Y-93901928D01*
X171225518Y-93914188D01*
X171105820Y-93950498D01*
X170995506Y-94009463D01*
X170898815Y-94088815D01*
X170819463Y-94185506D01*
X170760498Y-94295820D01*
X170738487Y-94368380D01*
X170606632Y-94236525D01*
X170363411Y-94074010D01*
X170093158Y-93962068D01*
X169806260Y-93905000D01*
X169513740Y-93905000D01*
X169226842Y-93962068D01*
X168956589Y-94074010D01*
X168713368Y-94236525D01*
X168506525Y-94443368D01*
X168390000Y-94617760D01*
X168273475Y-94443368D01*
X168066632Y-94236525D01*
X167823411Y-94074010D01*
X167553158Y-93962068D01*
X167266260Y-93905000D01*
X166973740Y-93905000D01*
X166686842Y-93962068D01*
X166416589Y-94074010D01*
X166173368Y-94236525D01*
X165966525Y-94443368D01*
X165850000Y-94617760D01*
X165733475Y-94443368D01*
X165526632Y-94236525D01*
X165283411Y-94074010D01*
X165013158Y-93962068D01*
X164726260Y-93905000D01*
X164433740Y-93905000D01*
X164146842Y-93962068D01*
X163876589Y-94074010D01*
X163633368Y-94236525D01*
X163426525Y-94443368D01*
X163310000Y-94617760D01*
X163193475Y-94443368D01*
X162986632Y-94236525D01*
X162743411Y-94074010D01*
X162473158Y-93962068D01*
X162186260Y-93905000D01*
X161893740Y-93905000D01*
X161606842Y-93962068D01*
X161336589Y-94074010D01*
X161093368Y-94236525D01*
X160886525Y-94443368D01*
X160770000Y-94617760D01*
X160653475Y-94443368D01*
X160446632Y-94236525D01*
X160203411Y-94074010D01*
X159933158Y-93962068D01*
X159646260Y-93905000D01*
X159353740Y-93905000D01*
X159066842Y-93962068D01*
X158796589Y-94074010D01*
X158553368Y-94236525D01*
X158346525Y-94443368D01*
X158184010Y-94686589D01*
X158072068Y-94956842D01*
X158015000Y-95243740D01*
X156207451Y-95243740D01*
X156159774Y-95196063D01*
X155990256Y-95082795D01*
X155801898Y-95004774D01*
X155601939Y-94965000D01*
X155398061Y-94965000D01*
X155198102Y-95004774D01*
X155009744Y-95082795D01*
X154840226Y-95196063D01*
X154696063Y-95340226D01*
X154582795Y-95509744D01*
X154504774Y-95698102D01*
X154465000Y-95898061D01*
X147021772Y-95898061D01*
X146969774Y-95846063D01*
X146800256Y-95732795D01*
X146611898Y-95654774D01*
X146411939Y-95615000D01*
X146208061Y-95615000D01*
X146008102Y-95654774D01*
X145819744Y-95732795D01*
X145650226Y-95846063D01*
X145506063Y-95990226D01*
X145392795Y-96159744D01*
X145314774Y-96348102D01*
X145275000Y-96548061D01*
X144945393Y-96548061D01*
X144985226Y-96451898D01*
X145025000Y-96251939D01*
X145025000Y-96048061D01*
X144985226Y-95848102D01*
X144907205Y-95659744D01*
X144793937Y-95490226D01*
X144649774Y-95346063D01*
X144480256Y-95232795D01*
X144291898Y-95154774D01*
X144091939Y-95115000D01*
X143888061Y-95115000D01*
X143874779Y-95117642D01*
X143885000Y-95066260D01*
X143885000Y-94773740D01*
X143873120Y-94714017D01*
X143878061Y-94715000D01*
X144081939Y-94715000D01*
X144281898Y-94675226D01*
X144470256Y-94597205D01*
X144639774Y-94483937D01*
X144783937Y-94339774D01*
X144897205Y-94170256D01*
X144975226Y-93981898D01*
X145015000Y-93781939D01*
X145015000Y-93578061D01*
X144975226Y-93378102D01*
X144897205Y-93189744D01*
X144783937Y-93020226D01*
X144639774Y-92876063D01*
X144470256Y-92762795D01*
X144281898Y-92684774D01*
X144081939Y-92645000D01*
X143878061Y-92645000D01*
X143860694Y-92648455D01*
X143885000Y-92526260D01*
X143885000Y-92233740D01*
X143827932Y-91946842D01*
X143715990Y-91676589D01*
X143553475Y-91433368D01*
X143346632Y-91226525D01*
X143103411Y-91064010D01*
X142833158Y-90952068D01*
X142546260Y-90895000D01*
X142253740Y-90895000D01*
X141966842Y-90952068D01*
X141696589Y-91064010D01*
X141453368Y-91226525D01*
X141246525Y-91433368D01*
X141084010Y-91676589D01*
X141035000Y-91794910D01*
X141035000Y-91698061D01*
X140995226Y-91498102D01*
X140917205Y-91309744D01*
X140803937Y-91140226D01*
X140659774Y-90996063D01*
X140490256Y-90882795D01*
X140301898Y-90804774D01*
X140101939Y-90765000D01*
X139898061Y-90765000D01*
X139698102Y-90804774D01*
X139509744Y-90882795D01*
X139340226Y-90996063D01*
X139196063Y-91140226D01*
X139082795Y-91309744D01*
X139004774Y-91498102D01*
X138965000Y-91698061D01*
X138765650Y-91698061D01*
X138803937Y-91659774D01*
X138917205Y-91490256D01*
X138995226Y-91301898D01*
X139035000Y-91101939D01*
X139035000Y-90898061D01*
X138995226Y-90698102D01*
X138979444Y-90660000D01*
X148916289Y-90660000D01*
X148896063Y-90680226D01*
%TA.AperFunction,Conductor*%
D18*
G36*
X148896063Y-90680226D02*
G01*
X148782795Y-90849744D01*
X148704774Y-91038102D01*
X148665000Y-91238061D01*
X148665000Y-91441939D01*
X148704774Y-91641898D01*
X148782795Y-91830256D01*
X148896063Y-91999774D01*
X149040226Y-92143937D01*
X149209744Y-92257205D01*
X149398102Y-92335226D01*
X149598061Y-92375000D01*
X149801939Y-92375000D01*
X150001898Y-92335226D01*
X150190256Y-92257205D01*
X150359774Y-92143937D01*
X150421953Y-92081758D01*
X150452068Y-92233158D01*
X150564010Y-92503411D01*
X150726525Y-92746632D01*
X150933368Y-92953475D01*
X151176589Y-93115990D01*
X151446842Y-93227932D01*
X151733740Y-93285000D01*
X152026260Y-93285000D01*
X152313158Y-93227932D01*
X152583411Y-93115990D01*
X152826632Y-92953475D01*
X153033475Y-92746632D01*
X153150000Y-92572240D01*
X153266525Y-92746632D01*
X153473368Y-92953475D01*
X153716589Y-93115990D01*
X153986842Y-93227932D01*
X154273740Y-93285000D01*
X154566260Y-93285000D01*
X154853158Y-93227932D01*
X155123411Y-93115990D01*
X155366632Y-92953475D01*
X155573475Y-92746632D01*
X155690000Y-92572240D01*
X155806525Y-92746632D01*
X156013368Y-92953475D01*
X156256589Y-93115990D01*
X156526842Y-93227932D01*
X156813740Y-93285000D01*
X157106260Y-93285000D01*
X157393158Y-93227932D01*
X157663411Y-93115990D01*
X157906632Y-92953475D01*
X158113475Y-92746632D01*
X158230000Y-92572240D01*
X158346525Y-92746632D01*
X158553368Y-92953475D01*
X158796589Y-93115990D01*
X159066842Y-93227932D01*
X159353740Y-93285000D01*
X159646260Y-93285000D01*
X159933158Y-93227932D01*
X160203411Y-93115990D01*
X160446632Y-92953475D01*
X160653475Y-92746632D01*
X160770000Y-92572240D01*
X160886525Y-92746632D01*
X161093368Y-92953475D01*
X161336589Y-93115990D01*
X161606842Y-93227932D01*
X161893740Y-93285000D01*
X162186260Y-93285000D01*
X162473158Y-93227932D01*
X162743411Y-93115990D01*
X162986632Y-92953475D01*
X163193475Y-92746632D01*
X163310000Y-92572240D01*
X163426525Y-92746632D01*
X163633368Y-92953475D01*
X163876589Y-93115990D01*
X164146842Y-93227932D01*
X164433740Y-93285000D01*
X164726260Y-93285000D01*
X165013158Y-93227932D01*
X165283411Y-93115990D01*
X165526632Y-92953475D01*
X165733475Y-92746632D01*
X165850000Y-92572240D01*
X165966525Y-92746632D01*
X166173368Y-92953475D01*
X166416589Y-93115990D01*
X166686842Y-93227932D01*
X166973740Y-93285000D01*
X167266260Y-93285000D01*
X167553158Y-93227932D01*
X167823411Y-93115990D01*
X168066632Y-92953475D01*
X168273475Y-92746632D01*
X168390000Y-92572240D01*
X168506525Y-92746632D01*
X168713368Y-92953475D01*
X168956589Y-93115990D01*
X169226842Y-93227932D01*
X169513740Y-93285000D01*
X169806260Y-93285000D01*
X170093158Y-93227932D01*
X170363411Y-93115990D01*
X170606632Y-92953475D01*
X170738487Y-92821620D01*
X170760498Y-92894180D01*
X170819463Y-93004494D01*
X170898815Y-93101185D01*
X170995506Y-93180537D01*
X171105820Y-93239502D01*
X171225518Y-93275812D01*
X171350000Y-93288072D01*
X173050000Y-93288072D01*
X173174482Y-93275812D01*
X173294180Y-93239502D01*
X173404494Y-93180537D01*
X173501185Y-93101185D01*
X173580537Y-93004494D01*
X173639502Y-92894180D01*
X173675812Y-92774482D01*
X173688072Y-92650000D01*
X173688072Y-91110001D01*
X173794299Y-91196637D01*
X174022806Y-91472856D01*
X174193310Y-91788197D01*
X174299319Y-92130656D01*
X174340000Y-92517712D01*
X174340000Y-97020557D01*
X174301898Y-97004774D01*
X174101939Y-96965000D01*
X173898061Y-96965000D01*
X173698102Y-97004774D01*
X173509744Y-97082795D01*
X173340226Y-97196063D01*
X173196063Y-97340226D01*
X173082795Y-97509744D01*
X173004774Y-97698102D01*
X172965000Y-97898061D01*
X172965000Y-98101939D01*
X173004774Y-98301898D01*
X173082795Y-98490256D01*
X173196063Y-98659774D01*
X173340226Y-98803937D01*
X173509744Y-98917205D01*
X173698102Y-98995226D01*
X173722103Y-99000000D01*
X173698102Y-99004774D01*
X173509744Y-99082795D01*
X173340226Y-99196063D01*
X173196063Y-99340226D01*
X173082795Y-99509744D01*
X173004774Y-99698102D01*
X172965000Y-99898061D01*
X172965000Y-100101939D01*
X173004774Y-100301898D01*
X173082795Y-100490256D01*
X173196063Y-100659774D01*
X173340226Y-100803937D01*
X173509744Y-100917205D01*
X173698102Y-100995226D01*
X173722103Y-101000000D01*
X173698102Y-101004774D01*
X173509744Y-101082795D01*
X173340226Y-101196063D01*
X173196063Y-101340226D01*
X173082795Y-101509744D01*
X173004774Y-101698102D01*
X172965000Y-101898061D01*
X172965000Y-102101939D01*
X173004774Y-102301898D01*
X173082795Y-102490256D01*
X173196063Y-102659774D01*
X173340226Y-102803937D01*
X173509744Y-102917205D01*
X173698102Y-102995226D01*
X173722103Y-103000000D01*
X173698102Y-103004774D01*
X173509744Y-103082795D01*
X173340226Y-103196063D01*
X173196063Y-103340226D01*
X173082795Y-103509744D01*
X173004774Y-103698102D01*
X172965000Y-103898061D01*
X172965000Y-104101939D01*
X173004774Y-104301898D01*
X173082795Y-104490256D01*
X173196063Y-104659774D01*
X173340226Y-104803937D01*
X173509744Y-104917205D01*
X173698102Y-104995226D01*
X173722103Y-105000000D01*
X173698102Y-105004774D01*
X173509744Y-105082795D01*
X173340226Y-105196063D01*
X173196063Y-105340226D01*
X173082795Y-105509744D01*
X173004774Y-105698102D01*
X172965000Y-105898061D01*
X172965000Y-106101939D01*
X173004774Y-106301898D01*
X173082795Y-106490256D01*
X173196063Y-106659774D01*
X173340226Y-106803937D01*
X173509744Y-106917205D01*
X173698102Y-106995226D01*
X173898061Y-107035000D01*
X174101939Y-107035000D01*
X174301898Y-106995226D01*
X174340001Y-106979443D01*
X174340001Y-107467711D01*
X174303517Y-107839806D01*
X174159774Y-107696063D01*
X173990256Y-107582795D01*
X173801898Y-107504774D01*
X173601939Y-107465000D01*
X173398061Y-107465000D01*
X173198102Y-107504774D01*
X173009744Y-107582795D01*
X172840226Y-107696063D01*
X172696063Y-107840226D01*
X172582795Y-108009744D01*
X172504774Y-108198102D01*
X172465000Y-108398061D01*
X172465000Y-108601939D01*
X172504774Y-108801898D01*
X172582795Y-108990256D01*
X172696063Y-109159774D01*
X172838816Y-109302527D01*
X172482288Y-109340000D01*
X171979444Y-109340000D01*
X171995226Y-109301898D01*
X172035000Y-109101939D01*
X172035000Y-108898061D01*
X171995226Y-108698102D01*
X171917205Y-108509744D01*
X171803937Y-108340226D01*
X171659774Y-108196063D01*
X171490256Y-108082795D01*
X171301898Y-108004774D01*
X171101939Y-107965000D01*
X170898061Y-107965000D01*
X170698102Y-108004774D01*
X170509744Y-108082795D01*
X170340226Y-108196063D01*
X170196063Y-108340226D01*
X170082795Y-108509744D01*
X170004774Y-108698102D01*
X170000000Y-108722103D01*
X169995226Y-108698102D01*
X169917205Y-108509744D01*
X169803937Y-108340226D01*
X169659774Y-108196063D01*
X169490256Y-108082795D01*
X169301898Y-108004774D01*
X169101939Y-107965000D01*
X168898061Y-107965000D01*
X168698102Y-108004774D01*
X168509744Y-108082795D01*
X168340226Y-108196063D01*
X168196063Y-108340226D01*
X168082795Y-108509744D01*
X168004774Y-108698102D01*
X168000000Y-108722103D01*
X167995226Y-108698102D01*
X167917205Y-108509744D01*
X167803937Y-108340226D01*
X167659774Y-108196063D01*
X167490256Y-108082795D01*
X167301898Y-108004774D01*
X167101939Y-107965000D01*
X166898061Y-107965000D01*
X166698102Y-108004774D01*
X166509744Y-108082795D01*
X166340226Y-108196063D01*
X166196063Y-108340226D01*
X166082795Y-108509744D01*
X166004774Y-108698102D01*
X166000000Y-108722103D01*
X165995226Y-108698102D01*
X165917205Y-108509744D01*
X165803937Y-108340226D01*
X165659774Y-108196063D01*
X165490256Y-108082795D01*
X165301898Y-108004774D01*
X165101939Y-107965000D01*
X164898061Y-107965000D01*
X164698102Y-108004774D01*
X164509744Y-108082795D01*
X164340226Y-108196063D01*
X164196063Y-108340226D01*
X164082795Y-108509744D01*
X164004774Y-108698102D01*
X164000000Y-108722103D01*
X163995226Y-108698102D01*
X163917205Y-108509744D01*
X163803937Y-108340226D01*
X163659774Y-108196063D01*
X163490256Y-108082795D01*
X163301898Y-108004774D01*
X163101939Y-107965000D01*
X162898061Y-107965000D01*
X162698102Y-108004774D01*
X162509744Y-108082795D01*
X162340226Y-108196063D01*
X162196063Y-108340226D01*
X162082795Y-108509744D01*
X162004774Y-108698102D01*
X162000000Y-108722103D01*
X161995226Y-108698102D01*
X161917205Y-108509744D01*
X161803937Y-108340226D01*
X161659774Y-108196063D01*
X161490256Y-108082795D01*
X161301898Y-108004774D01*
X161101939Y-107965000D01*
X160898061Y-107965000D01*
X160698102Y-108004774D01*
X160509744Y-108082795D01*
X160340226Y-108196063D01*
X160196063Y-108340226D01*
X160082795Y-108509744D01*
X160004774Y-108698102D01*
X160000000Y-108722103D01*
X159995226Y-108698102D01*
X159917205Y-108509744D01*
X159803937Y-108340226D01*
X159659774Y-108196063D01*
X159490256Y-108082795D01*
X159301898Y-108004774D01*
X159101939Y-107965000D01*
X158898061Y-107965000D01*
X158698102Y-108004774D01*
X158509744Y-108082795D01*
X158340226Y-108196063D01*
X158196063Y-108340226D01*
X158082795Y-108509744D01*
X158004774Y-108698102D01*
X158000000Y-108722103D01*
X157995226Y-108698102D01*
X157917205Y-108509744D01*
X157803937Y-108340226D01*
X157659774Y-108196063D01*
X157490256Y-108082795D01*
X157301898Y-108004774D01*
X157101939Y-107965000D01*
X156898061Y-107965000D01*
X156698102Y-108004774D01*
X156509744Y-108082795D01*
X156340226Y-108196063D01*
X156196063Y-108340226D01*
X156082795Y-108509744D01*
X156004774Y-108698102D01*
X156000000Y-108722103D01*
X155995226Y-108698102D01*
X155917205Y-108509744D01*
X155803937Y-108340226D01*
X155659774Y-108196063D01*
X155490256Y-108082795D01*
X155301898Y-108004774D01*
X155101939Y-107965000D01*
X154898061Y-107965000D01*
X154698102Y-108004774D01*
X154509744Y-108082795D01*
X154340226Y-108196063D01*
X154196063Y-108340226D01*
X154082795Y-108509744D01*
X154004774Y-108698102D01*
X154000000Y-108722103D01*
X153995226Y-108698102D01*
X153917205Y-108509744D01*
X153803937Y-108340226D01*
X153659774Y-108196063D01*
X153490256Y-108082795D01*
X153301898Y-108004774D01*
X153101939Y-107965000D01*
X152898061Y-107965000D01*
X152698102Y-108004774D01*
X152509744Y-108082795D01*
X152340226Y-108196063D01*
X152196063Y-108340226D01*
X152082795Y-108509744D01*
X152004774Y-108698102D01*
X151965000Y-108898061D01*
X151965000Y-109101939D01*
X152004774Y-109301898D01*
X152020556Y-109340000D01*
X149787076Y-109340000D01*
X149961898Y-109305226D01*
X150150256Y-109227205D01*
X150319774Y-109113937D01*
X150463937Y-108969774D01*
X150577205Y-108800256D01*
X150655226Y-108611898D01*
X150695000Y-108411939D01*
X150695000Y-108208061D01*
X150655226Y-108008102D01*
X150577205Y-107819744D01*
X150463937Y-107650226D01*
X150319774Y-107506063D01*
X150150256Y-107392795D01*
X149961898Y-107314774D01*
X149761939Y-107275000D01*
X149558061Y-107275000D01*
X149358102Y-107314774D01*
X149169744Y-107392795D01*
X149000226Y-107506063D01*
X148856063Y-107650226D01*
X148742795Y-107819744D01*
X148664774Y-108008102D01*
X148625000Y-108208061D01*
X148625000Y-108411939D01*
X148664774Y-108611898D01*
X148742795Y-108800256D01*
X148856063Y-108969774D01*
X149000226Y-109113937D01*
X149169744Y-109227205D01*
X149358102Y-109305226D01*
X149532924Y-109340000D01*
X138979444Y-109340000D01*
X138995226Y-109301898D01*
X139035000Y-109101939D01*
X139035000Y-108898061D01*
X138995226Y-108698102D01*
X138917205Y-108509744D01*
X138803937Y-108340226D01*
X138659774Y-108196063D01*
X138490256Y-108082795D01*
X138301898Y-108004774D01*
X138101939Y-107965000D01*
X137898061Y-107965000D01*
X137698102Y-108004774D01*
X137509744Y-108082795D01*
X137414311Y-108146561D01*
X137484682Y-107976671D01*
X137535625Y-107720563D01*
X137535625Y-107459437D01*
X137484682Y-107203329D01*
X137384754Y-106962081D01*
X137239680Y-106744963D01*
X137055037Y-106560320D01*
X136837919Y-106415246D01*
X136602793Y-106317854D01*
X136788092Y-106250058D01*
X136886641Y-106197382D01*
X136944963Y-105964568D01*
X136210000Y-105229605D01*
X135475037Y-105964568D01*
X135533359Y-106197382D01*
X135770204Y-106307342D01*
X135815828Y-106318425D01*
X135582081Y-106415246D01*
X135364963Y-106560320D01*
X135180320Y-106744963D01*
X135035246Y-106962081D01*
X134993018Y-107064029D01*
X134917067Y-106880668D01*
X134753184Y-106635399D01*
X134544601Y-106426816D01*
X134299332Y-106262933D01*
X134026805Y-106150048D01*
X133737491Y-106092500D01*
X133442509Y-106092500D01*
X133153195Y-106150048D01*
X132880668Y-106262933D01*
X132635399Y-106426816D01*
X132426816Y-106635399D01*
X132262933Y-106880668D01*
X132150048Y-107153195D01*
X132092500Y-107442509D01*
X132092500Y-107737491D01*
X132139230Y-107972418D01*
X132101939Y-107965000D01*
X131898061Y-107965000D01*
X131698102Y-108004774D01*
X131509744Y-108082795D01*
X131340226Y-108196063D01*
X131196063Y-108340226D01*
X131082795Y-108509744D01*
X131004774Y-108698102D01*
X131000000Y-108722103D01*
X130995226Y-108698102D01*
X130917205Y-108509744D01*
X130803937Y-108340226D01*
X130659774Y-108196063D01*
X130490256Y-108082795D01*
X130301898Y-108004774D01*
X130101939Y-107965000D01*
X129898061Y-107965000D01*
X129698102Y-108004774D01*
X129509744Y-108082795D01*
X129340226Y-108196063D01*
X129196063Y-108340226D01*
X129082795Y-108509744D01*
X129004774Y-108698102D01*
X129000000Y-108722103D01*
X128995226Y-108698102D01*
X128917205Y-108509744D01*
X128803937Y-108340226D01*
X128659774Y-108196063D01*
X128490256Y-108082795D01*
X128301898Y-108004774D01*
X128101939Y-107965000D01*
X127898061Y-107965000D01*
X127698102Y-108004774D01*
X127509744Y-108082795D01*
X127340226Y-108196063D01*
X127196063Y-108340226D01*
X127082795Y-108509744D01*
X127004774Y-108698102D01*
X127000000Y-108722103D01*
X126995226Y-108698102D01*
X126917205Y-108509744D01*
X126803937Y-108340226D01*
X126659774Y-108196063D01*
X126490256Y-108082795D01*
X126301898Y-108004774D01*
X126101939Y-107965000D01*
X125898061Y-107965000D01*
X125698102Y-108004774D01*
X125660000Y-108020556D01*
X125660000Y-106979444D01*
X125698102Y-106995226D01*
X125898061Y-107035000D01*
X126101939Y-107035000D01*
X126301898Y-106995226D01*
X126490256Y-106917205D01*
X126659774Y-106803937D01*
X126803937Y-106659774D01*
X126917205Y-106490256D01*
X126995226Y-106301898D01*
X127035000Y-106101939D01*
X127035000Y-105898061D01*
X126995226Y-105698102D01*
X126917205Y-105509744D01*
X126803937Y-105340226D01*
X126659774Y-105196063D01*
X126553189Y-105124845D01*
X134880064Y-105124845D01*
X134920220Y-105382865D01*
X135009942Y-105628092D01*
X135062618Y-105726641D01*
X135295432Y-105784963D01*
X136030395Y-105050000D01*
X136389605Y-105050000D01*
X137124568Y-105784963D01*
X137357382Y-105726641D01*
X137467342Y-105489796D01*
X137528983Y-105236050D01*
X137539936Y-104975155D01*
X137499780Y-104717135D01*
X137410058Y-104471908D01*
X137357382Y-104373359D01*
X137124568Y-104315037D01*
X136389605Y-105050000D01*
X136030395Y-105050000D01*
X135295432Y-104315037D01*
X135062618Y-104373359D01*
X134952658Y-104610204D01*
X134891017Y-104863950D01*
X134880064Y-105124845D01*
X126553189Y-105124845D01*
X126490256Y-105082795D01*
X126301898Y-105004774D01*
X126101939Y-104965000D01*
X125898061Y-104965000D01*
X125698102Y-105004774D01*
X125660000Y-105020556D01*
X125660000Y-103479444D01*
X125698102Y-103495226D01*
X125898061Y-103535000D01*
X126101939Y-103535000D01*
X126301898Y-103495226D01*
X126490256Y-103417205D01*
X126659774Y-103303937D01*
X126803937Y-103159774D01*
X126917205Y-102990256D01*
X126995226Y-102801898D01*
X127035000Y-102601939D01*
X127035000Y-102398061D01*
X127027929Y-102362509D01*
X132092500Y-102362509D01*
X132092500Y-102657491D01*
X132150048Y-102946805D01*
X132262933Y-103219332D01*
X132426816Y-103464601D01*
X132635399Y-103673184D01*
X132880668Y-103837067D01*
X133153195Y-103949952D01*
X133442509Y-104007500D01*
X133737491Y-104007500D01*
X134026805Y-103949952D01*
X134299332Y-103837067D01*
X134544601Y-103673184D01*
X134753184Y-103464601D01*
X134917067Y-103219332D01*
X134993018Y-103035971D01*
X135035246Y-103137919D01*
X135180320Y-103355037D01*
X135364963Y-103539680D01*
X135582081Y-103684754D01*
X135817207Y-103782146D01*
X135631908Y-103849942D01*
X135533359Y-103902618D01*
X135475037Y-104135432D01*
X136210000Y-104870395D01*
X136944963Y-104135432D01*
X136886641Y-103902618D01*
X136649796Y-103792658D01*
X136604172Y-103781575D01*
X136837919Y-103684754D01*
X137055037Y-103539680D01*
X137239680Y-103355037D01*
X137384754Y-103137919D01*
X137484682Y-102896671D01*
X137535625Y-102640563D01*
X137535625Y-102379437D01*
X137484682Y-102123329D01*
X137384754Y-101882081D01*
X137239680Y-101664963D01*
X137055037Y-101480320D01*
X136837919Y-101335246D01*
X136596671Y-101235318D01*
X136340563Y-101184375D01*
X136079437Y-101184375D01*
X135823329Y-101235318D01*
X135582081Y-101335246D01*
X135364963Y-101480320D01*
X135180320Y-101664963D01*
X135035246Y-101882081D01*
X134993018Y-101984029D01*
X134917067Y-101800668D01*
X134753184Y-101555399D01*
X134544601Y-101346816D01*
X134299332Y-101182933D01*
X134026805Y-101070048D01*
X133737491Y-101012500D01*
X133442509Y-101012500D01*
X133153195Y-101070048D01*
X132880668Y-101182933D01*
X132635399Y-101346816D01*
X132426816Y-101555399D01*
X132262933Y-101800668D01*
X132150048Y-102073195D01*
X132092500Y-102362509D01*
X127027929Y-102362509D01*
X126995226Y-102198102D01*
X126917205Y-102009744D01*
X126803937Y-101840226D01*
X126659774Y-101696063D01*
X126490256Y-101582795D01*
X126301898Y-101504774D01*
X126101939Y-101465000D01*
X125898061Y-101465000D01*
X125698102Y-101504774D01*
X125660000Y-101520556D01*
X125660000Y-100979444D01*
X125698102Y-100995226D01*
X125898061Y-101035000D01*
X126101939Y-101035000D01*
X126301898Y-100995226D01*
X126490256Y-100917205D01*
X126659774Y-100803937D01*
X126803937Y-100659774D01*
X126917205Y-100490256D01*
X126995226Y-100301898D01*
X127000000Y-100277897D01*
X127004774Y-100301898D01*
X127082795Y-100490256D01*
X127196063Y-100659774D01*
X127340226Y-100803937D01*
X127509744Y-100917205D01*
X127698102Y-100995226D01*
X127898061Y-101035000D01*
X128101939Y-101035000D01*
X128301898Y-100995226D01*
X128490256Y-100917205D01*
X128659774Y-100803937D01*
X128803937Y-100659774D01*
X128917205Y-100490256D01*
X128995226Y-100301898D01*
X129000000Y-100277897D01*
X129004774Y-100301898D01*
X129082795Y-100490256D01*
X129196063Y-100659774D01*
X129340226Y-100803937D01*
X129509744Y-100917205D01*
X129698102Y-100995226D01*
X129898061Y-101035000D01*
X130101939Y-101035000D01*
X130301898Y-100995226D01*
X130490256Y-100917205D01*
X130659774Y-100803937D01*
X130803937Y-100659774D01*
X130917205Y-100490256D01*
X130995226Y-100301898D01*
X131000000Y-100277897D01*
X131004774Y-100301898D01*
X131082795Y-100490256D01*
X131196063Y-100659774D01*
X131340226Y-100803937D01*
X131509744Y-100917205D01*
X131698102Y-100995226D01*
X131898061Y-101035000D01*
X132101939Y-101035000D01*
X132301898Y-100995226D01*
X132490256Y-100917205D01*
X132659774Y-100803937D01*
X132803937Y-100659774D01*
X132917205Y-100490256D01*
X132995226Y-100301898D01*
X133035000Y-100101939D01*
X133035000Y-99898061D01*
X133965000Y-99898061D01*
X133965000Y-100101939D01*
X134004774Y-100301898D01*
X134082795Y-100490256D01*
X134196063Y-100659774D01*
X134340226Y-100803937D01*
X134509744Y-100917205D01*
X134698102Y-100995226D01*
X134898061Y-101035000D01*
X135101939Y-101035000D01*
X135301898Y-100995226D01*
X135490256Y-100917205D01*
X135659774Y-100803937D01*
X135803937Y-100659774D01*
X135917205Y-100490256D01*
X135995226Y-100301898D01*
X136035000Y-100101939D01*
X136035000Y-99898061D01*
X136965000Y-99898061D01*
X136965000Y-100101939D01*
X137004774Y-100301898D01*
X137082795Y-100490256D01*
X137196063Y-100659774D01*
X137340226Y-100803937D01*
X137509744Y-100917205D01*
X137698102Y-100995226D01*
X137898061Y-101035000D01*
X138101939Y-101035000D01*
X138301898Y-100995226D01*
X138490256Y-100917205D01*
X138659774Y-100803937D01*
X138803937Y-100659774D01*
X138917205Y-100490256D01*
X138995226Y-100301898D01*
X139035000Y-100101939D01*
X139035000Y-99898061D01*
X138995226Y-99698102D01*
X138917205Y-99509744D01*
X138803937Y-99340226D01*
X138659774Y-99196063D01*
X138490256Y-99082795D01*
X138301898Y-99004774D01*
X138101939Y-98965000D01*
X137898061Y-98965000D01*
X137698102Y-99004774D01*
X137509744Y-99082795D01*
X137340226Y-99196063D01*
X137196063Y-99340226D01*
X137082795Y-99509744D01*
X137004774Y-99698102D01*
X136965000Y-99898061D01*
X136035000Y-99898061D01*
X135995226Y-99698102D01*
X135917205Y-99509744D01*
X135803937Y-99340226D01*
X135659774Y-99196063D01*
X135490256Y-99082795D01*
X135301898Y-99004774D01*
X135101939Y-98965000D01*
X134898061Y-98965000D01*
X134698102Y-99004774D01*
X134509744Y-99082795D01*
X134340226Y-99196063D01*
X134196063Y-99340226D01*
X134082795Y-99509744D01*
X134004774Y-99698102D01*
X133965000Y-99898061D01*
X133035000Y-99898061D01*
X132995226Y-99698102D01*
X132917205Y-99509744D01*
X132803937Y-99340226D01*
X132659774Y-99196063D01*
X132490256Y-99082795D01*
X132301898Y-99004774D01*
X132101939Y-98965000D01*
X131898061Y-98965000D01*
X131698102Y-99004774D01*
X131509744Y-99082795D01*
X131340226Y-99196063D01*
X131196063Y-99340226D01*
X131082795Y-99509744D01*
X131004774Y-99698102D01*
X131000000Y-99722103D01*
X130995226Y-99698102D01*
X130917205Y-99509744D01*
X130803937Y-99340226D01*
X130659774Y-99196063D01*
X130490256Y-99082795D01*
X130301898Y-99004774D01*
X130101939Y-98965000D01*
X129898061Y-98965000D01*
X129698102Y-99004774D01*
X129509744Y-99082795D01*
X129340226Y-99196063D01*
X129196063Y-99340226D01*
X129082795Y-99509744D01*
X129004774Y-99698102D01*
X129000000Y-99722103D01*
X128995226Y-99698102D01*
X128917205Y-99509744D01*
X128803937Y-99340226D01*
X128659774Y-99196063D01*
X128490256Y-99082795D01*
X128301898Y-99004774D01*
X128101939Y-98965000D01*
X127898061Y-98965000D01*
X127698102Y-99004774D01*
X127509744Y-99082795D01*
X127340226Y-99196063D01*
X127196063Y-99340226D01*
X127082795Y-99509744D01*
X127004774Y-99698102D01*
X127000000Y-99722103D01*
X126995226Y-99698102D01*
X126917205Y-99509744D01*
X126803937Y-99340226D01*
X126659774Y-99196063D01*
X126490256Y-99082795D01*
X126301898Y-99004774D01*
X126101939Y-98965000D01*
X125898061Y-98965000D01*
X125698102Y-99004774D01*
X125660000Y-99020556D01*
X125660000Y-98479444D01*
X125698102Y-98495226D01*
X125898061Y-98535000D01*
X126101939Y-98535000D01*
X126301898Y-98495226D01*
X126490256Y-98417205D01*
X126659774Y-98303937D01*
X126803937Y-98159774D01*
X126917205Y-97990256D01*
X126995226Y-97801898D01*
X127035000Y-97601939D01*
X127035000Y-97398061D01*
X126995226Y-97198102D01*
X126917205Y-97009744D01*
X126803937Y-96840226D01*
X126659774Y-96696063D01*
X126490256Y-96582795D01*
X126301898Y-96504774D01*
X126101939Y-96465000D01*
X125898061Y-96465000D01*
X125698102Y-96504774D01*
X125660000Y-96520556D01*
X125660000Y-94979444D01*
X125698102Y-94995226D01*
X125898061Y-95035000D01*
X126101939Y-95035000D01*
X126301898Y-94995226D01*
X126490256Y-94917205D01*
X126659774Y-94803937D01*
X126803937Y-94659774D01*
X126917205Y-94490256D01*
X126995226Y-94301898D01*
X127035000Y-94101939D01*
X127035000Y-93898061D01*
X126995226Y-93698102D01*
X126917205Y-93509744D01*
X126803937Y-93340226D01*
X126659774Y-93196063D01*
X126490256Y-93082795D01*
X126301898Y-93004774D01*
X126101939Y-92965000D01*
X125898061Y-92965000D01*
X125698102Y-93004774D01*
X125660000Y-93020556D01*
X125660000Y-91979444D01*
X125698102Y-91995226D01*
X125898061Y-92035000D01*
X126101939Y-92035000D01*
X126301898Y-91995226D01*
X126490256Y-91917205D01*
X126659774Y-91803937D01*
X126803937Y-91659774D01*
X126917205Y-91490256D01*
X126995226Y-91301898D01*
X127000000Y-91277897D01*
X127004774Y-91301898D01*
X127082795Y-91490256D01*
X127196063Y-91659774D01*
X127340226Y-91803937D01*
X127509744Y-91917205D01*
X127698102Y-91995226D01*
X127898061Y-92035000D01*
X128101939Y-92035000D01*
X128301898Y-91995226D01*
X128490256Y-91917205D01*
X128659774Y-91803937D01*
X128803937Y-91659774D01*
X128917205Y-91490256D01*
X128995226Y-91301898D01*
X129000000Y-91277897D01*
X129004774Y-91301898D01*
X129082795Y-91490256D01*
X129196063Y-91659774D01*
X129340226Y-91803937D01*
X129509744Y-91917205D01*
X129698102Y-91995226D01*
X129898061Y-92035000D01*
X130101939Y-92035000D01*
X130301898Y-91995226D01*
X130490256Y-91917205D01*
X130659774Y-91803937D01*
X130803937Y-91659774D01*
X130917205Y-91490256D01*
X130995226Y-91301898D01*
X131000000Y-91277897D01*
X131004774Y-91301898D01*
X131082795Y-91490256D01*
X131196063Y-91659774D01*
X131340226Y-91803937D01*
X131509744Y-91917205D01*
X131698102Y-91995226D01*
X131898061Y-92035000D01*
X132101939Y-92035000D01*
X132139230Y-92027582D01*
X132092500Y-92262509D01*
X132092500Y-92557491D01*
X132150048Y-92846805D01*
X132262933Y-93119332D01*
X132426816Y-93364601D01*
X132635399Y-93573184D01*
X132880668Y-93737067D01*
X133153195Y-93849952D01*
X133442509Y-93907500D01*
X133737491Y-93907500D01*
X134026805Y-93849952D01*
X134299332Y-93737067D01*
X134544601Y-93573184D01*
X134753184Y-93364601D01*
X134917067Y-93119332D01*
X134993086Y-92935808D01*
X135035357Y-93037860D01*
X135180417Y-93254957D01*
X135365043Y-93439583D01*
X135582140Y-93584643D01*
X135812352Y-93680000D01*
X135582140Y-93775357D01*
X135365043Y-93920417D01*
X135180417Y-94105043D01*
X135035357Y-94322140D01*
X134935438Y-94563366D01*
X134884500Y-94819450D01*
X134884500Y-95080550D01*
X134935438Y-95336634D01*
X135035357Y-95577860D01*
X135180417Y-95794957D01*
X135365043Y-95979583D01*
X135582140Y-96124643D01*
X135812352Y-96220000D01*
X135582140Y-96315357D01*
X135365043Y-96460417D01*
X135180417Y-96645043D01*
X135035357Y-96862140D01*
X134993086Y-96964192D01*
X134917067Y-96780668D01*
X134753184Y-96535399D01*
X134544601Y-96326816D01*
X134299332Y-96162933D01*
X134026805Y-96050048D01*
X133737491Y-95992500D01*
X133442509Y-95992500D01*
X133153195Y-96050048D01*
X132880668Y-96162933D01*
X132635399Y-96326816D01*
X132426816Y-96535399D01*
X132262933Y-96780668D01*
X132150048Y-97053195D01*
X132092500Y-97342509D01*
X132092500Y-97637491D01*
X132150048Y-97926805D01*
X132262933Y-98199332D01*
X132426816Y-98444601D01*
X132635399Y-98653184D01*
X132880668Y-98817067D01*
X133153195Y-98929952D01*
X133442509Y-98987500D01*
X133737491Y-98987500D01*
X134026805Y-98929952D01*
X134299332Y-98817067D01*
X134544601Y-98653184D01*
X134753184Y-98444601D01*
X134917067Y-98199332D01*
X134993086Y-98015808D01*
X135035357Y-98117860D01*
X135180417Y-98334957D01*
X135365043Y-98519583D01*
X135582140Y-98664643D01*
X135823366Y-98764562D01*
X136079450Y-98815500D01*
X136340550Y-98815500D01*
X136596634Y-98764562D01*
X136837860Y-98664643D01*
X137054957Y-98519583D01*
X137239583Y-98334957D01*
X137384643Y-98117860D01*
X137484562Y-97876634D01*
X137535500Y-97620550D01*
X137535500Y-97359450D01*
X137484562Y-97103366D01*
X137384643Y-96862140D01*
X137239583Y-96645043D01*
X137054957Y-96460417D01*
X136837860Y-96315357D01*
X136607648Y-96220000D01*
X136837860Y-96124643D01*
X137054957Y-95979583D01*
X137239583Y-95794957D01*
X137384643Y-95577860D01*
X137484562Y-95336634D01*
X137535500Y-95080550D01*
X137535500Y-94819450D01*
X137484562Y-94563366D01*
X137384643Y-94322140D01*
X137239583Y-94105043D01*
X137054957Y-93920417D01*
X136837860Y-93775357D01*
X136607648Y-93680000D01*
X136837860Y-93584643D01*
X137054957Y-93439583D01*
X137239583Y-93254957D01*
X137384643Y-93037860D01*
X137484562Y-92796634D01*
X137535500Y-92540550D01*
X137535500Y-92279450D01*
X137484562Y-92023366D01*
X137414124Y-91853314D01*
X137509744Y-91917205D01*
X137698102Y-91995226D01*
X137898061Y-92035000D01*
X138101939Y-92035000D01*
X138301898Y-91995226D01*
X138490256Y-91917205D01*
X138659774Y-91803937D01*
X138765650Y-91698061D01*
X138965000Y-91698061D01*
X138965000Y-91901939D01*
X139004774Y-92101898D01*
X139082795Y-92290256D01*
X139196063Y-92459774D01*
X139340226Y-92603937D01*
X139509744Y-92717205D01*
X139698102Y-92795226D01*
X139898061Y-92835000D01*
X140101939Y-92835000D01*
X140301898Y-92795226D01*
X140490256Y-92717205D01*
X140659774Y-92603937D01*
X140803937Y-92459774D01*
X140915000Y-92293556D01*
X140915000Y-92526260D01*
X140972068Y-92813158D01*
X141084010Y-93083411D01*
X141246525Y-93326632D01*
X141453368Y-93533475D01*
X141627760Y-93650000D01*
X141453368Y-93766525D01*
X141246525Y-93973368D01*
X141084010Y-94216589D01*
X140972068Y-94486842D01*
X140915000Y-94773740D01*
X140915000Y-95066260D01*
X140972068Y-95353158D01*
X141084010Y-95623411D01*
X141246525Y-95866632D01*
X141453368Y-96073475D01*
X141627760Y-96190000D01*
X141453368Y-96306525D01*
X141246525Y-96513368D01*
X141084010Y-96756589D01*
X140972068Y-97026842D01*
X140915000Y-97313740D01*
X140915000Y-97606260D01*
X140972068Y-97893158D01*
X141084010Y-98163411D01*
X141246525Y-98406632D01*
X141453368Y-98613475D01*
X141627760Y-98730000D01*
X141453368Y-98846525D01*
X141246525Y-99053368D01*
X141084010Y-99296589D01*
X140972068Y-99566842D01*
X140915000Y-99853740D01*
X140915000Y-100146260D01*
X140972068Y-100433158D01*
X141084010Y-100703411D01*
X141246525Y-100946632D01*
X141453368Y-101153475D01*
X141627760Y-101270000D01*
X141453368Y-101386525D01*
X141246525Y-101593368D01*
X141084010Y-101836589D01*
X140972068Y-102106842D01*
X140915000Y-102393740D01*
X140915000Y-102686260D01*
X140972068Y-102973158D01*
X141084010Y-103243411D01*
X141246525Y-103486632D01*
X141453368Y-103693475D01*
X141627760Y-103810000D01*
X141453368Y-103926525D01*
X141246525Y-104133368D01*
X141084010Y-104376589D01*
X140972068Y-104646842D01*
X140915000Y-104933740D01*
X140915000Y-105226260D01*
X140972068Y-105513158D01*
X141084010Y-105783411D01*
X141246525Y-106026632D01*
X141378380Y-106158487D01*
X141305820Y-106180498D01*
X141195506Y-106239463D01*
X141098815Y-106318815D01*
X141019463Y-106415506D01*
X140960498Y-106525820D01*
X140924188Y-106645518D01*
X140911928Y-106770000D01*
X140911928Y-107531846D01*
X140803937Y-107370226D01*
X140659774Y-107226063D01*
X140490256Y-107112795D01*
X140301898Y-107034774D01*
X140101939Y-106995000D01*
X139898061Y-106995000D01*
X139698102Y-107034774D01*
X139509744Y-107112795D01*
X139340226Y-107226063D01*
X139196063Y-107370226D01*
X139082795Y-107539744D01*
X139004774Y-107728102D01*
X138965000Y-107928061D01*
X138965000Y-108131939D01*
X139004774Y-108331898D01*
X139082795Y-108520256D01*
X139196063Y-108689774D01*
X139340226Y-108833937D01*
X139509744Y-108947205D01*
X139698102Y-109025226D01*
X139898061Y-109065000D01*
X140101939Y-109065000D01*
X140301898Y-109025226D01*
X140490256Y-108947205D01*
X140659774Y-108833937D01*
X140803937Y-108689774D01*
X140916920Y-108520683D01*
X140924188Y-108594482D01*
X140960498Y-108714180D01*
X141019463Y-108824494D01*
X141098815Y-108921185D01*
X141195506Y-109000537D01*
X141305820Y-109059502D01*
X141425518Y-109095812D01*
X141550000Y-109108072D01*
X143250000Y-109108072D01*
X143374482Y-109095812D01*
X143494180Y-109059502D01*
X143604494Y-109000537D01*
X143701185Y-108921185D01*
X143780537Y-108824494D01*
X143839502Y-108714180D01*
X143875812Y-108594482D01*
X143888072Y-108470000D01*
X143888072Y-107175907D01*
X144009744Y-107257205D01*
X144198102Y-107335226D01*
X144398061Y-107375000D01*
X144601939Y-107375000D01*
X144801898Y-107335226D01*
X144990256Y-107257205D01*
X145159774Y-107143937D01*
X145303937Y-106999774D01*
X145417205Y-106830256D01*
X145495226Y-106641898D01*
X145535000Y-106441939D01*
X145535000Y-106238061D01*
X145495226Y-106038102D01*
X145417205Y-105849744D01*
X145303937Y-105680226D01*
X145159774Y-105536063D01*
X144990256Y-105422795D01*
X144801898Y-105344774D01*
X144601939Y-105305000D01*
X144398061Y-105305000D01*
X144198102Y-105344774D01*
X144009744Y-105422795D01*
X143840226Y-105536063D01*
X143803043Y-105573246D01*
X143827932Y-105513158D01*
X143885000Y-105226260D01*
X143885000Y-104933740D01*
X143865671Y-104836568D01*
X143908061Y-104845000D01*
X144111939Y-104845000D01*
X144311898Y-104805226D01*
X144500256Y-104727205D01*
X144669774Y-104613937D01*
X144813937Y-104469774D01*
X144927205Y-104300256D01*
X145005226Y-104111898D01*
X145045000Y-103911939D01*
X145045000Y-103708061D01*
X145005226Y-103508102D01*
X144927205Y-103319744D01*
X144813937Y-103150226D01*
X144669774Y-103006063D01*
X144500256Y-102892795D01*
X144311898Y-102814774D01*
X144111939Y-102775000D01*
X143908061Y-102775000D01*
X143865671Y-102783432D01*
X143885000Y-102686260D01*
X143885000Y-102393740D01*
X143864424Y-102290298D01*
X143888061Y-102295000D01*
X144091939Y-102295000D01*
X144291898Y-102255226D01*
X144480256Y-102177205D01*
X144649774Y-102063937D01*
X144793937Y-101919774D01*
X144907205Y-101750256D01*
X144985226Y-101561898D01*
X145025000Y-101361939D01*
X145025000Y-101158061D01*
X144985226Y-100958102D01*
X144907205Y-100769744D01*
X144793937Y-100600226D01*
X144649774Y-100456063D01*
X144480256Y-100342795D01*
X144291898Y-100264774D01*
X144091939Y-100225000D01*
X143888061Y-100225000D01*
X143868566Y-100228878D01*
X143869723Y-100223061D01*
X144815000Y-100223061D01*
X144815000Y-100426939D01*
X144854774Y-100626898D01*
X144932795Y-100815256D01*
X145046063Y-100984774D01*
X145190226Y-101128937D01*
X145359744Y-101242205D01*
X145548102Y-101320226D01*
X145748061Y-101360000D01*
X145951939Y-101360000D01*
X146005000Y-101349446D01*
X146005000Y-101451939D01*
X146044774Y-101651898D01*
X146122795Y-101840256D01*
X146236063Y-102009774D01*
X146380226Y-102153937D01*
X146549744Y-102267205D01*
X146648843Y-102308253D01*
X146531939Y-102285000D01*
X146328061Y-102285000D01*
X146128102Y-102324774D01*
X145939744Y-102402795D01*
X145770226Y-102516063D01*
X145626063Y-102660226D01*
X145512795Y-102829744D01*
X145434774Y-103018102D01*
X145395000Y-103218061D01*
X145395000Y-103421939D01*
X145434774Y-103621898D01*
X145512795Y-103810256D01*
X145626063Y-103979774D01*
X145770226Y-104123937D01*
X145939744Y-104237205D01*
X146128102Y-104315226D01*
X146328061Y-104355000D01*
X146531939Y-104355000D01*
X146731898Y-104315226D01*
X146920256Y-104237205D01*
X147089774Y-104123937D01*
X147233937Y-103979774D01*
X147347205Y-103810256D01*
X147425226Y-103621898D01*
X147465000Y-103421939D01*
X147465000Y-103218061D01*
X147425226Y-103018102D01*
X147347205Y-102829744D01*
X147233937Y-102660226D01*
X147089774Y-102516063D01*
X146920256Y-102402795D01*
X146821157Y-102361747D01*
X146938061Y-102385000D01*
X147000199Y-102385000D01*
X147816201Y-103201003D01*
X147839999Y-103230001D01*
X147955724Y-103324974D01*
X148087753Y-103395546D01*
X148231014Y-103439003D01*
X148342667Y-103450000D01*
X148342676Y-103450000D01*
X148379999Y-103453676D01*
X148417322Y-103450000D01*
X149236289Y-103450000D01*
X149280226Y-103493937D01*
X149449744Y-103607205D01*
X149638102Y-103685226D01*
X149838061Y-103725000D01*
X150041939Y-103725000D01*
X150241898Y-103685226D01*
X150430256Y-103607205D01*
X150599774Y-103493937D01*
X150743937Y-103349774D01*
X150857205Y-103180256D01*
X150935226Y-102991898D01*
X150975000Y-102791939D01*
X150975000Y-102652519D01*
X151060256Y-102617205D01*
X151229774Y-102503937D01*
X151373937Y-102359774D01*
X151487205Y-102190256D01*
X151565226Y-102001898D01*
X151597814Y-101838061D01*
X153385000Y-101838061D01*
X153385000Y-102041939D01*
X153424774Y-102241898D01*
X153502795Y-102430256D01*
X153616063Y-102599774D01*
X153760226Y-102743937D01*
X153929744Y-102857205D01*
X154118102Y-102935226D01*
X154318061Y-102975000D01*
X154521939Y-102975000D01*
X154721898Y-102935226D01*
X154910256Y-102857205D01*
X155079774Y-102743937D01*
X155223937Y-102599774D01*
X155337205Y-102430256D01*
X155415226Y-102241898D01*
X155455000Y-102041939D01*
X155455000Y-101838061D01*
X155431131Y-101718061D01*
X157105000Y-101718061D01*
X157105000Y-101921939D01*
X157144774Y-102121898D01*
X157222795Y-102310256D01*
X157336063Y-102479774D01*
X157480226Y-102623937D01*
X157649744Y-102737205D01*
X157838102Y-102815226D01*
X158038061Y-102855000D01*
X158241939Y-102855000D01*
X158441898Y-102815226D01*
X158630256Y-102737205D01*
X158799774Y-102623937D01*
X158943937Y-102479774D01*
X158951569Y-102468353D01*
X159046063Y-102609774D01*
X159190226Y-102753937D01*
X159359744Y-102867205D01*
X159548102Y-102945226D01*
X159748061Y-102985000D01*
X159951939Y-102985000D01*
X160151898Y-102945226D01*
X160340256Y-102867205D01*
X160509774Y-102753937D01*
X160653937Y-102609774D01*
X160767205Y-102440256D01*
X160845226Y-102251898D01*
X160885000Y-102051939D01*
X160885000Y-101898061D01*
X161465000Y-101898061D01*
X161465000Y-102101939D01*
X161504774Y-102301898D01*
X161582795Y-102490256D01*
X161696063Y-102659774D01*
X161840226Y-102803937D01*
X162009744Y-102917205D01*
X162198102Y-102995226D01*
X162398061Y-103035000D01*
X162601939Y-103035000D01*
X162801898Y-102995226D01*
X162990256Y-102917205D01*
X163159774Y-102803937D01*
X163303937Y-102659774D01*
X163417205Y-102490256D01*
X163495226Y-102301898D01*
X163535000Y-102101939D01*
X163535000Y-101898061D01*
X164465000Y-101898061D01*
X164465000Y-102101939D01*
X164504774Y-102301898D01*
X164582795Y-102490256D01*
X164696063Y-102659774D01*
X164840226Y-102803937D01*
X165009744Y-102917205D01*
X165198102Y-102995226D01*
X165398061Y-103035000D01*
X165601939Y-103035000D01*
X165801898Y-102995226D01*
X165990256Y-102917205D01*
X166159774Y-102803937D01*
X166303937Y-102659774D01*
X166417205Y-102490256D01*
X166495226Y-102301898D01*
X166535000Y-102101939D01*
X166535000Y-101898061D01*
X167465000Y-101898061D01*
X167465000Y-102101939D01*
X167504774Y-102301898D01*
X167582795Y-102490256D01*
X167696063Y-102659774D01*
X167840226Y-102803937D01*
X168009744Y-102917205D01*
X168198102Y-102995226D01*
X168398061Y-103035000D01*
X168601939Y-103035000D01*
X168801898Y-102995226D01*
X168990256Y-102917205D01*
X169159774Y-102803937D01*
X169303937Y-102659774D01*
X169417205Y-102490256D01*
X169495226Y-102301898D01*
X169535000Y-102101939D01*
X169535000Y-101898061D01*
X170465000Y-101898061D01*
X170465000Y-102101939D01*
X170504774Y-102301898D01*
X170582795Y-102490256D01*
X170696063Y-102659774D01*
X170840226Y-102803937D01*
X171009744Y-102917205D01*
X171198102Y-102995226D01*
X171398061Y-103035000D01*
X171601939Y-103035000D01*
X171801898Y-102995226D01*
X171990256Y-102917205D01*
X172159774Y-102803937D01*
X172303937Y-102659774D01*
X172417205Y-102490256D01*
X172495226Y-102301898D01*
X172535000Y-102101939D01*
X172535000Y-101898061D01*
X172495226Y-101698102D01*
X172417205Y-101509744D01*
X172303937Y-101340226D01*
X172159774Y-101196063D01*
X171990256Y-101082795D01*
X171801898Y-101004774D01*
X171601939Y-100965000D01*
X171398061Y-100965000D01*
X171198102Y-101004774D01*
X171009744Y-101082795D01*
X170840226Y-101196063D01*
X170696063Y-101340226D01*
X170582795Y-101509744D01*
X170504774Y-101698102D01*
X170465000Y-101898061D01*
X169535000Y-101898061D01*
X169495226Y-101698102D01*
X169417205Y-101509744D01*
X169303937Y-101340226D01*
X169159774Y-101196063D01*
X168990256Y-101082795D01*
X168801898Y-101004774D01*
X168601939Y-100965000D01*
X168398061Y-100965000D01*
X168198102Y-101004774D01*
X168009744Y-101082795D01*
X167840226Y-101196063D01*
X167696063Y-101340226D01*
X167582795Y-101509744D01*
X167504774Y-101698102D01*
X167465000Y-101898061D01*
X166535000Y-101898061D01*
X166495226Y-101698102D01*
X166417205Y-101509744D01*
X166303937Y-101340226D01*
X166159774Y-101196063D01*
X165990256Y-101082795D01*
X165801898Y-101004774D01*
X165601939Y-100965000D01*
X165398061Y-100965000D01*
X165198102Y-101004774D01*
X165009744Y-101082795D01*
X164840226Y-101196063D01*
X164696063Y-101340226D01*
X164582795Y-101509744D01*
X164504774Y-101698102D01*
X164465000Y-101898061D01*
X163535000Y-101898061D01*
X163495226Y-101698102D01*
X163417205Y-101509744D01*
X163303937Y-101340226D01*
X163159774Y-101196063D01*
X162990256Y-101082795D01*
X162801898Y-101004774D01*
X162601939Y-100965000D01*
X162398061Y-100965000D01*
X162198102Y-101004774D01*
X162009744Y-101082795D01*
X161840226Y-101196063D01*
X161696063Y-101340226D01*
X161582795Y-101509744D01*
X161504774Y-101698102D01*
X161465000Y-101898061D01*
X160885000Y-101898061D01*
X160885000Y-101848061D01*
X160845226Y-101648102D01*
X160767205Y-101459744D01*
X160653937Y-101290226D01*
X160509774Y-101146063D01*
X160340256Y-101032795D01*
X160151898Y-100954774D01*
X159951939Y-100915000D01*
X159748061Y-100915000D01*
X159548102Y-100954774D01*
X159359744Y-101032795D01*
X159190226Y-101146063D01*
X159046063Y-101290226D01*
X159038431Y-101301647D01*
X158943937Y-101160226D01*
X158799774Y-101016063D01*
X158630256Y-100902795D01*
X158441898Y-100824774D01*
X158241939Y-100785000D01*
X158038061Y-100785000D01*
X157838102Y-100824774D01*
X157649744Y-100902795D01*
X157480226Y-101016063D01*
X157336063Y-101160226D01*
X157222795Y-101329744D01*
X157144774Y-101518102D01*
X157105000Y-101718061D01*
X155431131Y-101718061D01*
X155415226Y-101638102D01*
X155337205Y-101449744D01*
X155223937Y-101280226D01*
X155079774Y-101136063D01*
X154910256Y-101022795D01*
X154721898Y-100944774D01*
X154521939Y-100905000D01*
X154318061Y-100905000D01*
X154118102Y-100944774D01*
X153929744Y-101022795D01*
X153760226Y-101136063D01*
X153616063Y-101280226D01*
X153502795Y-101449744D01*
X153424774Y-101638102D01*
X153385000Y-101838061D01*
X151597814Y-101838061D01*
X151605000Y-101801939D01*
X151605000Y-101598061D01*
X151565226Y-101398102D01*
X151487205Y-101209744D01*
X151373937Y-101040226D01*
X151229774Y-100896063D01*
X151060256Y-100782795D01*
X150871898Y-100704774D01*
X150671939Y-100665000D01*
X150468061Y-100665000D01*
X150268102Y-100704774D01*
X150079744Y-100782795D01*
X149910226Y-100896063D01*
X149766063Y-101040226D01*
X149652795Y-101209744D01*
X149574774Y-101398102D01*
X149535000Y-101598061D01*
X149535000Y-101737481D01*
X149449744Y-101772795D01*
X149280226Y-101886063D01*
X149236289Y-101930000D01*
X148694802Y-101930000D01*
X148075000Y-101310199D01*
X148075000Y-101248061D01*
X148035226Y-101048102D01*
X147957205Y-100859744D01*
X147843937Y-100690226D01*
X147699774Y-100546063D01*
X147530256Y-100432795D01*
X147341898Y-100354774D01*
X147141939Y-100315000D01*
X146938061Y-100315000D01*
X146885000Y-100325554D01*
X146885000Y-100223061D01*
X146845226Y-100023102D01*
X146767205Y-99834744D01*
X146653937Y-99665226D01*
X146509774Y-99521063D01*
X146340256Y-99407795D01*
X146151898Y-99329774D01*
X145951939Y-99290000D01*
X145748061Y-99290000D01*
X145548102Y-99329774D01*
X145359744Y-99407795D01*
X145190226Y-99521063D01*
X145046063Y-99665226D01*
X144932795Y-99834744D01*
X144854774Y-100023102D01*
X144815000Y-100223061D01*
X143869723Y-100223061D01*
X143885000Y-100146260D01*
X143885000Y-99853740D01*
X143869338Y-99775000D01*
X144061939Y-99775000D01*
X144261898Y-99735226D01*
X144450256Y-99657205D01*
X144619774Y-99543937D01*
X144763937Y-99399774D01*
X144877205Y-99230256D01*
X144955226Y-99041898D01*
X144995000Y-98841939D01*
X144995000Y-98638061D01*
X144955226Y-98438102D01*
X144877205Y-98249744D01*
X144763937Y-98080226D01*
X144619774Y-97936063D01*
X144450256Y-97822795D01*
X144261898Y-97744774D01*
X144061939Y-97705000D01*
X143865359Y-97705000D01*
X143885000Y-97606260D01*
X143885000Y-97313740D01*
X143858211Y-97179062D01*
X143888061Y-97185000D01*
X144091939Y-97185000D01*
X144291898Y-97145226D01*
X144480256Y-97067205D01*
X144649774Y-96953937D01*
X144793937Y-96809774D01*
X144907205Y-96640256D01*
X144945393Y-96548061D01*
X145275000Y-96548061D01*
X145275000Y-96751939D01*
X145314774Y-96951898D01*
X145392795Y-97140256D01*
X145506063Y-97309774D01*
X145650226Y-97453937D01*
X145819744Y-97567205D01*
X146008102Y-97645226D01*
X146208061Y-97685000D01*
X146411939Y-97685000D01*
X146611898Y-97645226D01*
X146800256Y-97567205D01*
X146969774Y-97453937D01*
X147113937Y-97309774D01*
X147227205Y-97140256D01*
X147305226Y-96951898D01*
X147345000Y-96751939D01*
X147345000Y-96548061D01*
X147305226Y-96348102D01*
X147227205Y-96159744D01*
X147113937Y-95990226D01*
X147021772Y-95898061D01*
X154465000Y-95898061D01*
X154465000Y-96101939D01*
X154504774Y-96301898D01*
X154582795Y-96490256D01*
X154696063Y-96659774D01*
X154840226Y-96803937D01*
X155009744Y-96917205D01*
X155198102Y-96995226D01*
X155398061Y-97035000D01*
X155601939Y-97035000D01*
X155801898Y-96995226D01*
X155990256Y-96917205D01*
X156159774Y-96803937D01*
X156303937Y-96659774D01*
X156417205Y-96490256D01*
X156495226Y-96301898D01*
X156535000Y-96101939D01*
X156535000Y-95898061D01*
X156495226Y-95698102D01*
X156417205Y-95509744D01*
X156303937Y-95340226D01*
X156207451Y-95243740D01*
X158015000Y-95243740D01*
X158015000Y-95536260D01*
X158072068Y-95823158D01*
X158184010Y-96093411D01*
X158346525Y-96336632D01*
X158553368Y-96543475D01*
X158796589Y-96705990D01*
X159066842Y-96817932D01*
X159353740Y-96875000D01*
X159646260Y-96875000D01*
X159933158Y-96817932D01*
X160203411Y-96705990D01*
X160446632Y-96543475D01*
X160653475Y-96336632D01*
X160770000Y-96162240D01*
X160886525Y-96336632D01*
X161093368Y-96543475D01*
X161336589Y-96705990D01*
X161606842Y-96817932D01*
X161893740Y-96875000D01*
X162186260Y-96875000D01*
X162473158Y-96817932D01*
X162743411Y-96705990D01*
X162986632Y-96543475D01*
X163193475Y-96336632D01*
X163310000Y-96162240D01*
X163426525Y-96336632D01*
X163633368Y-96543475D01*
X163876589Y-96705990D01*
X164146842Y-96817932D01*
X164433740Y-96875000D01*
X164726260Y-96875000D01*
X165013158Y-96817932D01*
X165283411Y-96705990D01*
X165526632Y-96543475D01*
X165733475Y-96336632D01*
X165850000Y-96162240D01*
X165966525Y-96336632D01*
X166173368Y-96543475D01*
X166416589Y-96705990D01*
X166686842Y-96817932D01*
X166973740Y-96875000D01*
X167266260Y-96875000D01*
X167553158Y-96817932D01*
X167823411Y-96705990D01*
X168066632Y-96543475D01*
X168273475Y-96336632D01*
X168390000Y-96162240D01*
X168506525Y-96336632D01*
X168713368Y-96543475D01*
X168956589Y-96705990D01*
X169226842Y-96817932D01*
X169513740Y-96875000D01*
X169806260Y-96875000D01*
X170093158Y-96817932D01*
X170363411Y-96705990D01*
X170606632Y-96543475D01*
X170738487Y-96411620D01*
X170760498Y-96484180D01*
X170819463Y-96594494D01*
X170898815Y-96691185D01*
X170995506Y-96770537D01*
X171105820Y-96829502D01*
X171225518Y-96865812D01*
X171350000Y-96878072D01*
X173050000Y-96878072D01*
X173174482Y-96865812D01*
X173294180Y-96829502D01*
X173404494Y-96770537D01*
X173501185Y-96691185D01*
X173580537Y-96594494D01*
X173639502Y-96484180D01*
X173675812Y-96364482D01*
X173688072Y-96240000D01*
X173688072Y-94540000D01*
X173675812Y-94415518D01*
X173639502Y-94295820D01*
X173580537Y-94185506D01*
X173501185Y-94088815D01*
X173404494Y-94009463D01*
X173294180Y-93950498D01*
X173174482Y-93914188D01*
X173050000Y-93901928D01*
X171350000Y-93901928D01*
X171225518Y-93914188D01*
X171105820Y-93950498D01*
X170995506Y-94009463D01*
X170898815Y-94088815D01*
X170819463Y-94185506D01*
X170760498Y-94295820D01*
X170738487Y-94368380D01*
X170606632Y-94236525D01*
X170363411Y-94074010D01*
X170093158Y-93962068D01*
X169806260Y-93905000D01*
X169513740Y-93905000D01*
X169226842Y-93962068D01*
X168956589Y-94074010D01*
X168713368Y-94236525D01*
X168506525Y-94443368D01*
X168390000Y-94617760D01*
X168273475Y-94443368D01*
X168066632Y-94236525D01*
X167823411Y-94074010D01*
X167553158Y-93962068D01*
X167266260Y-93905000D01*
X166973740Y-93905000D01*
X166686842Y-93962068D01*
X166416589Y-94074010D01*
X166173368Y-94236525D01*
X165966525Y-94443368D01*
X165850000Y-94617760D01*
X165733475Y-94443368D01*
X165526632Y-94236525D01*
X165283411Y-94074010D01*
X165013158Y-93962068D01*
X164726260Y-93905000D01*
X164433740Y-93905000D01*
X164146842Y-93962068D01*
X163876589Y-94074010D01*
X163633368Y-94236525D01*
X163426525Y-94443368D01*
X163310000Y-94617760D01*
X163193475Y-94443368D01*
X162986632Y-94236525D01*
X162743411Y-94074010D01*
X162473158Y-93962068D01*
X162186260Y-93905000D01*
X161893740Y-93905000D01*
X161606842Y-93962068D01*
X161336589Y-94074010D01*
X161093368Y-94236525D01*
X160886525Y-94443368D01*
X160770000Y-94617760D01*
X160653475Y-94443368D01*
X160446632Y-94236525D01*
X160203411Y-94074010D01*
X159933158Y-93962068D01*
X159646260Y-93905000D01*
X159353740Y-93905000D01*
X159066842Y-93962068D01*
X158796589Y-94074010D01*
X158553368Y-94236525D01*
X158346525Y-94443368D01*
X158184010Y-94686589D01*
X158072068Y-94956842D01*
X158015000Y-95243740D01*
X156207451Y-95243740D01*
X156159774Y-95196063D01*
X155990256Y-95082795D01*
X155801898Y-95004774D01*
X155601939Y-94965000D01*
X155398061Y-94965000D01*
X155198102Y-95004774D01*
X155009744Y-95082795D01*
X154840226Y-95196063D01*
X154696063Y-95340226D01*
X154582795Y-95509744D01*
X154504774Y-95698102D01*
X154465000Y-95898061D01*
X147021772Y-95898061D01*
X146969774Y-95846063D01*
X146800256Y-95732795D01*
X146611898Y-95654774D01*
X146411939Y-95615000D01*
X146208061Y-95615000D01*
X146008102Y-95654774D01*
X145819744Y-95732795D01*
X145650226Y-95846063D01*
X145506063Y-95990226D01*
X145392795Y-96159744D01*
X145314774Y-96348102D01*
X145275000Y-96548061D01*
X144945393Y-96548061D01*
X144985226Y-96451898D01*
X145025000Y-96251939D01*
X145025000Y-96048061D01*
X144985226Y-95848102D01*
X144907205Y-95659744D01*
X144793937Y-95490226D01*
X144649774Y-95346063D01*
X144480256Y-95232795D01*
X144291898Y-95154774D01*
X144091939Y-95115000D01*
X143888061Y-95115000D01*
X143874779Y-95117642D01*
X143885000Y-95066260D01*
X143885000Y-94773740D01*
X143873120Y-94714017D01*
X143878061Y-94715000D01*
X144081939Y-94715000D01*
X144281898Y-94675226D01*
X144470256Y-94597205D01*
X144639774Y-94483937D01*
X144783937Y-94339774D01*
X144897205Y-94170256D01*
X144975226Y-93981898D01*
X145015000Y-93781939D01*
X145015000Y-93578061D01*
X144975226Y-93378102D01*
X144897205Y-93189744D01*
X144783937Y-93020226D01*
X144639774Y-92876063D01*
X144470256Y-92762795D01*
X144281898Y-92684774D01*
X144081939Y-92645000D01*
X143878061Y-92645000D01*
X143860694Y-92648455D01*
X143885000Y-92526260D01*
X143885000Y-92233740D01*
X143827932Y-91946842D01*
X143715990Y-91676589D01*
X143553475Y-91433368D01*
X143346632Y-91226525D01*
X143103411Y-91064010D01*
X142833158Y-90952068D01*
X142546260Y-90895000D01*
X142253740Y-90895000D01*
X141966842Y-90952068D01*
X141696589Y-91064010D01*
X141453368Y-91226525D01*
X141246525Y-91433368D01*
X141084010Y-91676589D01*
X141035000Y-91794910D01*
X141035000Y-91698061D01*
X140995226Y-91498102D01*
X140917205Y-91309744D01*
X140803937Y-91140226D01*
X140659774Y-90996063D01*
X140490256Y-90882795D01*
X140301898Y-90804774D01*
X140101939Y-90765000D01*
X139898061Y-90765000D01*
X139698102Y-90804774D01*
X139509744Y-90882795D01*
X139340226Y-90996063D01*
X139196063Y-91140226D01*
X139082795Y-91309744D01*
X139004774Y-91498102D01*
X138965000Y-91698061D01*
X138765650Y-91698061D01*
X138803937Y-91659774D01*
X138917205Y-91490256D01*
X138995226Y-91301898D01*
X139035000Y-91101939D01*
X139035000Y-90898061D01*
X138995226Y-90698102D01*
X138979444Y-90660000D01*
X148916289Y-90660000D01*
X148896063Y-90680226D01*
G37*
%TD.AperFunction*%
%TD*%
M02*
